SplineFontDB: 3.2
FontName: Untitled3
FullName: Untitled3
FamilyName: Untitled3
Weight: Regular
Copyright: Copyright (c) 2025, EloiStree
UComments: "2025-7-27: Created with FontForge (http://fontforge.org)"
Version: 001.000
ItalicAngle: 0
UnderlinePosition: -100
UnderlineWidth: 50
Ascent: 800
Descent: 200
InvalidEm: 0
LayerCount: 2
Layer: 0 0 "Back" 1
Layer: 1 0 "Fore" 0
XUID: [1021 438 763870636 32605]
OS2Version: 0
OS2_WeightWidthSlopeOnly: 0
OS2_UseTypoMetrics: 1
CreationTime: 1753624536
ModificationTime: 1753639164
OS2TypoAscent: 0
OS2TypoAOffset: 1
OS2TypoDescent: 0
OS2TypoDOffset: 1
OS2TypoLinegap: 0
OS2WinAscent: 0
OS2WinAOffset: 1
OS2WinDescent: 0
OS2WinDOffset: 1
HheadAscent: 0
HheadAOffset: 1
HheadDescent: 0
HheadDOffset: 1
OS2Vendor: 'PfEd'
DEI: 91125
Encoding: ISO8859-1
UnicodeInterp: none
NameList: AGL For New Fonts
DisplaySize: -48
AntiAlias: 1
FitToEm: 0
WinInfo: 0 27 14
BeginChars: 256 128

StartChar: A
Encoding: 65 65 0
Width: 1000
Flags: HW
LayerCount: 2
Fore
SplineSet
1.474609375 563.237304688 m 1
 1.474609375 800.525390625 l 1
 238.762695312 800.525390625 l 1
 238.762695312 563.237304688 l 1
 1.474609375 563.237304688 l 1
EndSplineSet
EndChar

StartChar: B
Encoding: 66 66 1
Width: 1000
Flags: HW
LayerCount: 2
Fore
SplineSet
255.711914062 563.237304688 m 1
 255.711914062 800.525390625 l 1
 493 800.525390625 l 1
 493 563.237304688 l 1
 255.711914062 563.237304688 l 1
EndSplineSet
EndChar

StartChar: C
Encoding: 67 67 2
Width: 1000
Flags: HW
LayerCount: 2
Fore
SplineSet
509.94921875 563.237304688 m 1
 509.94921875 800.525390625 l 1
 747.237304688 800.525390625 l 1
 747.237304688 563.237304688 l 1
 509.94921875 563.237304688 l 1
EndSplineSet
EndChar

StartChar: D
Encoding: 68 68 3
Width: 1000
Flags: HW
LayerCount: 2
Fore
SplineSet
764.186523438 563.237304688 m 5
 764.186523438 800.525390625 l 5
 1001.47460938 800.525390625 l 5
 1001.47460938 563.237304688 l 5
 764.186523438 563.237304688 l 5
EndSplineSet
EndChar

StartChar: E
Encoding: 69 69 4
Width: 1000
Flags: HW
LayerCount: 2
Fore
SplineSet
1.474609375 309 m 1
 1.474609375 546.288085938 l 1
 238.762695312 546.288085938 l 1
 238.762695312 309 l 1
 1.474609375 309 l 1
EndSplineSet
EndChar

StartChar: F
Encoding: 70 70 5
Width: 1000
Flags: HW
LayerCount: 2
Fore
SplineSet
255.711914062 309 m 1
 255.711914062 546.288085938 l 1
 493 546.288085938 l 1
 493 309 l 1
 255.711914062 309 l 1
EndSplineSet
EndChar

StartChar: G
Encoding: 71 71 6
Width: 1000
Flags: HW
LayerCount: 2
Fore
SplineSet
509.94921875 309 m 1
 509.94921875 546.288085938 l 1
 747.237304688 546.288085938 l 1
 747.237304688 309 l 1
 509.94921875 309 l 1
EndSplineSet
EndChar

StartChar: H
Encoding: 72 72 7
Width: 1000
Flags: HW
LayerCount: 2
Fore
SplineSet
764.186523438 309 m 1
 764.186523438 546.288085938 l 1
 1001.47460938 546.288085938 l 1
 1001.47460938 309 l 1
 764.186523438 309 l 1
EndSplineSet
EndChar

StartChar: I
Encoding: 73 73 8
Width: 1000
Flags: HW
LayerCount: 2
Fore
SplineSet
1.474609375 54.7626953125 m 1
 1.474609375 292.05078125 l 1
 238.762695312 292.05078125 l 1
 238.762695312 54.7626953125 l 1
 1.474609375 54.7626953125 l 1
EndSplineSet
EndChar

StartChar: J
Encoding: 74 74 9
Width: 1000
Flags: HW
LayerCount: 2
Fore
SplineSet
255.711914062 54.7626953125 m 1
 255.711914062 292.05078125 l 1
 493 292.05078125 l 1
 493 54.7626953125 l 1
 255.711914062 54.7626953125 l 1
EndSplineSet
EndChar

StartChar: K
Encoding: 75 75 10
Width: 1000
Flags: HW
LayerCount: 2
Fore
SplineSet
509.94921875 54.7626953125 m 1
 509.94921875 292.05078125 l 1
 747.237304688 292.05078125 l 1
 747.237304688 54.7626953125 l 1
 509.94921875 54.7626953125 l 1
EndSplineSet
EndChar

StartChar: L
Encoding: 76 76 11
Width: 1000
Flags: HW
LayerCount: 2
Fore
SplineSet
764.186523438 54.7626953125 m 1
 764.186523438 292.05078125 l 1
 1001.47460938 292.05078125 l 1
 1001.47460938 54.7626953125 l 1
 764.186523438 54.7626953125 l 1
EndSplineSet
EndChar

StartChar: M
Encoding: 77 77 12
Width: 1000
Flags: HW
LayerCount: 2
Fore
SplineSet
1.474609375 37.8134765625 m 1
 238.762695312 37.8134765625 l 1
 238.762695312 -199.474609375 l 1
 1.474609375 -199.474609375 l 1
 1.474609375 37.8134765625 l 1
EndSplineSet
EndChar

StartChar: N
Encoding: 78 78 13
Width: 1000
Flags: HW
LayerCount: 2
Fore
SplineSet
255.711914062 -199.474609375 m 1
 255.711914062 37.8134765625 l 1
 493 37.8134765625 l 1
 493 -199.474609375 l 1
 255.711914062 -199.474609375 l 1
EndSplineSet
EndChar

StartChar: O
Encoding: 79 79 14
Width: 1000
Flags: HW
LayerCount: 2
Fore
SplineSet
509.94921875 -199.474609375 m 1
 509.94921875 37.8134765625 l 1
 747.237304688 37.8134765625 l 1
 747.237304688 -199.474609375 l 1
 509.94921875 -199.474609375 l 1
EndSplineSet
EndChar

StartChar: P
Encoding: 80 80 15
Width: 1000
Flags: HW
LayerCount: 2
Fore
SplineSet
764.186523438 -199.474609375 m 1
 764.186523438 37.8134765625 l 1
 1001.47460938 37.8134765625 l 1
 1001.47460938 -199.474609375 l 1
 764.186523438 -199.474609375 l 1
EndSplineSet
EndChar

StartChar: Q
Encoding: 81 81 16
Width: 1000
Flags: HW
LayerCount: 2
Fore
SplineSet
1.474609375 37.8134765625 m 1
 238.762695312 37.8134765625 l 1
 238.762695312 -199.474609375 l 1
 1.474609375 -199.474609375 l 1
 1.474609375 37.8134765625 l 1
1.474609375 54.7626953125 m 1
 1.474609375 292.05078125 l 1
 238.762695312 292.05078125 l 1
 238.762695312 54.7626953125 l 1
 1.474609375 54.7626953125 l 1
1.474609375 309 m 1
 1.474609375 546.288085938 l 1
 238.762695312 546.288085938 l 1
 238.762695312 309 l 1
 1.474609375 309 l 1
1.474609375 563.237304688 m 1
 1.474609375 800.525390625 l 1
 238.762695312 800.525390625 l 1
 238.762695312 563.237304688 l 1
 1.474609375 563.237304688 l 1
EndSplineSet
EndChar

StartChar: R
Encoding: 82 82 17
Width: 1000
Flags: HW
LayerCount: 2
Fore
SplineSet
255.711914062 -199.474609375 m 1
 255.711914062 37.8134765625 l 1
 493 37.8134765625 l 1
 493 -199.474609375 l 1
 255.711914062 -199.474609375 l 1
255.711914062 54.7626953125 m 1
 255.711914062 292.05078125 l 1
 493 292.05078125 l 1
 493 54.7626953125 l 1
 255.711914062 54.7626953125 l 1
255.711914062 309 m 1
 255.711914062 546.288085938 l 1
 493 546.288085938 l 1
 493 309 l 1
 255.711914062 309 l 1
255.711914062 563.237304688 m 1
 255.711914062 800.525390625 l 1
 493 800.525390625 l 1
 493 563.237304688 l 1
 255.711914062 563.237304688 l 1
EndSplineSet
EndChar

StartChar: S
Encoding: 83 83 18
Width: 1000
Flags: HW
LayerCount: 2
Fore
SplineSet
509.94921875 -199.474609375 m 1
 509.94921875 37.8134765625 l 1
 747.237304688 37.8134765625 l 1
 747.237304688 -199.474609375 l 1
 509.94921875 -199.474609375 l 1
509.94921875 54.7626953125 m 1
 509.94921875 292.05078125 l 1
 747.237304688 292.05078125 l 1
 747.237304688 54.7626953125 l 1
 509.94921875 54.7626953125 l 1
509.94921875 309 m 1
 509.94921875 546.288085938 l 1
 747.237304688 546.288085938 l 1
 747.237304688 309 l 1
 509.94921875 309 l 1
509.94921875 563.237304688 m 1
 509.94921875 800.525390625 l 1
 747.237304688 800.525390625 l 1
 747.237304688 563.237304688 l 1
 509.94921875 563.237304688 l 1
EndSplineSet
EndChar

StartChar: T
Encoding: 84 84 19
Width: 1000
Flags: HW
LayerCount: 2
Fore
SplineSet
764.186523438 -199.474609375 m 1
 764.186523438 37.8134765625 l 1
 1001.47460938 37.8134765625 l 1
 1001.47460938 -199.474609375 l 1
 764.186523438 -199.474609375 l 1
764.186523438 54.7626953125 m 1
 764.186523438 292.05078125 l 1
 1001.47460938 292.05078125 l 1
 1001.47460938 54.7626953125 l 1
 764.186523438 54.7626953125 l 1
764.186523438 309 m 1
 764.186523438 546.288085938 l 1
 1001.47460938 546.288085938 l 1
 1001.47460938 309 l 1
 764.186523438 309 l 1
764.186523438 563.237304688 m 1
 764.186523438 800.525390625 l 1
 1001.47460938 800.525390625 l 1
 1001.47460938 563.237304688 l 1
 764.186523438 563.237304688 l 1
EndSplineSet
EndChar

StartChar: U
Encoding: 85 85 20
Width: 1000
Flags: HW
LayerCount: 2
Fore
SplineSet
1.474609375 563.237304688 m 1
 1.474609375 800.525390625 l 1
 238.762695312 800.525390625 l 1
 238.762695312 563.237304688 l 1
 1.474609375 563.237304688 l 1
255.711914062 563.237304688 m 1
 255.711914062 800.525390625 l 1
 493 800.525390625 l 1
 493 563.237304688 l 1
 255.711914062 563.237304688 l 1
509.94921875 563.237304688 m 1
 509.94921875 800.525390625 l 1
 747.237304688 800.525390625 l 1
 747.237304688 563.237304688 l 1
 509.94921875 563.237304688 l 1
764.186523438 563.237304688 m 1
 764.186523438 800.525390625 l 1
 1001.47460938 800.525390625 l 1
 1001.47460938 563.237304688 l 1
 764.186523438 563.237304688 l 1
EndSplineSet
EndChar

StartChar: V
Encoding: 86 86 21
Width: 1000
Flags: HW
LayerCount: 2
Fore
SplineSet
1.474609375 309 m 1
 1.474609375 546.288085938 l 1
 238.762695312 546.288085938 l 1
 238.762695312 309 l 1
 1.474609375 309 l 1
255.711914062 309 m 1
 255.711914062 546.288085938 l 1
 493 546.288085938 l 1
 493 309 l 1
 255.711914062 309 l 1
509.94921875 309 m 1
 509.94921875 546.288085938 l 1
 747.237304688 546.288085938 l 1
 747.237304688 309 l 1
 509.94921875 309 l 1
764.186523438 309 m 1
 764.186523438 546.288085938 l 1
 1001.47460938 546.288085938 l 1
 1001.47460938 309 l 1
 764.186523438 309 l 1
EndSplineSet
EndChar

StartChar: W
Encoding: 87 87 22
Width: 1000
Flags: HW
LayerCount: 2
Fore
SplineSet
1.474609375 54.7626953125 m 1
 1.474609375 292.05078125 l 1
 238.762695312 292.05078125 l 1
 238.762695312 54.7626953125 l 1
 1.474609375 54.7626953125 l 1
255.711914062 54.7626953125 m 1
 255.711914062 292.05078125 l 1
 493 292.05078125 l 1
 493 54.7626953125 l 1
 255.711914062 54.7626953125 l 1
509.94921875 54.7626953125 m 1
 509.94921875 292.05078125 l 1
 747.237304688 292.05078125 l 1
 747.237304688 54.7626953125 l 1
 509.94921875 54.7626953125 l 1
764.186523438 54.7626953125 m 1
 764.186523438 292.05078125 l 1
 1001.47460938 292.05078125 l 1
 1001.47460938 54.7626953125 l 1
 764.186523438 54.7626953125 l 1
EndSplineSet
EndChar

StartChar: X
Encoding: 88 88 23
Width: 1000
Flags: HW
LayerCount: 2
Fore
SplineSet
1.474609375 37.8134765625 m 1
 238.762695312 37.8134765625 l 1
 238.762695312 -199.474609375 l 1
 1.474609375 -199.474609375 l 1
 1.474609375 37.8134765625 l 1
255.711914062 -199.474609375 m 1
 255.711914062 37.8134765625 l 1
 493 37.8134765625 l 1
 493 -199.474609375 l 1
 255.711914062 -199.474609375 l 1
509.94921875 -199.474609375 m 1
 509.94921875 37.8134765625 l 1
 747.237304688 37.8134765625 l 1
 747.237304688 -199.474609375 l 1
 509.94921875 -199.474609375 l 1
764.186523438 -199.474609375 m 1
 764.186523438 37.8134765625 l 1
 1001.47460938 37.8134765625 l 1
 1001.47460938 -199.474609375 l 1
 764.186523438 -199.474609375 l 1
EndSplineSet
EndChar

StartChar: Y
Encoding: 89 89 24
Width: 1000
Flags: HW
LayerCount: 2
Fore
SplineSet
255.711914062 -199.474609375 m 1
 255.711914062 37.8134765625 l 1
 493 37.8134765625 l 1
 493 -199.474609375 l 1
 255.711914062 -199.474609375 l 1
509.94921875 -199.474609375 m 1
 509.94921875 37.8134765625 l 1
 747.237304688 37.8134765625 l 1
 747.237304688 -199.474609375 l 1
 509.94921875 -199.474609375 l 1
255.711914062 54.7626953125 m 1
 255.711914062 292.05078125 l 1
 493 292.05078125 l 1
 493 54.7626953125 l 1
 255.711914062 54.7626953125 l 1
509.94921875 54.7626953125 m 1
 509.94921875 292.05078125 l 1
 747.237304688 292.05078125 l 1
 747.237304688 54.7626953125 l 1
 509.94921875 54.7626953125 l 1
255.711914062 309 m 1
 255.711914062 546.288085938 l 1
 493 546.288085938 l 1
 493 309 l 1
 255.711914062 309 l 1
509.94921875 309 m 1
 509.94921875 546.288085938 l 1
 747.237304688 546.288085938 l 1
 747.237304688 309 l 1
 509.94921875 309 l 1
255.711914062 563.237304688 m 1
 255.711914062 800.525390625 l 1
 493 800.525390625 l 1
 493 563.237304688 l 1
 255.711914062 563.237304688 l 1
509.94921875 563.237304688 m 1
 509.94921875 800.525390625 l 1
 747.237304688 800.525390625 l 1
 747.237304688 563.237304688 l 1
 509.94921875 563.237304688 l 1
EndSplineSet
EndChar

StartChar: Z
Encoding: 90 90 25
Width: 1000
Flags: HW
LayerCount: 2
Fore
SplineSet
1.474609375 54.7626953125 m 1
 1.474609375 292.05078125 l 1
 238.762695312 292.05078125 l 1
 238.762695312 54.7626953125 l 1
 1.474609375 54.7626953125 l 1
255.711914062 54.7626953125 m 1
 255.711914062 292.05078125 l 1
 493 292.05078125 l 1
 493 54.7626953125 l 1
 255.711914062 54.7626953125 l 1
509.94921875 54.7626953125 m 1
 509.94921875 292.05078125 l 1
 747.237304688 292.05078125 l 1
 747.237304688 54.7626953125 l 1
 509.94921875 54.7626953125 l 1
764.186523438 54.7626953125 m 1
 764.186523438 292.05078125 l 1
 1001.47460938 292.05078125 l 1
 1001.47460938 54.7626953125 l 1
 764.186523438 54.7626953125 l 1
1.474609375 309 m 1
 1.474609375 546.288085938 l 1
 238.762695312 546.288085938 l 1
 238.762695312 309 l 1
 1.474609375 309 l 1
255.711914062 309 m 1
 255.711914062 546.288085938 l 1
 493 546.288085938 l 1
 493 309 l 1
 255.711914062 309 l 1
509.94921875 309 m 1
 509.94921875 546.288085938 l 1
 747.237304688 546.288085938 l 1
 747.237304688 309 l 1
 509.94921875 309 l 1
764.186523438 309 m 1
 764.186523438 546.288085938 l 1
 1001.47460938 546.288085938 l 1
 1001.47460938 309 l 1
 764.186523438 309 l 1
EndSplineSet
EndChar

StartChar: bracketleft
Encoding: 91 91 26
Width: 1000
Flags: HW
LayerCount: 2
Fore
SplineSet
1.474609375 37.8134765625 m 1
 238.762695312 37.8134765625 l 1
 238.762695312 -199.474609375 l 1
 1.474609375 -199.474609375 l 1
 1.474609375 37.8134765625 l 1
255.711914062 -199.474609375 m 1
 255.711914062 37.8134765625 l 1
 493 37.8134765625 l 1
 493 -199.474609375 l 1
 255.711914062 -199.474609375 l 1
1.474609375 54.7626953125 m 1
 1.474609375 292.05078125 l 1
 238.762695312 292.05078125 l 1
 238.762695312 54.7626953125 l 1
 1.474609375 54.7626953125 l 1
255.711914062 54.7626953125 m 1
 255.711914062 292.05078125 l 1
 493 292.05078125 l 1
 493 54.7626953125 l 1
 255.711914062 54.7626953125 l 1
1.474609375 309 m 1
 1.474609375 546.288085938 l 1
 238.762695312 546.288085938 l 1
 238.762695312 309 l 1
 1.474609375 309 l 1
255.711914062 309 m 1
 255.711914062 546.288085938 l 1
 493 546.288085938 l 1
 493 309 l 1
 255.711914062 309 l 1
1.474609375 563.237304688 m 1
 1.474609375 800.525390625 l 1
 238.762695312 800.525390625 l 1
 238.762695312 563.237304688 l 1
 1.474609375 563.237304688 l 1
255.711914062 563.237304688 m 1
 255.711914062 800.525390625 l 1
 493 800.525390625 l 1
 493 563.237304688 l 1
 255.711914062 563.237304688 l 1
EndSplineSet
EndChar

StartChar: backslash
Encoding: 92 92 27
Width: 1000
Flags: HW
LayerCount: 2
Fore
SplineSet
1.474609375 37.8134765625 m 1
 238.762695312 37.8134765625 l 1
 238.762695312 -199.474609375 l 1
 1.474609375 -199.474609375 l 1
 1.474609375 37.8134765625 l 1
255.711914062 -199.474609375 m 1
 255.711914062 37.8134765625 l 1
 493 37.8134765625 l 1
 493 -199.474609375 l 1
 255.711914062 -199.474609375 l 1
509.94921875 -199.474609375 m 1
 509.94921875 37.8134765625 l 1
 747.237304688 37.8134765625 l 1
 747.237304688 -199.474609375 l 1
 509.94921875 -199.474609375 l 1
764.186523438 -199.474609375 m 1
 764.186523438 37.8134765625 l 1
 1001.47460938 37.8134765625 l 1
 1001.47460938 -199.474609375 l 1
 764.186523438 -199.474609375 l 1
1.474609375 54.7626953125 m 1
 1.474609375 292.05078125 l 1
 238.762695312 292.05078125 l 1
 238.762695312 54.7626953125 l 1
 1.474609375 54.7626953125 l 1
255.711914062 54.7626953125 m 1
 255.711914062 292.05078125 l 1
 493 292.05078125 l 1
 493 54.7626953125 l 1
 255.711914062 54.7626953125 l 1
509.94921875 54.7626953125 m 1
 509.94921875 292.05078125 l 1
 747.237304688 292.05078125 l 1
 747.237304688 54.7626953125 l 1
 509.94921875 54.7626953125 l 1
764.186523438 54.7626953125 m 1
 764.186523438 292.05078125 l 1
 1001.47460938 292.05078125 l 1
 1001.47460938 54.7626953125 l 1
 764.186523438 54.7626953125 l 1
EndSplineSet
EndChar

StartChar: bracketright
Encoding: 93 93 28
Width: 1000
Flags: HW
LayerCount: 2
Fore
SplineSet
509.94921875 -199.474609375 m 1
 509.94921875 37.8134765625 l 1
 747.237304688 37.8134765625 l 1
 747.237304688 -199.474609375 l 1
 509.94921875 -199.474609375 l 1
764.186523438 -199.474609375 m 1
 764.186523438 37.8134765625 l 1
 1001.47460938 37.8134765625 l 1
 1001.47460938 -199.474609375 l 1
 764.186523438 -199.474609375 l 1
509.94921875 54.7626953125 m 1
 509.94921875 292.05078125 l 1
 747.237304688 292.05078125 l 1
 747.237304688 54.7626953125 l 1
 509.94921875 54.7626953125 l 1
764.186523438 54.7626953125 m 1
 764.186523438 292.05078125 l 1
 1001.47460938 292.05078125 l 1
 1001.47460938 54.7626953125 l 1
 764.186523438 54.7626953125 l 1
509.94921875 309 m 1
 509.94921875 546.288085938 l 1
 747.237304688 546.288085938 l 1
 747.237304688 309 l 1
 509.94921875 309 l 1
764.186523438 309 m 1
 764.186523438 546.288085938 l 1
 1001.47460938 546.288085938 l 1
 1001.47460938 309 l 1
 764.186523438 309 l 1
509.94921875 563.237304688 m 1
 509.94921875 800.525390625 l 1
 747.237304688 800.525390625 l 1
 747.237304688 563.237304688 l 1
 509.94921875 563.237304688 l 1
764.186523438 563.237304688 m 1
 764.186523438 800.525390625 l 1
 1001.47460938 800.525390625 l 1
 1001.47460938 563.237304688 l 1
 764.186523438 563.237304688 l 1
EndSplineSet
EndChar

StartChar: asciicircum
Encoding: 94 94 29
Width: 1000
Flags: HW
LayerCount: 2
Fore
SplineSet
1.474609375 309 m 1
 1.474609375 546.288085938 l 1
 238.762695312 546.288085938 l 1
 238.762695312 309 l 1
 1.474609375 309 l 1
255.711914062 309 m 1
 255.711914062 546.288085938 l 1
 493 546.288085938 l 1
 493 309 l 1
 255.711914062 309 l 1
509.94921875 309 m 1
 509.94921875 546.288085938 l 1
 747.237304688 546.288085938 l 1
 747.237304688 309 l 1
 509.94921875 309 l 1
764.186523438 309 m 1
 764.186523438 546.288085938 l 1
 1001.47460938 546.288085938 l 1
 1001.47460938 309 l 1
 764.186523438 309 l 1
1.474609375 563.237304688 m 1
 1.474609375 800.525390625 l 1
 238.762695312 800.525390625 l 1
 238.762695312 563.237304688 l 1
 1.474609375 563.237304688 l 1
255.711914062 563.237304688 m 1
 255.711914062 800.525390625 l 1
 493 800.525390625 l 1
 493 563.237304688 l 1
 255.711914062 563.237304688 l 1
509.94921875 563.237304688 m 1
 509.94921875 800.525390625 l 1
 747.237304688 800.525390625 l 1
 747.237304688 563.237304688 l 1
 509.94921875 563.237304688 l 1
764.186523438 563.237304688 m 1
 764.186523438 800.525390625 l 1
 1001.47460938 800.525390625 l 1
 1001.47460938 563.237304688 l 1
 764.186523438 563.237304688 l 1
EndSplineSet
EndChar

StartChar: underscore
Encoding: 95 95 30
Width: 1000
Flags: HW
LayerCount: 2
Fore
SplineSet
509.94921875 -199.474609375 m 1
 509.94921875 37.8134765625 l 1
 747.237304688 37.8134765625 l 1
 747.237304688 -199.474609375 l 1
 509.94921875 -199.474609375 l 1
764.186523438 -199.474609375 m 1
 764.186523438 37.8134765625 l 1
 1001.47460938 37.8134765625 l 1
 1001.47460938 -199.474609375 l 1
 764.186523438 -199.474609375 l 1
509.94921875 54.7626953125 m 1
 509.94921875 292.05078125 l 1
 747.237304688 292.05078125 l 1
 747.237304688 54.7626953125 l 1
 509.94921875 54.7626953125 l 1
764.186523438 54.7626953125 m 1
 764.186523438 292.05078125 l 1
 1001.47460938 292.05078125 l 1
 1001.47460938 54.7626953125 l 1
 764.186523438 54.7626953125 l 1
1.474609375 309 m 1
 1.474609375 546.288085938 l 1
 238.762695312 546.288085938 l 1
 238.762695312 309 l 1
 1.474609375 309 l 1
255.711914062 309 m 1
 255.711914062 546.288085938 l 1
 493 546.288085938 l 1
 493 309 l 1
 255.711914062 309 l 1
1.474609375 563.237304688 m 1
 1.474609375 800.525390625 l 1
 238.762695312 800.525390625 l 1
 238.762695312 563.237304688 l 1
 1.474609375 563.237304688 l 1
255.711914062 563.237304688 m 1
 255.711914062 800.525390625 l 1
 493 800.525390625 l 1
 493 563.237304688 l 1
 255.711914062 563.237304688 l 1
EndSplineSet
EndChar

StartChar: grave
Encoding: 96 96 31
Width: 1000
Flags: HW
LayerCount: 2
Fore
SplineSet
1.474609375 37.8134765625 m 1
 238.762695312 37.8134765625 l 1
 238.762695312 -199.474609375 l 1
 1.474609375 -199.474609375 l 1
 1.474609375 37.8134765625 l 1
255.711914062 -199.474609375 m 1
 255.711914062 37.8134765625 l 1
 493 37.8134765625 l 1
 493 -199.474609375 l 1
 255.711914062 -199.474609375 l 1
1.474609375 54.7626953125 m 1
 1.474609375 292.05078125 l 1
 238.762695312 292.05078125 l 1
 238.762695312 54.7626953125 l 1
 1.474609375 54.7626953125 l 1
255.711914062 54.7626953125 m 1
 255.711914062 292.05078125 l 1
 493 292.05078125 l 1
 493 54.7626953125 l 1
 255.711914062 54.7626953125 l 1
509.94921875 309 m 1
 509.94921875 546.288085938 l 1
 747.237304688 546.288085938 l 1
 747.237304688 309 l 1
 509.94921875 309 l 1
764.186523438 309 m 1
 764.186523438 546.288085938 l 1
 1001.47460938 546.288085938 l 1
 1001.47460938 309 l 1
 764.186523438 309 l 1
509.94921875 563.237304688 m 1
 509.94921875 800.525390625 l 1
 747.237304688 800.525390625 l 1
 747.237304688 563.237304688 l 1
 509.94921875 563.237304688 l 1
764.186523438 563.237304688 m 1
 764.186523438 800.525390625 l 1
 1001.47460938 800.525390625 l 1
 1001.47460938 563.237304688 l 1
 764.186523438 563.237304688 l 1
EndSplineSet
EndChar

StartChar: a
Encoding: 97 97 32
Width: 1000
Flags: HW
LayerCount: 2
Fore
SplineSet
1.474609375 37.8134765625 m 1
 238.762695312 37.8134765625 l 1
 238.762695312 -199.474609375 l 1
 1.474609375 -199.474609375 l 1
 1.474609375 37.8134765625 l 1
255.711914062 -199.474609375 m 1
 255.711914062 37.8134765625 l 1
 493 37.8134765625 l 1
 493 -199.474609375 l 1
 255.711914062 -199.474609375 l 1
509.94921875 -199.474609375 m 1
 509.94921875 37.8134765625 l 1
 747.237304688 37.8134765625 l 1
 747.237304688 -199.474609375 l 1
 509.94921875 -199.474609375 l 1
764.186523438 -199.474609375 m 1
 764.186523438 37.8134765625 l 1
 1001.47460938 37.8134765625 l 1
 1001.47460938 -199.474609375 l 1
 764.186523438 -199.474609375 l 1
1.474609375 54.7626953125 m 1
 1.474609375 292.05078125 l 1
 238.762695312 292.05078125 l 1
 238.762695312 54.7626953125 l 1
 1.474609375 54.7626953125 l 1
255.711914062 54.7626953125 m 1
 255.711914062 292.05078125 l 1
 493 292.05078125 l 1
 493 54.7626953125 l 1
 255.711914062 54.7626953125 l 1
509.94921875 54.7626953125 m 1
 509.94921875 292.05078125 l 1
 747.237304688 292.05078125 l 1
 747.237304688 54.7626953125 l 1
 509.94921875 54.7626953125 l 1
764.186523438 54.7626953125 m 1
 764.186523438 292.05078125 l 1
 1001.47460938 292.05078125 l 1
 1001.47460938 54.7626953125 l 1
 764.186523438 54.7626953125 l 1
1.474609375 309 m 1
 1.474609375 546.288085938 l 1
 238.762695312 546.288085938 l 1
 238.762695312 309 l 1
 1.474609375 309 l 1
255.711914062 309 m 1
 255.711914062 546.288085938 l 1
 493 546.288085938 l 1
 493 309 l 1
 255.711914062 309 l 1
509.94921875 309 m 1
 509.94921875 546.288085938 l 1
 747.237304688 546.288085938 l 1
 747.237304688 309 l 1
 509.94921875 309 l 1
764.186523438 309 m 1
 764.186523438 546.288085938 l 1
 1001.47460938 546.288085938 l 1
 1001.47460938 309 l 1
 764.186523438 309 l 1
255.711914062 563.237304688 m 1
 255.711914062 800.525390625 l 1
 493 800.525390625 l 1
 493 563.237304688 l 1
 255.711914062 563.237304688 l 1
509.94921875 563.237304688 m 1
 509.94921875 800.525390625 l 1
 747.237304688 800.525390625 l 1
 747.237304688 563.237304688 l 1
 509.94921875 563.237304688 l 1
764.186523438 563.237304688 m 1
 764.186523438 800.525390625 l 1
 1001.47460938 800.525390625 l 1
 1001.47460938 563.237304688 l 1
 764.186523438 563.237304688 l 1
EndSplineSet
EndChar

StartChar: b
Encoding: 98 98 33
Width: 1000
Flags: HW
LayerCount: 2
Fore
SplineSet
1.474609375 37.8134765625 m 1
 238.762695312 37.8134765625 l 1
 238.762695312 -199.474609375 l 1
 1.474609375 -199.474609375 l 1
 1.474609375 37.8134765625 l 1
255.711914062 -199.474609375 m 1
 255.711914062 37.8134765625 l 1
 493 37.8134765625 l 1
 493 -199.474609375 l 1
 255.711914062 -199.474609375 l 1
509.94921875 -199.474609375 m 1
 509.94921875 37.8134765625 l 1
 747.237304688 37.8134765625 l 1
 747.237304688 -199.474609375 l 1
 509.94921875 -199.474609375 l 1
764.186523438 -199.474609375 m 1
 764.186523438 37.8134765625 l 1
 1001.47460938 37.8134765625 l 1
 1001.47460938 -199.474609375 l 1
 764.186523438 -199.474609375 l 1
1.474609375 54.7626953125 m 1
 1.474609375 292.05078125 l 1
 238.762695312 292.05078125 l 1
 238.762695312 54.7626953125 l 1
 1.474609375 54.7626953125 l 1
255.711914062 54.7626953125 m 1
 255.711914062 292.05078125 l 1
 493 292.05078125 l 1
 493 54.7626953125 l 1
 255.711914062 54.7626953125 l 1
509.94921875 54.7626953125 m 1
 509.94921875 292.05078125 l 1
 747.237304688 292.05078125 l 1
 747.237304688 54.7626953125 l 1
 509.94921875 54.7626953125 l 1
764.186523438 54.7626953125 m 1
 764.186523438 292.05078125 l 1
 1001.47460938 292.05078125 l 1
 1001.47460938 54.7626953125 l 1
 764.186523438 54.7626953125 l 1
1.474609375 309 m 1
 1.474609375 546.288085938 l 1
 238.762695312 546.288085938 l 1
 238.762695312 309 l 1
 1.474609375 309 l 1
255.711914062 309 m 1
 255.711914062 546.288085938 l 1
 493 546.288085938 l 1
 493 309 l 1
 255.711914062 309 l 1
509.94921875 309 m 1
 509.94921875 546.288085938 l 1
 747.237304688 546.288085938 l 1
 747.237304688 309 l 1
 509.94921875 309 l 1
764.186523438 309 m 1
 764.186523438 546.288085938 l 1
 1001.47460938 546.288085938 l 1
 1001.47460938 309 l 1
 764.186523438 309 l 1
1.474609375 563.237304688 m 1
 1.474609375 800.525390625 l 1
 238.762695312 800.525390625 l 1
 238.762695312 563.237304688 l 1
 1.474609375 563.237304688 l 1
509.94921875 563.237304688 m 1
 509.94921875 800.525390625 l 1
 747.237304688 800.525390625 l 1
 747.237304688 563.237304688 l 1
 509.94921875 563.237304688 l 1
764.186523438 563.237304688 m 1
 764.186523438 800.525390625 l 1
 1001.47460938 800.525390625 l 1
 1001.47460938 563.237304688 l 1
 764.186523438 563.237304688 l 1
EndSplineSet
EndChar

StartChar: c
Encoding: 99 99 34
Width: 1000
Flags: HW
LayerCount: 2
Fore
SplineSet
1.474609375 37.8134765625 m 1
 238.762695312 37.8134765625 l 1
 238.762695312 -199.474609375 l 1
 1.474609375 -199.474609375 l 1
 1.474609375 37.8134765625 l 1
255.711914062 -199.474609375 m 1
 255.711914062 37.8134765625 l 1
 493 37.8134765625 l 1
 493 -199.474609375 l 1
 255.711914062 -199.474609375 l 1
509.94921875 -199.474609375 m 1
 509.94921875 37.8134765625 l 1
 747.237304688 37.8134765625 l 1
 747.237304688 -199.474609375 l 1
 509.94921875 -199.474609375 l 1
764.186523438 -199.474609375 m 1
 764.186523438 37.8134765625 l 1
 1001.47460938 37.8134765625 l 1
 1001.47460938 -199.474609375 l 1
 764.186523438 -199.474609375 l 1
1.474609375 54.7626953125 m 1
 1.474609375 292.05078125 l 1
 238.762695312 292.05078125 l 1
 238.762695312 54.7626953125 l 1
 1.474609375 54.7626953125 l 1
255.711914062 54.7626953125 m 1
 255.711914062 292.05078125 l 1
 493 292.05078125 l 1
 493 54.7626953125 l 1
 255.711914062 54.7626953125 l 1
509.94921875 54.7626953125 m 1
 509.94921875 292.05078125 l 1
 747.237304688 292.05078125 l 1
 747.237304688 54.7626953125 l 1
 509.94921875 54.7626953125 l 1
764.186523438 54.7626953125 m 1
 764.186523438 292.05078125 l 1
 1001.47460938 292.05078125 l 1
 1001.47460938 54.7626953125 l 1
 764.186523438 54.7626953125 l 1
1.474609375 309 m 1
 1.474609375 546.288085938 l 1
 238.762695312 546.288085938 l 1
 238.762695312 309 l 1
 1.474609375 309 l 1
255.711914062 309 m 1
 255.711914062 546.288085938 l 1
 493 546.288085938 l 1
 493 309 l 1
 255.711914062 309 l 1
509.94921875 309 m 1
 509.94921875 546.288085938 l 1
 747.237304688 546.288085938 l 1
 747.237304688 309 l 1
 509.94921875 309 l 1
764.186523438 309 m 1
 764.186523438 546.288085938 l 1
 1001.47460938 546.288085938 l 1
 1001.47460938 309 l 1
 764.186523438 309 l 1
1.474609375 563.237304688 m 1
 1.474609375 800.525390625 l 1
 238.762695312 800.525390625 l 1
 238.762695312 563.237304688 l 1
 1.474609375 563.237304688 l 1
255.711914062 563.237304688 m 1
 255.711914062 800.525390625 l 1
 493 800.525390625 l 1
 493 563.237304688 l 1
 255.711914062 563.237304688 l 1
764.186523438 563.237304688 m 1
 764.186523438 800.525390625 l 1
 1001.47460938 800.525390625 l 1
 1001.47460938 563.237304688 l 1
 764.186523438 563.237304688 l 1
EndSplineSet
EndChar

StartChar: d
Encoding: 100 100 35
Width: 1000
Flags: HW
LayerCount: 2
Fore
SplineSet
1.474609375 37.8134765625 m 1
 238.762695312 37.8134765625 l 1
 238.762695312 -199.474609375 l 1
 1.474609375 -199.474609375 l 1
 1.474609375 37.8134765625 l 1
255.711914062 -199.474609375 m 1
 255.711914062 37.8134765625 l 1
 493 37.8134765625 l 1
 493 -199.474609375 l 1
 255.711914062 -199.474609375 l 1
509.94921875 -199.474609375 m 1
 509.94921875 37.8134765625 l 1
 747.237304688 37.8134765625 l 1
 747.237304688 -199.474609375 l 1
 509.94921875 -199.474609375 l 1
764.186523438 -199.474609375 m 1
 764.186523438 37.8134765625 l 1
 1001.47460938 37.8134765625 l 1
 1001.47460938 -199.474609375 l 1
 764.186523438 -199.474609375 l 1
1.474609375 54.7626953125 m 1
 1.474609375 292.05078125 l 1
 238.762695312 292.05078125 l 1
 238.762695312 54.7626953125 l 1
 1.474609375 54.7626953125 l 1
255.711914062 54.7626953125 m 1
 255.711914062 292.05078125 l 1
 493 292.05078125 l 1
 493 54.7626953125 l 1
 255.711914062 54.7626953125 l 1
509.94921875 54.7626953125 m 1
 509.94921875 292.05078125 l 1
 747.237304688 292.05078125 l 1
 747.237304688 54.7626953125 l 1
 509.94921875 54.7626953125 l 1
764.186523438 54.7626953125 m 1
 764.186523438 292.05078125 l 1
 1001.47460938 292.05078125 l 1
 1001.47460938 54.7626953125 l 1
 764.186523438 54.7626953125 l 1
1.474609375 309 m 1
 1.474609375 546.288085938 l 1
 238.762695312 546.288085938 l 1
 238.762695312 309 l 1
 1.474609375 309 l 1
255.711914062 309 m 1
 255.711914062 546.288085938 l 1
 493 546.288085938 l 1
 493 309 l 1
 255.711914062 309 l 1
509.94921875 309 m 1
 509.94921875 546.288085938 l 1
 747.237304688 546.288085938 l 1
 747.237304688 309 l 1
 509.94921875 309 l 1
764.186523438 309 m 1
 764.186523438 546.288085938 l 1
 1001.47460938 546.288085938 l 1
 1001.47460938 309 l 1
 764.186523438 309 l 1
1.474609375 563.237304688 m 1
 1.474609375 800.525390625 l 1
 238.762695312 800.525390625 l 1
 238.762695312 563.237304688 l 1
 1.474609375 563.237304688 l 1
255.711914062 563.237304688 m 1
 255.711914062 800.525390625 l 1
 493 800.525390625 l 1
 493 563.237304688 l 1
 255.711914062 563.237304688 l 1
509.94921875 563.237304688 m 1
 509.94921875 800.525390625 l 1
 747.237304688 800.525390625 l 1
 747.237304688 563.237304688 l 1
 509.94921875 563.237304688 l 1
EndSplineSet
EndChar

StartChar: e
Encoding: 101 101 36
Width: 1000
Flags: HW
LayerCount: 2
Fore
SplineSet
1.474609375 37.8134765625 m 1
 238.762695312 37.8134765625 l 1
 238.762695312 -199.474609375 l 1
 1.474609375 -199.474609375 l 1
 1.474609375 37.8134765625 l 1
255.711914062 -199.474609375 m 1
 255.711914062 37.8134765625 l 1
 493 37.8134765625 l 1
 493 -199.474609375 l 1
 255.711914062 -199.474609375 l 1
509.94921875 -199.474609375 m 1
 509.94921875 37.8134765625 l 1
 747.237304688 37.8134765625 l 1
 747.237304688 -199.474609375 l 1
 509.94921875 -199.474609375 l 1
764.186523438 -199.474609375 m 1
 764.186523438 37.8134765625 l 1
 1001.47460938 37.8134765625 l 1
 1001.47460938 -199.474609375 l 1
 764.186523438 -199.474609375 l 1
1.474609375 54.7626953125 m 1
 1.474609375 292.05078125 l 1
 238.762695312 292.05078125 l 1
 238.762695312 54.7626953125 l 1
 1.474609375 54.7626953125 l 1
255.711914062 54.7626953125 m 1
 255.711914062 292.05078125 l 1
 493 292.05078125 l 1
 493 54.7626953125 l 1
 255.711914062 54.7626953125 l 1
509.94921875 54.7626953125 m 1
 509.94921875 292.05078125 l 1
 747.237304688 292.05078125 l 1
 747.237304688 54.7626953125 l 1
 509.94921875 54.7626953125 l 1
764.186523438 54.7626953125 m 1
 764.186523438 292.05078125 l 1
 1001.47460938 292.05078125 l 1
 1001.47460938 54.7626953125 l 1
 764.186523438 54.7626953125 l 1
255.711914062 309 m 1
 255.711914062 546.288085938 l 1
 493 546.288085938 l 1
 493 309 l 1
 255.711914062 309 l 1
509.94921875 309 m 1
 509.94921875 546.288085938 l 1
 747.237304688 546.288085938 l 1
 747.237304688 309 l 1
 509.94921875 309 l 1
764.186523438 309 m 1
 764.186523438 546.288085938 l 1
 1001.47460938 546.288085938 l 1
 1001.47460938 309 l 1
 764.186523438 309 l 1
1.474609375 563.237304688 m 1
 1.474609375 800.525390625 l 1
 238.762695312 800.525390625 l 1
 238.762695312 563.237304688 l 1
 1.474609375 563.237304688 l 1
255.711914062 563.237304688 m 1
 255.711914062 800.525390625 l 1
 493 800.525390625 l 1
 493 563.237304688 l 1
 255.711914062 563.237304688 l 1
509.94921875 563.237304688 m 1
 509.94921875 800.525390625 l 1
 747.237304688 800.525390625 l 1
 747.237304688 563.237304688 l 1
 509.94921875 563.237304688 l 1
764.186523438 563.237304688 m 1
 764.186523438 800.525390625 l 1
 1001.47460938 800.525390625 l 1
 1001.47460938 563.237304688 l 1
 764.186523438 563.237304688 l 1
EndSplineSet
EndChar

StartChar: f
Encoding: 102 102 37
Width: 1000
Flags: HW
LayerCount: 2
Fore
SplineSet
1.474609375 37.8134765625 m 1
 238.762695312 37.8134765625 l 1
 238.762695312 -199.474609375 l 1
 1.474609375 -199.474609375 l 1
 1.474609375 37.8134765625 l 1
255.711914062 -199.474609375 m 1
 255.711914062 37.8134765625 l 1
 493 37.8134765625 l 1
 493 -199.474609375 l 1
 255.711914062 -199.474609375 l 1
509.94921875 -199.474609375 m 1
 509.94921875 37.8134765625 l 1
 747.237304688 37.8134765625 l 1
 747.237304688 -199.474609375 l 1
 509.94921875 -199.474609375 l 1
764.186523438 -199.474609375 m 1
 764.186523438 37.8134765625 l 1
 1001.47460938 37.8134765625 l 1
 1001.47460938 -199.474609375 l 1
 764.186523438 -199.474609375 l 1
1.474609375 54.7626953125 m 1
 1.474609375 292.05078125 l 1
 238.762695312 292.05078125 l 1
 238.762695312 54.7626953125 l 1
 1.474609375 54.7626953125 l 1
255.711914062 54.7626953125 m 1
 255.711914062 292.05078125 l 1
 493 292.05078125 l 1
 493 54.7626953125 l 1
 255.711914062 54.7626953125 l 1
509.94921875 54.7626953125 m 1
 509.94921875 292.05078125 l 1
 747.237304688 292.05078125 l 1
 747.237304688 54.7626953125 l 1
 509.94921875 54.7626953125 l 1
764.186523438 54.7626953125 m 1
 764.186523438 292.05078125 l 1
 1001.47460938 292.05078125 l 1
 1001.47460938 54.7626953125 l 1
 764.186523438 54.7626953125 l 1
1.474609375 309 m 1
 1.474609375 546.288085938 l 1
 238.762695312 546.288085938 l 1
 238.762695312 309 l 1
 1.474609375 309 l 1
509.94921875 309 m 1
 509.94921875 546.288085938 l 1
 747.237304688 546.288085938 l 1
 747.237304688 309 l 1
 509.94921875 309 l 1
764.186523438 309 m 1
 764.186523438 546.288085938 l 1
 1001.47460938 546.288085938 l 1
 1001.47460938 309 l 1
 764.186523438 309 l 1
1.474609375 563.237304688 m 1
 1.474609375 800.525390625 l 1
 238.762695312 800.525390625 l 1
 238.762695312 563.237304688 l 1
 1.474609375 563.237304688 l 1
255.711914062 563.237304688 m 1
 255.711914062 800.525390625 l 1
 493 800.525390625 l 1
 493 563.237304688 l 1
 255.711914062 563.237304688 l 1
509.94921875 563.237304688 m 1
 509.94921875 800.525390625 l 1
 747.237304688 800.525390625 l 1
 747.237304688 563.237304688 l 1
 509.94921875 563.237304688 l 1
764.186523438 563.237304688 m 1
 764.186523438 800.525390625 l 1
 1001.47460938 800.525390625 l 1
 1001.47460938 563.237304688 l 1
 764.186523438 563.237304688 l 1
EndSplineSet
EndChar

StartChar: g
Encoding: 103 103 38
Width: 1000
Flags: HW
LayerCount: 2
Fore
SplineSet
1.474609375 37.8134765625 m 1
 238.762695312 37.8134765625 l 1
 238.762695312 -199.474609375 l 1
 1.474609375 -199.474609375 l 1
 1.474609375 37.8134765625 l 1
255.711914062 -199.474609375 m 1
 255.711914062 37.8134765625 l 1
 493 37.8134765625 l 1
 493 -199.474609375 l 1
 255.711914062 -199.474609375 l 1
509.94921875 -199.474609375 m 1
 509.94921875 37.8134765625 l 1
 747.237304688 37.8134765625 l 1
 747.237304688 -199.474609375 l 1
 509.94921875 -199.474609375 l 1
764.186523438 -199.474609375 m 1
 764.186523438 37.8134765625 l 1
 1001.47460938 37.8134765625 l 1
 1001.47460938 -199.474609375 l 1
 764.186523438 -199.474609375 l 1
1.474609375 54.7626953125 m 1
 1.474609375 292.05078125 l 1
 238.762695312 292.05078125 l 1
 238.762695312 54.7626953125 l 1
 1.474609375 54.7626953125 l 1
255.711914062 54.7626953125 m 1
 255.711914062 292.05078125 l 1
 493 292.05078125 l 1
 493 54.7626953125 l 1
 255.711914062 54.7626953125 l 1
509.94921875 54.7626953125 m 1
 509.94921875 292.05078125 l 1
 747.237304688 292.05078125 l 1
 747.237304688 54.7626953125 l 1
 509.94921875 54.7626953125 l 1
764.186523438 54.7626953125 m 1
 764.186523438 292.05078125 l 1
 1001.47460938 292.05078125 l 1
 1001.47460938 54.7626953125 l 1
 764.186523438 54.7626953125 l 1
1.474609375 309 m 1
 1.474609375 546.288085938 l 1
 238.762695312 546.288085938 l 1
 238.762695312 309 l 1
 1.474609375 309 l 1
255.711914062 309 m 1
 255.711914062 546.288085938 l 1
 493 546.288085938 l 1
 493 309 l 1
 255.711914062 309 l 1
747.237304688 309 m 1
 509.94921875 309 l 1025
764.186523438 309 m 1
 764.186523438 546.288085938 l 1
 1001.47460938 546.288085938 l 1
 1001.47460938 309 l 1
 764.186523438 309 l 1
1.474609375 563.237304688 m 1
 1.474609375 800.525390625 l 1
 238.762695312 800.525390625 l 1
 238.762695312 563.237304688 l 1
 1.474609375 563.237304688 l 1
255.711914062 563.237304688 m 1
 255.711914062 800.525390625 l 1
 493 800.525390625 l 1
 493 563.237304688 l 1
 255.711914062 563.237304688 l 1
509.94921875 563.237304688 m 1
 509.94921875 800.525390625 l 1
 747.237304688 800.525390625 l 1
 747.237304688 563.237304688 l 1
 509.94921875 563.237304688 l 1
764.186523438 563.237304688 m 1
 764.186523438 800.525390625 l 1
 1001.47460938 800.525390625 l 1
 1001.47460938 563.237304688 l 1
 764.186523438 563.237304688 l 1
EndSplineSet
EndChar

StartChar: h
Encoding: 104 104 39
Width: 1000
Flags: HW
LayerCount: 2
Fore
SplineSet
1.474609375 37.8134765625 m 1
 238.762695312 37.8134765625 l 1
 238.762695312 -199.474609375 l 1
 1.474609375 -199.474609375 l 1
 1.474609375 37.8134765625 l 1
255.711914062 -199.474609375 m 1
 255.711914062 37.8134765625 l 1
 493 37.8134765625 l 1
 493 -199.474609375 l 1
 255.711914062 -199.474609375 l 1
509.94921875 -199.474609375 m 1
 509.94921875 37.8134765625 l 1
 747.237304688 37.8134765625 l 1
 747.237304688 -199.474609375 l 1
 509.94921875 -199.474609375 l 1
764.186523438 -199.474609375 m 1
 764.186523438 37.8134765625 l 1
 1001.47460938 37.8134765625 l 1
 1001.47460938 -199.474609375 l 1
 764.186523438 -199.474609375 l 1
1.474609375 54.7626953125 m 1
 1.474609375 292.05078125 l 1
 238.762695312 292.05078125 l 1
 238.762695312 54.7626953125 l 1
 1.474609375 54.7626953125 l 1
255.711914062 54.7626953125 m 1
 255.711914062 292.05078125 l 1
 493 292.05078125 l 1
 493 54.7626953125 l 1
 255.711914062 54.7626953125 l 1
509.94921875 54.7626953125 m 1
 509.94921875 292.05078125 l 1
 747.237304688 292.05078125 l 1
 747.237304688 54.7626953125 l 1
 509.94921875 54.7626953125 l 1
764.186523438 54.7626953125 m 1
 764.186523438 292.05078125 l 1
 1001.47460938 292.05078125 l 1
 1001.47460938 54.7626953125 l 1
 764.186523438 54.7626953125 l 1
1.474609375 309 m 1
 1.474609375 546.288085938 l 1
 238.762695312 546.288085938 l 1
 238.762695312 309 l 1
 1.474609375 309 l 1
255.711914062 309 m 1
 255.711914062 546.288085938 l 1
 493 546.288085938 l 1
 493 309 l 1
 255.711914062 309 l 1
509.94921875 309 m 1
 509.94921875 546.288085938 l 1
 747.237304688 546.288085938 l 1
 747.237304688 309 l 1
 509.94921875 309 l 1
1.474609375 563.237304688 m 1
 1.474609375 800.525390625 l 1
 238.762695312 800.525390625 l 1
 238.762695312 563.237304688 l 1
 1.474609375 563.237304688 l 1
255.711914062 563.237304688 m 1
 255.711914062 800.525390625 l 1
 493 800.525390625 l 1
 493 563.237304688 l 1
 255.711914062 563.237304688 l 1
509.94921875 563.237304688 m 1
 509.94921875 800.525390625 l 1
 747.237304688 800.525390625 l 1
 747.237304688 563.237304688 l 1
 509.94921875 563.237304688 l 1
764.186523438 563.237304688 m 1
 764.186523438 800.525390625 l 1
 1001.47460938 800.525390625 l 1
 1001.47460938 563.237304688 l 1
 764.186523438 563.237304688 l 1
EndSplineSet
EndChar

StartChar: i
Encoding: 105 105 40
Width: 1000
Flags: HW
LayerCount: 2
Fore
SplineSet
1.474609375 37.8134765625 m 1
 238.762695312 37.8134765625 l 1
 238.762695312 -199.474609375 l 1
 1.474609375 -199.474609375 l 1
 1.474609375 37.8134765625 l 1
255.711914062 -199.474609375 m 1
 255.711914062 37.8134765625 l 1
 493 37.8134765625 l 1
 493 -199.474609375 l 1
 255.711914062 -199.474609375 l 1
509.94921875 -199.474609375 m 1
 509.94921875 37.8134765625 l 1
 747.237304688 37.8134765625 l 1
 747.237304688 -199.474609375 l 1
 509.94921875 -199.474609375 l 1
764.186523438 -199.474609375 m 1
 764.186523438 37.8134765625 l 1
 1001.47460938 37.8134765625 l 1
 1001.47460938 -199.474609375 l 1
 764.186523438 -199.474609375 l 1
255.711914062 54.7626953125 m 1
 255.711914062 292.05078125 l 1
 493 292.05078125 l 1
 493 54.7626953125 l 1
 255.711914062 54.7626953125 l 1
509.94921875 54.7626953125 m 1
 509.94921875 292.05078125 l 1
 747.237304688 292.05078125 l 1
 747.237304688 54.7626953125 l 1
 509.94921875 54.7626953125 l 1
764.186523438 54.7626953125 m 1
 764.186523438 292.05078125 l 1
 1001.47460938 292.05078125 l 1
 1001.47460938 54.7626953125 l 1
 764.186523438 54.7626953125 l 1
1.474609375 309 m 1
 1.474609375 546.288085938 l 1
 238.762695312 546.288085938 l 1
 238.762695312 309 l 1
 1.474609375 309 l 1
255.711914062 309 m 1
 255.711914062 546.288085938 l 1
 493 546.288085938 l 1
 493 309 l 1
 255.711914062 309 l 1
509.94921875 309 m 1
 509.94921875 546.288085938 l 1
 747.237304688 546.288085938 l 1
 747.237304688 309 l 1
 509.94921875 309 l 1
764.186523438 309 m 1
 764.186523438 546.288085938 l 1
 1001.47460938 546.288085938 l 1
 1001.47460938 309 l 1
 764.186523438 309 l 1
1.474609375 563.237304688 m 1
 1.474609375 800.525390625 l 1
 238.762695312 800.525390625 l 1
 238.762695312 563.237304688 l 1
 1.474609375 563.237304688 l 1
255.711914062 563.237304688 m 1
 255.711914062 800.525390625 l 1
 493 800.525390625 l 1
 493 563.237304688 l 1
 255.711914062 563.237304688 l 1
509.94921875 563.237304688 m 1
 509.94921875 800.525390625 l 1
 747.237304688 800.525390625 l 1
 747.237304688 563.237304688 l 1
 509.94921875 563.237304688 l 1
764.186523438 563.237304688 m 1
 764.186523438 800.525390625 l 1
 1001.47460938 800.525390625 l 1
 1001.47460938 563.237304688 l 1
 764.186523438 563.237304688 l 1
EndSplineSet
EndChar

StartChar: j
Encoding: 106 106 41
Width: 1000
Flags: HW
LayerCount: 2
Fore
SplineSet
1.474609375 37.8134765625 m 1
 238.762695312 37.8134765625 l 1
 238.762695312 -199.474609375 l 1
 1.474609375 -199.474609375 l 1
 1.474609375 37.8134765625 l 1
255.711914062 -199.474609375 m 1
 255.711914062 37.8134765625 l 1
 493 37.8134765625 l 1
 493 -199.474609375 l 1
 255.711914062 -199.474609375 l 1
509.94921875 -199.474609375 m 1
 509.94921875 37.8134765625 l 1
 747.237304688 37.8134765625 l 1
 747.237304688 -199.474609375 l 1
 509.94921875 -199.474609375 l 1
764.186523438 -199.474609375 m 1
 764.186523438 37.8134765625 l 1
 1001.47460938 37.8134765625 l 1
 1001.47460938 -199.474609375 l 1
 764.186523438 -199.474609375 l 1
1.474609375 54.7626953125 m 1
 1.474609375 292.05078125 l 1
 238.762695312 292.05078125 l 1
 238.762695312 54.7626953125 l 1
 1.474609375 54.7626953125 l 1
509.94921875 54.7626953125 m 1
 509.94921875 292.05078125 l 1
 747.237304688 292.05078125 l 1
 747.237304688 54.7626953125 l 1
 509.94921875 54.7626953125 l 1
764.186523438 54.7626953125 m 1
 764.186523438 292.05078125 l 1
 1001.47460938 292.05078125 l 1
 1001.47460938 54.7626953125 l 1
 764.186523438 54.7626953125 l 1
1.474609375 309 m 1
 1.474609375 546.288085938 l 1
 238.762695312 546.288085938 l 1
 238.762695312 309 l 1
 1.474609375 309 l 1
255.711914062 309 m 1
 255.711914062 546.288085938 l 1
 493 546.288085938 l 1
 493 309 l 1
 255.711914062 309 l 1
509.94921875 309 m 1
 509.94921875 546.288085938 l 1
 747.237304688 546.288085938 l 1
 747.237304688 309 l 1
 509.94921875 309 l 1
764.186523438 309 m 1
 764.186523438 546.288085938 l 1
 1001.47460938 546.288085938 l 1
 1001.47460938 309 l 1
 764.186523438 309 l 1
1.474609375 563.237304688 m 1
 1.474609375 800.525390625 l 1
 238.762695312 800.525390625 l 1
 238.762695312 563.237304688 l 1
 1.474609375 563.237304688 l 1
255.711914062 563.237304688 m 1
 255.711914062 800.525390625 l 1
 493 800.525390625 l 1
 493 563.237304688 l 1
 255.711914062 563.237304688 l 1
509.94921875 563.237304688 m 1
 509.94921875 800.525390625 l 1
 747.237304688 800.525390625 l 1
 747.237304688 563.237304688 l 1
 509.94921875 563.237304688 l 1
764.186523438 563.237304688 m 1
 764.186523438 800.525390625 l 1
 1001.47460938 800.525390625 l 1
 1001.47460938 563.237304688 l 1
 764.186523438 563.237304688 l 1
EndSplineSet
EndChar

StartChar: k
Encoding: 107 107 42
Width: 1000
Flags: HW
LayerCount: 2
Fore
SplineSet
1.474609375 37.8134765625 m 1
 238.762695312 37.8134765625 l 1
 238.762695312 -199.474609375 l 1
 1.474609375 -199.474609375 l 1
 1.474609375 37.8134765625 l 1
255.711914062 -199.474609375 m 1
 255.711914062 37.8134765625 l 1
 493 37.8134765625 l 1
 493 -199.474609375 l 1
 255.711914062 -199.474609375 l 1
509.94921875 -199.474609375 m 1
 509.94921875 37.8134765625 l 1
 747.237304688 37.8134765625 l 1
 747.237304688 -199.474609375 l 1
 509.94921875 -199.474609375 l 1
764.186523438 -199.474609375 m 1
 764.186523438 37.8134765625 l 1
 1001.47460938 37.8134765625 l 1
 1001.47460938 -199.474609375 l 1
 764.186523438 -199.474609375 l 1
1.474609375 54.7626953125 m 1
 1.474609375 292.05078125 l 1
 238.762695312 292.05078125 l 1
 238.762695312 54.7626953125 l 1
 1.474609375 54.7626953125 l 1
255.711914062 54.7626953125 m 1
 255.711914062 292.05078125 l 1
 493 292.05078125 l 1
 493 54.7626953125 l 1
 255.711914062 54.7626953125 l 1
747.237304688 54.7626953125 m 1
 509.94921875 54.7626953125 l 1025
764.186523438 54.7626953125 m 1
 764.186523438 292.05078125 l 1
 1001.47460938 292.05078125 l 1
 1001.47460938 54.7626953125 l 1
 764.186523438 54.7626953125 l 1
1.474609375 309 m 1
 1.474609375 546.288085938 l 1
 238.762695312 546.288085938 l 1
 238.762695312 309 l 1
 1.474609375 309 l 1
255.711914062 309 m 1
 255.711914062 546.288085938 l 1
 493 546.288085938 l 1
 493 309 l 1
 255.711914062 309 l 1
509.94921875 309 m 1
 509.94921875 546.288085938 l 1
 747.237304688 546.288085938 l 1
 747.237304688 309 l 1
 509.94921875 309 l 1
764.186523438 309 m 1
 764.186523438 546.288085938 l 1
 1001.47460938 546.288085938 l 1
 1001.47460938 309 l 1
 764.186523438 309 l 1
1.474609375 563.237304688 m 1
 1.474609375 800.525390625 l 1
 238.762695312 800.525390625 l 1
 238.762695312 563.237304688 l 1
 1.474609375 563.237304688 l 1
255.711914062 563.237304688 m 1
 255.711914062 800.525390625 l 1
 493 800.525390625 l 1
 493 563.237304688 l 1
 255.711914062 563.237304688 l 1
509.94921875 563.237304688 m 1
 509.94921875 800.525390625 l 1
 747.237304688 800.525390625 l 1
 747.237304688 563.237304688 l 1
 509.94921875 563.237304688 l 1
764.186523438 563.237304688 m 1
 764.186523438 800.525390625 l 1
 1001.47460938 800.525390625 l 1
 1001.47460938 563.237304688 l 1
 764.186523438 563.237304688 l 1
EndSplineSet
EndChar

StartChar: l
Encoding: 108 108 43
Width: 1000
Flags: HW
LayerCount: 2
Fore
SplineSet
1.474609375 37.8134765625 m 1
 238.762695312 37.8134765625 l 1
 238.762695312 -199.474609375 l 1
 1.474609375 -199.474609375 l 1
 1.474609375 37.8134765625 l 1
255.711914062 -199.474609375 m 1
 255.711914062 37.8134765625 l 1
 493 37.8134765625 l 1
 493 -199.474609375 l 1
 255.711914062 -199.474609375 l 1
509.94921875 -199.474609375 m 1
 509.94921875 37.8134765625 l 1
 747.237304688 37.8134765625 l 1
 747.237304688 -199.474609375 l 1
 509.94921875 -199.474609375 l 1
764.186523438 -199.474609375 m 1
 764.186523438 37.8134765625 l 1
 1001.47460938 37.8134765625 l 1
 1001.47460938 -199.474609375 l 1
 764.186523438 -199.474609375 l 1
1.474609375 54.7626953125 m 1
 1.474609375 292.05078125 l 1
 238.762695312 292.05078125 l 1
 238.762695312 54.7626953125 l 1
 1.474609375 54.7626953125 l 1
255.711914062 54.7626953125 m 1
 255.711914062 292.05078125 l 1
 493 292.05078125 l 1
 493 54.7626953125 l 1
 255.711914062 54.7626953125 l 1
509.94921875 54.7626953125 m 1
 509.94921875 292.05078125 l 1
 747.237304688 292.05078125 l 1
 747.237304688 54.7626953125 l 1
 509.94921875 54.7626953125 l 1
1.474609375 309 m 1
 1.474609375 546.288085938 l 1
 238.762695312 546.288085938 l 1
 238.762695312 309 l 1
 1.474609375 309 l 1
255.711914062 309 m 1
 255.711914062 546.288085938 l 1
 493 546.288085938 l 1
 493 309 l 1
 255.711914062 309 l 1
509.94921875 309 m 1
 509.94921875 546.288085938 l 1
 747.237304688 546.288085938 l 1
 747.237304688 309 l 1
 509.94921875 309 l 1
764.186523438 309 m 1
 764.186523438 546.288085938 l 1
 1001.47460938 546.288085938 l 1
 1001.47460938 309 l 1
 764.186523438 309 l 1
1.474609375 563.237304688 m 1
 1.474609375 800.525390625 l 1
 238.762695312 800.525390625 l 1
 238.762695312 563.237304688 l 1
 1.474609375 563.237304688 l 1
255.711914062 563.237304688 m 1
 255.711914062 800.525390625 l 1
 493 800.525390625 l 1
 493 563.237304688 l 1
 255.711914062 563.237304688 l 1
509.94921875 563.237304688 m 1
 509.94921875 800.525390625 l 1
 747.237304688 800.525390625 l 1
 747.237304688 563.237304688 l 1
 509.94921875 563.237304688 l 1
764.186523438 563.237304688 m 1
 764.186523438 800.525390625 l 1
 1001.47460938 800.525390625 l 1
 1001.47460938 563.237304688 l 1
 764.186523438 563.237304688 l 1
EndSplineSet
EndChar

StartChar: m
Encoding: 109 109 44
Width: 1000
Flags: HW
LayerCount: 2
Fore
SplineSet
255.711914062 -199.474609375 m 1
 255.711914062 37.8134765625 l 1
 493 37.8134765625 l 1
 493 -199.474609375 l 1
 255.711914062 -199.474609375 l 1
509.94921875 -199.474609375 m 1
 509.94921875 37.8134765625 l 1
 747.237304688 37.8134765625 l 1
 747.237304688 -199.474609375 l 1
 509.94921875 -199.474609375 l 1
764.186523438 -199.474609375 m 1
 764.186523438 37.8134765625 l 1
 1001.47460938 37.8134765625 l 1
 1001.47460938 -199.474609375 l 1
 764.186523438 -199.474609375 l 1
1.474609375 54.7626953125 m 1
 1.474609375 292.05078125 l 1
 238.762695312 292.05078125 l 1
 238.762695312 54.7626953125 l 1
 1.474609375 54.7626953125 l 1
255.711914062 54.7626953125 m 1
 255.711914062 292.05078125 l 1
 493 292.05078125 l 1
 493 54.7626953125 l 1
 255.711914062 54.7626953125 l 1
509.94921875 54.7626953125 m 1
 509.94921875 292.05078125 l 1
 747.237304688 292.05078125 l 1
 747.237304688 54.7626953125 l 1
 509.94921875 54.7626953125 l 1
764.186523438 54.7626953125 m 1
 764.186523438 292.05078125 l 1
 1001.47460938 292.05078125 l 1
 1001.47460938 54.7626953125 l 1
 764.186523438 54.7626953125 l 1
1.474609375 309 m 1
 1.474609375 546.288085938 l 1
 238.762695312 546.288085938 l 1
 238.762695312 309 l 1
 1.474609375 309 l 1
255.711914062 309 m 1
 255.711914062 546.288085938 l 1
 493 546.288085938 l 1
 493 309 l 1
 255.711914062 309 l 1
509.94921875 309 m 1
 509.94921875 546.288085938 l 1
 747.237304688 546.288085938 l 1
 747.237304688 309 l 1
 509.94921875 309 l 1
764.186523438 309 m 1
 764.186523438 546.288085938 l 1
 1001.47460938 546.288085938 l 1
 1001.47460938 309 l 1
 764.186523438 309 l 1
1.474609375 563.237304688 m 1
 1.474609375 800.525390625 l 1
 238.762695312 800.525390625 l 1
 238.762695312 563.237304688 l 1
 1.474609375 563.237304688 l 1
255.711914062 563.237304688 m 1
 255.711914062 800.525390625 l 1
 493 800.525390625 l 1
 493 563.237304688 l 1
 255.711914062 563.237304688 l 1
509.94921875 563.237304688 m 1
 509.94921875 800.525390625 l 1
 747.237304688 800.525390625 l 1
 747.237304688 563.237304688 l 1
 509.94921875 563.237304688 l 1
764.186523438 563.237304688 m 1
 764.186523438 800.525390625 l 1
 1001.47460938 800.525390625 l 1
 1001.47460938 563.237304688 l 1
 764.186523438 563.237304688 l 1
EndSplineSet
EndChar

StartChar: n
Encoding: 110 110 45
Width: 1000
Flags: HW
LayerCount: 2
Fore
SplineSet
1.474609375 37.8134765625 m 1
 238.762695312 37.8134765625 l 1
 238.762695312 -199.474609375 l 1
 1.474609375 -199.474609375 l 1
 1.474609375 37.8134765625 l 1
509.94921875 -199.474609375 m 1
 509.94921875 37.8134765625 l 1
 747.237304688 37.8134765625 l 1
 747.237304688 -199.474609375 l 1
 509.94921875 -199.474609375 l 1
764.186523438 -199.474609375 m 1
 764.186523438 37.8134765625 l 1
 1001.47460938 37.8134765625 l 1
 1001.47460938 -199.474609375 l 1
 764.186523438 -199.474609375 l 1
1.474609375 54.7626953125 m 1
 1.474609375 292.05078125 l 1
 238.762695312 292.05078125 l 1
 238.762695312 54.7626953125 l 1
 1.474609375 54.7626953125 l 1
255.711914062 54.7626953125 m 1
 255.711914062 292.05078125 l 1
 493 292.05078125 l 1
 493 54.7626953125 l 1
 255.711914062 54.7626953125 l 1
509.94921875 54.7626953125 m 1
 509.94921875 292.05078125 l 1
 747.237304688 292.05078125 l 1
 747.237304688 54.7626953125 l 1
 509.94921875 54.7626953125 l 1
764.186523438 54.7626953125 m 1
 764.186523438 292.05078125 l 1
 1001.47460938 292.05078125 l 1
 1001.47460938 54.7626953125 l 1
 764.186523438 54.7626953125 l 1
1.474609375 309 m 1
 1.474609375 546.288085938 l 1
 238.762695312 546.288085938 l 1
 238.762695312 309 l 1
 1.474609375 309 l 1
255.711914062 309 m 1
 255.711914062 546.288085938 l 1
 493 546.288085938 l 1
 493 309 l 1
 255.711914062 309 l 1
509.94921875 309 m 1
 509.94921875 546.288085938 l 1
 747.237304688 546.288085938 l 1
 747.237304688 309 l 1
 509.94921875 309 l 1
764.186523438 309 m 1
 764.186523438 546.288085938 l 1
 1001.47460938 546.288085938 l 1
 1001.47460938 309 l 1
 764.186523438 309 l 1
1.474609375 563.237304688 m 1
 1.474609375 800.525390625 l 1
 238.762695312 800.525390625 l 1
 238.762695312 563.237304688 l 1
 1.474609375 563.237304688 l 1
255.711914062 563.237304688 m 1
 255.711914062 800.525390625 l 1
 493 800.525390625 l 1
 493 563.237304688 l 1
 255.711914062 563.237304688 l 1
509.94921875 563.237304688 m 1
 509.94921875 800.525390625 l 1
 747.237304688 800.525390625 l 1
 747.237304688 563.237304688 l 1
 509.94921875 563.237304688 l 1
764.186523438 563.237304688 m 1
 764.186523438 800.525390625 l 1
 1001.47460938 800.525390625 l 1
 1001.47460938 563.237304688 l 1
 764.186523438 563.237304688 l 1
EndSplineSet
EndChar

StartChar: o
Encoding: 111 111 46
Width: 1000
Flags: HW
LayerCount: 2
Fore
SplineSet
1.474609375 37.8134765625 m 1
 238.762695312 37.8134765625 l 1
 238.762695312 -199.474609375 l 1
 1.474609375 -199.474609375 l 1
 1.474609375 37.8134765625 l 1
255.711914062 -199.474609375 m 1
 255.711914062 37.8134765625 l 1
 493 37.8134765625 l 1
 493 -199.474609375 l 1
 255.711914062 -199.474609375 l 1
764.186523438 -199.474609375 m 1
 764.186523438 37.8134765625 l 1
 1001.47460938 37.8134765625 l 1
 1001.47460938 -199.474609375 l 1
 764.186523438 -199.474609375 l 1
1.474609375 54.7626953125 m 1
 1.474609375 292.05078125 l 1
 238.762695312 292.05078125 l 1
 238.762695312 54.7626953125 l 1
 1.474609375 54.7626953125 l 1
255.711914062 54.7626953125 m 1
 255.711914062 292.05078125 l 1
 493 292.05078125 l 1
 493 54.7626953125 l 1
 255.711914062 54.7626953125 l 1
509.94921875 54.7626953125 m 1
 509.94921875 292.05078125 l 1
 747.237304688 292.05078125 l 1
 747.237304688 54.7626953125 l 1
 509.94921875 54.7626953125 l 1
764.186523438 54.7626953125 m 1
 764.186523438 292.05078125 l 1
 1001.47460938 292.05078125 l 1
 1001.47460938 54.7626953125 l 1
 764.186523438 54.7626953125 l 1
1.474609375 309 m 1
 1.474609375 546.288085938 l 1
 238.762695312 546.288085938 l 1
 238.762695312 309 l 1
 1.474609375 309 l 1
255.711914062 309 m 1
 255.711914062 546.288085938 l 1
 493 546.288085938 l 1
 493 309 l 1
 255.711914062 309 l 1
509.94921875 309 m 1
 509.94921875 546.288085938 l 1
 747.237304688 546.288085938 l 1
 747.237304688 309 l 1
 509.94921875 309 l 1
764.186523438 309 m 1
 764.186523438 546.288085938 l 1
 1001.47460938 546.288085938 l 1
 1001.47460938 309 l 1
 764.186523438 309 l 1
1.474609375 563.237304688 m 1
 1.474609375 800.525390625 l 1
 238.762695312 800.525390625 l 1
 238.762695312 563.237304688 l 1
 1.474609375 563.237304688 l 1
255.711914062 563.237304688 m 1
 255.711914062 800.525390625 l 1
 493 800.525390625 l 1
 493 563.237304688 l 1
 255.711914062 563.237304688 l 1
509.94921875 563.237304688 m 1
 509.94921875 800.525390625 l 1
 747.237304688 800.525390625 l 1
 747.237304688 563.237304688 l 1
 509.94921875 563.237304688 l 1
764.186523438 563.237304688 m 1
 764.186523438 800.525390625 l 1
 1001.47460938 800.525390625 l 1
 1001.47460938 563.237304688 l 1
 764.186523438 563.237304688 l 1
EndSplineSet
EndChar

StartChar: p
Encoding: 112 112 47
Width: 1000
Flags: HW
LayerCount: 2
Fore
SplineSet
1.474609375 37.8134765625 m 1
 238.762695312 37.8134765625 l 1
 238.762695312 -199.474609375 l 1
 1.474609375 -199.474609375 l 1
 1.474609375 37.8134765625 l 1
255.711914062 -199.474609375 m 5
 255.711914062 37.8134765625 l 5
 493 37.8134765625 l 5
 493 -199.474609375 l 5
 255.711914062 -199.474609375 l 5
509.94921875 -199.474609375 m 1
 509.94921875 37.8134765625 l 1
 747.237304688 37.8134765625 l 1
 747.237304688 -199.474609375 l 1
 509.94921875 -199.474609375 l 1
1.474609375 54.7626953125 m 1
 1.474609375 292.05078125 l 1
 238.762695312 292.05078125 l 1
 238.762695312 54.7626953125 l 1
 1.474609375 54.7626953125 l 1
255.711914062 54.7626953125 m 1
 255.711914062 292.05078125 l 1
 493 292.05078125 l 1
 493 54.7626953125 l 1
 255.711914062 54.7626953125 l 1
509.94921875 54.7626953125 m 1
 509.94921875 292.05078125 l 1
 747.237304688 292.05078125 l 1
 747.237304688 54.7626953125 l 1
 509.94921875 54.7626953125 l 1
764.186523438 54.7626953125 m 1
 764.186523438 292.05078125 l 1
 1001.47460938 292.05078125 l 1
 1001.47460938 54.7626953125 l 1
 764.186523438 54.7626953125 l 1
1.474609375 309 m 1
 1.474609375 546.288085938 l 1
 238.762695312 546.288085938 l 1
 238.762695312 309 l 1
 1.474609375 309 l 1
255.711914062 309 m 1
 255.711914062 546.288085938 l 1
 493 546.288085938 l 1
 493 309 l 1
 255.711914062 309 l 1
509.94921875 309 m 1
 509.94921875 546.288085938 l 1
 747.237304688 546.288085938 l 1
 747.237304688 309 l 1
 509.94921875 309 l 1
764.186523438 309 m 1
 764.186523438 546.288085938 l 1
 1001.47460938 546.288085938 l 1
 1001.47460938 309 l 1
 764.186523438 309 l 1
1.474609375 563.237304688 m 1
 1.474609375 800.525390625 l 1
 238.762695312 800.525390625 l 1
 238.762695312 563.237304688 l 1
 1.474609375 563.237304688 l 1
255.711914062 563.237304688 m 1
 255.711914062 800.525390625 l 1
 493 800.525390625 l 1
 493 563.237304688 l 1
 255.711914062 563.237304688 l 1
509.94921875 563.237304688 m 1
 509.94921875 800.525390625 l 1
 747.237304688 800.525390625 l 1
 747.237304688 563.237304688 l 1
 509.94921875 563.237304688 l 1
764.186523438 563.237304688 m 1
 764.186523438 800.525390625 l 1
 1001.47460938 800.525390625 l 1
 1001.47460938 563.237304688 l 1
 764.186523438 563.237304688 l 1
EndSplineSet
EndChar

StartChar: q
Encoding: 113 113 48
Width: 1000
Flags: HW
LayerCount: 2
Fore
SplineSet
255.711914062 -199.474609375 m 1
 255.711914062 37.8134765625 l 1
 493 37.8134765625 l 1
 493 -199.474609375 l 1
 255.711914062 -199.474609375 l 1
509.94921875 -199.474609375 m 1
 509.94921875 37.8134765625 l 1
 747.237304688 37.8134765625 l 1
 747.237304688 -199.474609375 l 1
 509.94921875 -199.474609375 l 1
764.186523438 -199.474609375 m 1
 764.186523438 37.8134765625 l 1
 1001.47460938 37.8134765625 l 1
 1001.47460938 -199.474609375 l 1
 764.186523438 -199.474609375 l 1
255.711914062 54.7626953125 m 1
 255.711914062 292.05078125 l 1
 493 292.05078125 l 1
 493 54.7626953125 l 1
 255.711914062 54.7626953125 l 1
509.94921875 54.7626953125 m 1
 509.94921875 292.05078125 l 1
 747.237304688 292.05078125 l 1
 747.237304688 54.7626953125 l 1
 509.94921875 54.7626953125 l 1
764.186523438 54.7626953125 m 1
 764.186523438 292.05078125 l 1
 1001.47460938 292.05078125 l 1
 1001.47460938 54.7626953125 l 1
 764.186523438 54.7626953125 l 1
255.711914062 309 m 1
 255.711914062 546.288085938 l 1
 493 546.288085938 l 1
 493 309 l 1
 255.711914062 309 l 1
509.94921875 309 m 1
 509.94921875 546.288085938 l 1
 747.237304688 546.288085938 l 1
 747.237304688 309 l 1
 509.94921875 309 l 1
764.186523438 309 m 1
 764.186523438 546.288085938 l 1
 1001.47460938 546.288085938 l 1
 1001.47460938 309 l 1
 764.186523438 309 l 1
255.711914062 563.237304688 m 1
 255.711914062 800.525390625 l 1
 493 800.525390625 l 1
 493 563.237304688 l 1
 255.711914062 563.237304688 l 1
509.94921875 563.237304688 m 1
 509.94921875 800.525390625 l 1
 747.237304688 800.525390625 l 1
 747.237304688 563.237304688 l 1
 509.94921875 563.237304688 l 1
764.186523438 563.237304688 m 1
 764.186523438 800.525390625 l 1
 1001.47460938 800.525390625 l 1
 1001.47460938 563.237304688 l 1
 764.186523438 563.237304688 l 1
EndSplineSet
EndChar

StartChar: r
Encoding: 114 114 49
Width: 1000
Flags: HW
LayerCount: 2
Fore
SplineSet
1.474609375 37.8134765625 m 1
 238.762695312 37.8134765625 l 1
 238.762695312 -199.474609375 l 1
 1.474609375 -199.474609375 l 1
 1.474609375 37.8134765625 l 1
509.94921875 -199.474609375 m 1
 509.94921875 37.8134765625 l 1
 747.237304688 37.8134765625 l 1
 747.237304688 -199.474609375 l 1
 509.94921875 -199.474609375 l 1
764.186523438 -199.474609375 m 1
 764.186523438 37.8134765625 l 1
 1001.47460938 37.8134765625 l 1
 1001.47460938 -199.474609375 l 1
 764.186523438 -199.474609375 l 1
1.474609375 54.7626953125 m 1
 1.474609375 292.05078125 l 1
 238.762695312 292.05078125 l 1
 238.762695312 54.7626953125 l 1
 1.474609375 54.7626953125 l 1
509.94921875 54.7626953125 m 1
 509.94921875 292.05078125 l 1
 747.237304688 292.05078125 l 1
 747.237304688 54.7626953125 l 1
 509.94921875 54.7626953125 l 1
764.186523438 54.7626953125 m 1
 764.186523438 292.05078125 l 1
 1001.47460938 292.05078125 l 1
 1001.47460938 54.7626953125 l 1
 764.186523438 54.7626953125 l 1
1.474609375 309 m 1
 1.474609375 546.288085938 l 1
 238.762695312 546.288085938 l 1
 238.762695312 309 l 1
 1.474609375 309 l 1
509.94921875 309 m 1
 509.94921875 546.288085938 l 1
 747.237304688 546.288085938 l 1
 747.237304688 309 l 1
 509.94921875 309 l 1
764.186523438 309 m 1
 764.186523438 546.288085938 l 1
 1001.47460938 546.288085938 l 1
 1001.47460938 309 l 1
 764.186523438 309 l 1
1.474609375 563.237304688 m 1
 1.474609375 800.525390625 l 1
 238.762695312 800.525390625 l 1
 238.762695312 563.237304688 l 1
 1.474609375 563.237304688 l 1
509.94921875 563.237304688 m 1
 509.94921875 800.525390625 l 1
 747.237304688 800.525390625 l 1
 747.237304688 563.237304688 l 1
 509.94921875 563.237304688 l 1
764.186523438 563.237304688 m 1
 764.186523438 800.525390625 l 1
 1001.47460938 800.525390625 l 1
 1001.47460938 563.237304688 l 1
 764.186523438 563.237304688 l 1
EndSplineSet
EndChar

StartChar: s
Encoding: 115 115 50
Width: 1000
Flags: HW
LayerCount: 2
Fore
SplineSet
1.474609375 37.8134765625 m 1
 238.762695312 37.8134765625 l 1
 238.762695312 -199.474609375 l 1
 1.474609375 -199.474609375 l 1
 1.474609375 37.8134765625 l 1
255.711914062 -199.474609375 m 1
 255.711914062 37.8134765625 l 1
 493 37.8134765625 l 1
 493 -199.474609375 l 1
 255.711914062 -199.474609375 l 1
764.186523438 -199.474609375 m 1
 764.186523438 37.8134765625 l 1
 1001.47460938 37.8134765625 l 1
 1001.47460938 -199.474609375 l 1
 764.186523438 -199.474609375 l 1
1.474609375 54.7626953125 m 1
 1.474609375 292.05078125 l 1
 238.762695312 292.05078125 l 1
 238.762695312 54.7626953125 l 1
 1.474609375 54.7626953125 l 1
255.711914062 54.7626953125 m 1
 255.711914062 292.05078125 l 1
 493 292.05078125 l 1
 493 54.7626953125 l 1
 255.711914062 54.7626953125 l 1
764.186523438 54.7626953125 m 1
 764.186523438 292.05078125 l 1
 1001.47460938 292.05078125 l 1
 1001.47460938 54.7626953125 l 1
 764.186523438 54.7626953125 l 1
1.474609375 309 m 1
 1.474609375 546.288085938 l 1
 238.762695312 546.288085938 l 1
 238.762695312 309 l 1
 1.474609375 309 l 1
255.711914062 309 m 1
 255.711914062 546.288085938 l 1
 493 546.288085938 l 1
 493 309 l 1
 255.711914062 309 l 1
764.186523438 309 m 1
 764.186523438 546.288085938 l 1
 1001.47460938 546.288085938 l 1
 1001.47460938 309 l 1
 764.186523438 309 l 1
1.474609375 563.237304688 m 1
 1.474609375 800.525390625 l 1
 238.762695312 800.525390625 l 1
 238.762695312 563.237304688 l 1
 1.474609375 563.237304688 l 1
255.711914062 563.237304688 m 1
 255.711914062 800.525390625 l 1
 493 800.525390625 l 1
 493 563.237304688 l 1
 255.711914062 563.237304688 l 1
764.186523438 563.237304688 m 1
 764.186523438 800.525390625 l 1
 1001.47460938 800.525390625 l 1
 1001.47460938 563.237304688 l 1
 764.186523438 563.237304688 l 1
EndSplineSet
EndChar

StartChar: t
Encoding: 116 116 51
Width: 1000
Flags: HW
LayerCount: 2
Fore
SplineSet
1.474609375 37.8134765625 m 1
 238.762695312 37.8134765625 l 1
 238.762695312 -199.474609375 l 1
 1.474609375 -199.474609375 l 1
 1.474609375 37.8134765625 l 1
255.711914062 -199.474609375 m 1
 255.711914062 37.8134765625 l 1
 493 37.8134765625 l 1
 493 -199.474609375 l 1
 255.711914062 -199.474609375 l 1
509.94921875 -199.474609375 m 1
 509.94921875 37.8134765625 l 1
 747.237304688 37.8134765625 l 1
 747.237304688 -199.474609375 l 1
 509.94921875 -199.474609375 l 1
1.474609375 54.7626953125 m 1
 1.474609375 292.05078125 l 1
 238.762695312 292.05078125 l 1
 238.762695312 54.7626953125 l 1
 1.474609375 54.7626953125 l 1
255.711914062 54.7626953125 m 1
 255.711914062 292.05078125 l 1
 493 292.05078125 l 1
 493 54.7626953125 l 1
 255.711914062 54.7626953125 l 1
509.94921875 54.7626953125 m 1
 509.94921875 292.05078125 l 1
 747.237304688 292.05078125 l 1
 747.237304688 54.7626953125 l 1
 509.94921875 54.7626953125 l 1
1.474609375 309 m 1
 1.474609375 546.288085938 l 1
 238.762695312 546.288085938 l 1
 238.762695312 309 l 1
 1.474609375 309 l 1
255.711914062 309 m 1
 255.711914062 546.288085938 l 1
 493 546.288085938 l 1
 493 309 l 1
 255.711914062 309 l 1
509.94921875 309 m 1
 509.94921875 546.288085938 l 1
 747.237304688 546.288085938 l 1
 747.237304688 309 l 1
 509.94921875 309 l 1
1.474609375 563.237304688 m 1
 1.474609375 800.525390625 l 1
 238.762695312 800.525390625 l 1
 238.762695312 563.237304688 l 1
 1.474609375 563.237304688 l 1
255.711914062 563.237304688 m 1
 255.711914062 800.525390625 l 1
 493 800.525390625 l 1
 493 563.237304688 l 1
 255.711914062 563.237304688 l 1
509.94921875 563.237304688 m 1
 509.94921875 800.525390625 l 1
 747.237304688 800.525390625 l 1
 747.237304688 563.237304688 l 1
 509.94921875 563.237304688 l 1
EndSplineSet
EndChar

StartChar: u
Encoding: 117 117 52
Width: 1000
Flags: HW
LayerCount: 2
Fore
SplineSet
1.474609375 37.8134765625 m 1
 238.762695312 37.8134765625 l 1
 238.762695312 -199.474609375 l 1
 1.474609375 -199.474609375 l 1
 1.474609375 37.8134765625 l 1
255.711914062 -199.474609375 m 1
 255.711914062 37.8134765625 l 1
 493 37.8134765625 l 1
 493 -199.474609375 l 1
 255.711914062 -199.474609375 l 1
509.94921875 -199.474609375 m 1
 509.94921875 37.8134765625 l 1
 747.237304688 37.8134765625 l 1
 747.237304688 -199.474609375 l 1
 509.94921875 -199.474609375 l 1
764.186523438 -199.474609375 m 1
 764.186523438 37.8134765625 l 1
 1001.47460938 37.8134765625 l 1
 1001.47460938 -199.474609375 l 1
 764.186523438 -199.474609375 l 1
1.474609375 54.7626953125 m 1
 1.474609375 292.05078125 l 1
 238.762695312 292.05078125 l 1
 238.762695312 54.7626953125 l 1
 1.474609375 54.7626953125 l 1
255.711914062 54.7626953125 m 1
 255.711914062 292.05078125 l 1
 493 292.05078125 l 1
 493 54.7626953125 l 1
 255.711914062 54.7626953125 l 1
509.94921875 54.7626953125 m 1
 509.94921875 292.05078125 l 1
 747.237304688 292.05078125 l 1
 747.237304688 54.7626953125 l 1
 509.94921875 54.7626953125 l 1
764.186523438 54.7626953125 m 1
 764.186523438 292.05078125 l 1
 1001.47460938 292.05078125 l 1
 1001.47460938 54.7626953125 l 1
 764.186523438 54.7626953125 l 1
1.474609375 309 m 1
 1.474609375 546.288085938 l 1
 238.762695312 546.288085938 l 1
 238.762695312 309 l 1
 1.474609375 309 l 1
255.711914062 309 m 1
 255.711914062 546.288085938 l 1
 493 546.288085938 l 1
 493 309 l 1
 255.711914062 309 l 1
509.94921875 309 m 1
 509.94921875 546.288085938 l 1
 747.237304688 546.288085938 l 1
 747.237304688 309 l 1
 509.94921875 309 l 1
764.186523438 309 m 1
 764.186523438 546.288085938 l 1
 1001.47460938 546.288085938 l 1
 1001.47460938 309 l 1
 764.186523438 309 l 1
EndSplineSet
EndChar

StartChar: v
Encoding: 118 118 53
Width: 1000
Flags: HW
LayerCount: 2
Fore
SplineSet
1.474609375 37.8134765625 m 1
 238.762695312 37.8134765625 l 1
 238.762695312 -199.474609375 l 1
 1.474609375 -199.474609375 l 1
 1.474609375 37.8134765625 l 1
255.711914062 -199.474609375 m 1
 255.711914062 37.8134765625 l 1
 493 37.8134765625 l 1
 493 -199.474609375 l 1
 255.711914062 -199.474609375 l 1
509.94921875 -199.474609375 m 1
 509.94921875 37.8134765625 l 1
 747.237304688 37.8134765625 l 1
 747.237304688 -199.474609375 l 1
 509.94921875 -199.474609375 l 1
764.186523438 -199.474609375 m 1
 764.186523438 37.8134765625 l 1
 1001.47460938 37.8134765625 l 1
 1001.47460938 -199.474609375 l 1
 764.186523438 -199.474609375 l 1
1.474609375 54.7626953125 m 1
 1.474609375 292.05078125 l 1
 238.762695312 292.05078125 l 1
 238.762695312 54.7626953125 l 1
 1.474609375 54.7626953125 l 1
255.711914062 54.7626953125 m 1
 255.711914062 292.05078125 l 1
 493 292.05078125 l 1
 493 54.7626953125 l 1
 255.711914062 54.7626953125 l 1
509.94921875 54.7626953125 m 1
 509.94921875 292.05078125 l 1
 747.237304688 292.05078125 l 1
 747.237304688 54.7626953125 l 1
 509.94921875 54.7626953125 l 1
764.186523438 54.7626953125 m 1
 764.186523438 292.05078125 l 1
 1001.47460938 292.05078125 l 1
 1001.47460938 54.7626953125 l 1
 764.186523438 54.7626953125 l 1
1.474609375 563.237304688 m 1
 1.474609375 800.525390625 l 1
 238.762695312 800.525390625 l 1
 238.762695312 563.237304688 l 1
 1.474609375 563.237304688 l 1
255.711914062 563.237304688 m 1
 255.711914062 800.525390625 l 1
 493 800.525390625 l 1
 493 563.237304688 l 1
 255.711914062 563.237304688 l 1
509.94921875 563.237304688 m 1
 509.94921875 800.525390625 l 1
 747.237304688 800.525390625 l 1
 747.237304688 563.237304688 l 1
 509.94921875 563.237304688 l 1
764.186523438 563.237304688 m 1
 764.186523438 800.525390625 l 1
 1001.47460938 800.525390625 l 1
 1001.47460938 563.237304688 l 1
 764.186523438 563.237304688 l 1
EndSplineSet
EndChar

StartChar: w
Encoding: 119 119 54
Width: 1000
Flags: HW
LayerCount: 2
Fore
SplineSet
1.474609375 37.8134765625 m 1
 238.762695312 37.8134765625 l 1
 238.762695312 -199.474609375 l 1
 1.474609375 -199.474609375 l 1
 1.474609375 37.8134765625 l 1
255.711914062 -199.474609375 m 1
 255.711914062 37.8134765625 l 1
 493 37.8134765625 l 1
 493 -199.474609375 l 1
 255.711914062 -199.474609375 l 1
509.94921875 -199.474609375 m 1
 509.94921875 37.8134765625 l 1
 747.237304688 37.8134765625 l 1
 747.237304688 -199.474609375 l 1
 509.94921875 -199.474609375 l 1
764.186523438 -199.474609375 m 1
 764.186523438 37.8134765625 l 1
 1001.47460938 37.8134765625 l 1
 1001.47460938 -199.474609375 l 1
 764.186523438 -199.474609375 l 1
1.474609375 309 m 1
 1.474609375 546.288085938 l 1
 238.762695312 546.288085938 l 1
 238.762695312 309 l 1
 1.474609375 309 l 1
255.711914062 309 m 1
 255.711914062 546.288085938 l 1
 493 546.288085938 l 1
 493 309 l 1
 255.711914062 309 l 1
509.94921875 309 m 1
 509.94921875 546.288085938 l 1
 747.237304688 546.288085938 l 1
 747.237304688 309 l 1
 509.94921875 309 l 1
764.186523438 309 m 1
 764.186523438 546.288085938 l 1
 1001.47460938 546.288085938 l 1
 1001.47460938 309 l 1
 764.186523438 309 l 1
1.474609375 563.237304688 m 1
 1.474609375 800.525390625 l 1
 238.762695312 800.525390625 l 1
 238.762695312 563.237304688 l 1
 1.474609375 563.237304688 l 1
255.711914062 563.237304688 m 1
 255.711914062 800.525390625 l 1
 493 800.525390625 l 1
 493 563.237304688 l 1
 255.711914062 563.237304688 l 1
509.94921875 563.237304688 m 1
 509.94921875 800.525390625 l 1
 747.237304688 800.525390625 l 1
 747.237304688 563.237304688 l 1
 509.94921875 563.237304688 l 1
764.186523438 563.237304688 m 1
 764.186523438 800.525390625 l 1
 1001.47460938 800.525390625 l 1
 1001.47460938 563.237304688 l 1
 764.186523438 563.237304688 l 1
EndSplineSet
EndChar

StartChar: x
Encoding: 120 120 55
Width: 1000
Flags: HW
LayerCount: 2
Fore
SplineSet
1.474609375 54.7626953125 m 1
 1.474609375 292.05078125 l 1
 238.762695312 292.05078125 l 1
 238.762695312 54.7626953125 l 1
 1.474609375 54.7626953125 l 1
255.711914062 54.7626953125 m 1
 255.711914062 292.05078125 l 1
 493 292.05078125 l 1
 493 54.7626953125 l 1
 255.711914062 54.7626953125 l 1
509.94921875 54.7626953125 m 1
 509.94921875 292.05078125 l 1
 747.237304688 292.05078125 l 1
 747.237304688 54.7626953125 l 1
 509.94921875 54.7626953125 l 1
764.186523438 54.7626953125 m 1
 764.186523438 292.05078125 l 1
 1001.47460938 292.05078125 l 1
 1001.47460938 54.7626953125 l 1
 764.186523438 54.7626953125 l 1
1.474609375 309 m 1
 1.474609375 546.288085938 l 1
 238.762695312 546.288085938 l 1
 238.762695312 309 l 1
 1.474609375 309 l 1
255.711914062 309 m 1
 255.711914062 546.288085938 l 1
 493 546.288085938 l 1
 493 309 l 1
 255.711914062 309 l 1
509.94921875 309 m 1
 509.94921875 546.288085938 l 1
 747.237304688 546.288085938 l 1
 747.237304688 309 l 1
 509.94921875 309 l 1
764.186523438 309 m 1
 764.186523438 546.288085938 l 1
 1001.47460938 546.288085938 l 1
 1001.47460938 309 l 1
 764.186523438 309 l 1
1.474609375 563.237304688 m 1
 1.474609375 800.525390625 l 1
 238.762695312 800.525390625 l 1
 238.762695312 563.237304688 l 1
 1.474609375 563.237304688 l 1
255.711914062 563.237304688 m 1
 255.711914062 800.525390625 l 1
 493 800.525390625 l 1
 493 563.237304688 l 1
 255.711914062 563.237304688 l 1
509.94921875 563.237304688 m 1
 509.94921875 800.525390625 l 1
 747.237304688 800.525390625 l 1
 747.237304688 563.237304688 l 1
 509.94921875 563.237304688 l 1
764.186523438 563.237304688 m 1
 764.186523438 800.525390625 l 1
 1001.47460938 800.525390625 l 1
 1001.47460938 563.237304688 l 1
 764.186523438 563.237304688 l 1
EndSplineSet
EndChar

StartChar: y
Encoding: 121 121 56
Width: 1000
Flags: HW
LayerCount: 2
Fore
SplineSet
1.474609375 37.8134765625 m 1
 238.762695312 37.8134765625 l 1
 238.762695312 -199.474609375 l 1
 1.474609375 -199.474609375 l 1
 1.474609375 37.8134765625 l 1
764.186523438 -199.474609375 m 1
 764.186523438 37.8134765625 l 1
 1001.47460938 37.8134765625 l 1
 1001.47460938 -199.474609375 l 1
 764.186523438 -199.474609375 l 1
1.474609375 54.7626953125 m 1
 1.474609375 292.05078125 l 1
 238.762695312 292.05078125 l 1
 238.762695312 54.7626953125 l 1
 1.474609375 54.7626953125 l 1
764.186523438 54.7626953125 m 1
 764.186523438 292.05078125 l 1
 1001.47460938 292.05078125 l 1
 1001.47460938 54.7626953125 l 1
 764.186523438 54.7626953125 l 1
1.474609375 309 m 1
 1.474609375 546.288085938 l 1
 238.762695312 546.288085938 l 1
 238.762695312 309 l 1
 1.474609375 309 l 1
764.186523438 309 m 1
 764.186523438 546.288085938 l 1
 1001.47460938 546.288085938 l 1
 1001.47460938 309 l 1
 764.186523438 309 l 1
1.474609375 563.237304688 m 1
 1.474609375 800.525390625 l 1
 238.762695312 800.525390625 l 1
 238.762695312 563.237304688 l 1
 1.474609375 563.237304688 l 1
764.186523438 563.237304688 m 1
 764.186523438 800.525390625 l 1
 1001.47460938 800.525390625 l 1
 1001.47460938 563.237304688 l 1
 764.186523438 563.237304688 l 1
EndSplineSet
EndChar

StartChar: z
Encoding: 122 122 57
Width: 1000
Flags: HW
LayerCount: 2
Fore
SplineSet
1.474609375 37.8134765625 m 1
 238.762695312 37.8134765625 l 1
 238.762695312 -199.474609375 l 1
 1.474609375 -199.474609375 l 1
 1.474609375 37.8134765625 l 1
255.711914062 -199.474609375 m 1
 255.711914062 37.8134765625 l 1
 493 37.8134765625 l 1
 493 -199.474609375 l 1
 255.711914062 -199.474609375 l 1
509.94921875 -199.474609375 m 1
 509.94921875 37.8134765625 l 1
 747.237304688 37.8134765625 l 1
 747.237304688 -199.474609375 l 1
 509.94921875 -199.474609375 l 1
764.186523438 -199.474609375 m 1
 764.186523438 37.8134765625 l 1
 1001.47460938 37.8134765625 l 1
 1001.47460938 -199.474609375 l 1
 764.186523438 -199.474609375 l 1
1.474609375 563.237304688 m 1
 1.474609375 800.525390625 l 1
 238.762695312 800.525390625 l 1
 238.762695312 563.237304688 l 1
 1.474609375 563.237304688 l 1
255.711914062 563.237304688 m 1
 255.711914062 800.525390625 l 1
 493 800.525390625 l 1
 493 563.237304688 l 1
 255.711914062 563.237304688 l 1
509.94921875 563.237304688 m 1
 509.94921875 800.525390625 l 1
 747.237304688 800.525390625 l 1
 747.237304688 563.237304688 l 1
 509.94921875 563.237304688 l 1
764.186523438 563.237304688 m 1
 764.186523438 800.525390625 l 1
 1001.47460938 800.525390625 l 1
 1001.47460938 563.237304688 l 1
 764.186523438 563.237304688 l 1
EndSplineSet
EndChar

StartChar: braceleft
Encoding: 123 123 58
Width: 1000
Flags: HW
LayerCount: 2
Fore
SplineSet
764.186523438 -199.474609375 m 1
 764.186523438 37.8134765625 l 1
 1001.47460938 37.8134765625 l 1
 1001.47460938 -199.474609375 l 1
 764.186523438 -199.474609375 l 1
764.186523438 54.7626953125 m 1
 764.186523438 292.05078125 l 1
 1001.47460938 292.05078125 l 1
 1001.47460938 54.7626953125 l 1
 764.186523438 54.7626953125 l 1
764.186523438 309 m 1
 764.186523438 546.288085938 l 1
 1001.47460938 546.288085938 l 1
 1001.47460938 309 l 1
 764.186523438 309 l 1
1.474609375 563.237304688 m 1
 1.474609375 800.525390625 l 1
 238.762695312 800.525390625 l 1
 238.762695312 563.237304688 l 1
 1.474609375 563.237304688 l 1
255.711914062 563.237304688 m 1
 255.711914062 800.525390625 l 1
 493 800.525390625 l 1
 493 563.237304688 l 1
 255.711914062 563.237304688 l 1
509.94921875 563.237304688 m 1
 509.94921875 800.525390625 l 1
 747.237304688 800.525390625 l 1
 747.237304688 563.237304688 l 1
 509.94921875 563.237304688 l 1
764.186523438 563.237304688 m 1
 764.186523438 800.525390625 l 1
 1001.47460938 800.525390625 l 1
 1001.47460938 563.237304688 l 1
 764.186523438 563.237304688 l 1
EndSplineSet
EndChar

StartChar: bar
Encoding: 124 124 59
Width: 1000
Flags: HW
LayerCount: 2
Fore
SplineSet
1.474609375 37.8134765625 m 1
 238.762695312 37.8134765625 l 1
 238.762695312 -199.474609375 l 1
 1.474609375 -199.474609375 l 1
 1.474609375 37.8134765625 l 1
255.711914062 -199.474609375 m 1
 255.711914062 37.8134765625 l 1
 493 37.8134765625 l 1
 493 -199.474609375 l 1
 255.711914062 -199.474609375 l 1
509.94921875 -199.474609375 m 1
 509.94921875 37.8134765625 l 1
 747.237304688 37.8134765625 l 1
 747.237304688 -199.474609375 l 1
 509.94921875 -199.474609375 l 1
764.186523438 -199.474609375 m 1
 764.186523438 37.8134765625 l 1
 1001.47460938 37.8134765625 l 1
 1001.47460938 -199.474609375 l 1
 764.186523438 -199.474609375 l 1
764.186523438 54.7626953125 m 1
 764.186523438 292.05078125 l 1
 1001.47460938 292.05078125 l 1
 1001.47460938 54.7626953125 l 1
 764.186523438 54.7626953125 l 1
764.186523438 309 m 1
 764.186523438 546.288085938 l 1
 1001.47460938 546.288085938 l 1
 1001.47460938 309 l 1
 764.186523438 309 l 1
764.186523438 563.237304688 m 1
 764.186523438 800.525390625 l 1
 1001.47460938 800.525390625 l 1
 1001.47460938 563.237304688 l 1
 764.186523438 563.237304688 l 1
EndSplineSet
EndChar

StartChar: braceright
Encoding: 125 125 60
Width: 1000
Flags: HW
LayerCount: 2
Fore
SplineSet
1.474609375 37.8134765625 m 1
 238.762695312 37.8134765625 l 1
 238.762695312 -199.474609375 l 1
 1.474609375 -199.474609375 l 1
 1.474609375 37.8134765625 l 1
255.711914062 -199.474609375 m 1
 255.711914062 37.8134765625 l 1
 493 37.8134765625 l 1
 493 -199.474609375 l 1
 255.711914062 -199.474609375 l 1
509.94921875 -199.474609375 m 1
 509.94921875 37.8134765625 l 1
 747.237304688 37.8134765625 l 1
 747.237304688 -199.474609375 l 1
 509.94921875 -199.474609375 l 1
764.186523438 -199.474609375 m 1
 764.186523438 37.8134765625 l 1
 1001.47460938 37.8134765625 l 1
 1001.47460938 -199.474609375 l 1
 764.186523438 -199.474609375 l 1
1.474609375 54.7626953125 m 1
 1.474609375 292.05078125 l 1
 238.762695312 292.05078125 l 1
 238.762695312 54.7626953125 l 1
 1.474609375 54.7626953125 l 1
1.474609375 309 m 1
 1.474609375 546.288085938 l 1
 238.762695312 546.288085938 l 1
 238.762695312 309 l 1
 1.474609375 309 l 1
1.474609375 563.237304688 m 1
 1.474609375 800.525390625 l 1
 238.762695312 800.525390625 l 1
 238.762695312 563.237304688 l 1
 1.474609375 563.237304688 l 1
EndSplineSet
EndChar

StartChar: asciitilde
Encoding: 126 126 61
Width: 1000
Flags: HW
LayerCount: 2
Fore
SplineSet
1.474609375 37.8134765625 m 1
 238.762695312 37.8134765625 l 1
 238.762695312 -199.474609375 l 1
 1.474609375 -199.474609375 l 1
 1.474609375 37.8134765625 l 1
1.474609375 54.7626953125 m 1
 1.474609375 292.05078125 l 1
 238.762695312 292.05078125 l 1
 238.762695312 54.7626953125 l 1
 1.474609375 54.7626953125 l 1
1.474609375 309 m 1
 1.474609375 546.288085938 l 1
 238.762695312 546.288085938 l 1
 238.762695312 309 l 1
 1.474609375 309 l 1
1.474609375 563.237304688 m 1
 1.474609375 800.525390625 l 1
 238.762695312 800.525390625 l 1
 238.762695312 563.237304688 l 1
 1.474609375 563.237304688 l 1
255.711914062 563.237304688 m 1
 255.711914062 800.525390625 l 1
 493 800.525390625 l 1
 493 563.237304688 l 1
 255.711914062 563.237304688 l 1
509.94921875 563.237304688 m 1
 509.94921875 800.525390625 l 1
 747.237304688 800.525390625 l 1
 747.237304688 563.237304688 l 1
 509.94921875 563.237304688 l 1
764.186523438 563.237304688 m 1
 764.186523438 800.525390625 l 1
 1001.47460938 800.525390625 l 1
 1001.47460938 563.237304688 l 1
 764.186523438 563.237304688 l 1
EndSplineSet
EndChar

StartChar: uni007F
Encoding: 127 127 62
Width: 1000
Flags: HW
LayerCount: 2
Fore
SplineSet
764.186523438 -199.474609375 m 1
 764.186523438 37.8134765625 l 1
 1001.47460938 37.8134765625 l 1
 1001.47460938 -199.474609375 l 1
 764.186523438 -199.474609375 l 1
509.94921875 54.7626953125 m 1
 509.94921875 292.05078125 l 1
 747.237304688 292.05078125 l 1
 747.237304688 54.7626953125 l 1
 509.94921875 54.7626953125 l 1
255.711914062 309 m 1
 255.711914062 546.288085938 l 1
 493 546.288085938 l 1
 493 309 l 1
 255.711914062 309 l 1
1.474609375 563.237304688 m 1
 1.474609375 800.525390625 l 1
 238.762695312 800.525390625 l 1
 238.762695312 563.237304688 l 1
 1.474609375 563.237304688 l 1
EndSplineSet
EndChar

StartChar: uni0000
Encoding: 0 0 63
Width: 1000
Flags: HW
LayerCount: 2
Fore
SplineSet
255.711914062 54.7626953125 m 1
 255.711914062 292.05078125 l 1
 493 292.05078125 l 1
 493 54.7626953125 l 1
 255.711914062 54.7626953125 l 1
509.94921875 54.7626953125 m 1
 509.94921875 292.05078125 l 1
 747.237304688 292.05078125 l 1
 747.237304688 54.7626953125 l 1
 509.94921875 54.7626953125 l 1
255.711914062 309 m 1
 255.711914062 546.288085938 l 1
 493 546.288085938 l 1
 493 309 l 1
 255.711914062 309 l 1
509.94921875 309 m 1
 509.94921875 546.288085938 l 1
 747.237304688 546.288085938 l 1
 747.237304688 309 l 1
 509.94921875 309 l 1
764.186523438 546.288085938 m 1
 1001.47460938 546.288085938 l 1025
1.474609375 563.237304688 m 1
 1.474609375 800.525390625 l 1
 238.762695312 800.525390625 l 1
 238.762695312 563.237304688 l 1
 1.474609375 563.237304688 l 1
EndSplineSet
EndChar

StartChar: uni0001
Encoding: 1 1 64
Width: 1000
Flags: HW
LayerCount: 2
Fore
SplineSet
255.711914062 54.7626953125 m 1
 255.711914062 292.05078125 l 1
 493 292.05078125 l 1
 493 54.7626953125 l 1
 255.711914062 54.7626953125 l 1
509.94921875 54.7626953125 m 1
 509.94921875 292.05078125 l 1
 747.237304688 292.05078125 l 1
 747.237304688 54.7626953125 l 1
 509.94921875 54.7626953125 l 1
255.711914062 309 m 1
 255.711914062 546.288085938 l 1
 493 546.288085938 l 1
 493 309 l 1
 255.711914062 309 l 1
509.94921875 309 m 1
 509.94921875 546.288085938 l 1
 747.237304688 546.288085938 l 1
 747.237304688 309 l 1
 509.94921875 309 l 1
255.711914062 563.237304688 m 1
 255.711914062 800.525390625 l 1
 493 800.525390625 l 1
 493 563.237304688 l 1
 255.711914062 563.237304688 l 1
EndSplineSet
EndChar

StartChar: uni0002
Encoding: 2 2 65
Width: 1000
Flags: HW
LayerCount: 2
Fore
SplineSet
255.711914062 54.7626953125 m 1
 255.711914062 292.05078125 l 1
 493 292.05078125 l 1
 493 54.7626953125 l 1
 255.711914062 54.7626953125 l 1
509.94921875 54.7626953125 m 1
 509.94921875 292.05078125 l 1
 747.237304688 292.05078125 l 1
 747.237304688 54.7626953125 l 1
 509.94921875 54.7626953125 l 1
255.711914062 309 m 1
 255.711914062 546.288085938 l 1
 493 546.288085938 l 1
 493 309 l 1
 255.711914062 309 l 1
509.94921875 309 m 1
 509.94921875 546.288085938 l 1
 747.237304688 546.288085938 l 1
 747.237304688 309 l 1
 509.94921875 309 l 1
509.94921875 563.237304688 m 1
 509.94921875 800.525390625 l 1
 747.237304688 800.525390625 l 1
 747.237304688 563.237304688 l 1
 509.94921875 563.237304688 l 1
EndSplineSet
EndChar

StartChar: uni0003
Encoding: 3 3 66
Width: 1000
Flags: HW
LayerCount: 2
Fore
SplineSet
255.711914062 54.7626953125 m 1
 255.711914062 292.05078125 l 1
 493 292.05078125 l 1
 493 54.7626953125 l 1
 255.711914062 54.7626953125 l 1
509.94921875 54.7626953125 m 1
 509.94921875 292.05078125 l 1
 747.237304688 292.05078125 l 1
 747.237304688 54.7626953125 l 1
 509.94921875 54.7626953125 l 1
255.711914062 309 m 1
 255.711914062 546.288085938 l 1
 493 546.288085938 l 1
 493 309 l 1
 255.711914062 309 l 1
509.94921875 309 m 1
 509.94921875 546.288085938 l 1
 747.237304688 546.288085938 l 1
 747.237304688 309 l 1
 509.94921875 309 l 1
764.186523438 563.237304688 m 1
 764.186523438 800.525390625 l 1
 1001.47460938 800.525390625 l 1
 1001.47460938 563.237304688 l 1
 764.186523438 563.237304688 l 1
EndSplineSet
EndChar

StartChar: uni0004
Encoding: 4 4 67
Width: 1000
Flags: HW
LayerCount: 2
Fore
SplineSet
255.711914062 54.7626953125 m 1
 255.711914062 292.05078125 l 1
 493 292.05078125 l 1
 493 54.7626953125 l 1
 255.711914062 54.7626953125 l 1
509.94921875 54.7626953125 m 1
 509.94921875 292.05078125 l 1
 747.237304688 292.05078125 l 1
 747.237304688 54.7626953125 l 1
 509.94921875 54.7626953125 l 1
255.711914062 309 m 1
 255.711914062 546.288085938 l 1
 493 546.288085938 l 1
 493 309 l 1
 255.711914062 309 l 1
509.94921875 309 m 1
 509.94921875 546.288085938 l 1
 747.237304688 546.288085938 l 1
 747.237304688 309 l 1
 509.94921875 309 l 1
764.186523438 309 m 1
 764.186523438 546.288085938 l 1
 1001.47460938 546.288085938 l 1
 1001.47460938 309 l 1
 764.186523438 309 l 1
EndSplineSet
EndChar

StartChar: uni0005
Encoding: 5 5 68
Width: 1000
Flags: HW
LayerCount: 2
Fore
SplineSet
255.711914062 54.7626953125 m 1
 255.711914062 292.05078125 l 1
 493 292.05078125 l 1
 493 54.7626953125 l 1
 255.711914062 54.7626953125 l 1
509.94921875 54.7626953125 m 1
 509.94921875 292.05078125 l 1
 747.237304688 292.05078125 l 1
 747.237304688 54.7626953125 l 1
 509.94921875 54.7626953125 l 1
764.186523438 54.7626953125 m 1
 764.186523438 292.05078125 l 1
 1001.47460938 292.05078125 l 1
 1001.47460938 54.7626953125 l 1
 764.186523438 54.7626953125 l 1
255.711914062 309 m 1
 255.711914062 546.288085938 l 1
 493 546.288085938 l 1
 493 309 l 1
 255.711914062 309 l 1
509.94921875 309 m 1
 509.94921875 546.288085938 l 1
 747.237304688 546.288085938 l 1
 747.237304688 309 l 1
 509.94921875 309 l 1
EndSplineSet
EndChar

StartChar: uni0006
Encoding: 6 6 69
Width: 1000
Flags: HW
LayerCount: 2
Fore
SplineSet
764.186523438 -199.474609375 m 1
 764.186523438 37.8134765625 l 1
 1001.47460938 37.8134765625 l 1
 1001.47460938 -199.474609375 l 1
 764.186523438 -199.474609375 l 1
255.711914062 54.7626953125 m 1
 255.711914062 292.05078125 l 1
 493 292.05078125 l 1
 493 54.7626953125 l 1
 255.711914062 54.7626953125 l 1
509.94921875 54.7626953125 m 1
 509.94921875 292.05078125 l 1
 747.237304688 292.05078125 l 1
 747.237304688 54.7626953125 l 1
 509.94921875 54.7626953125 l 1
255.711914062 309 m 1
 255.711914062 546.288085938 l 1
 493 546.288085938 l 1
 493 309 l 1
 255.711914062 309 l 1
509.94921875 309 m 1
 509.94921875 546.288085938 l 1
 747.237304688 546.288085938 l 1
 747.237304688 309 l 1
 509.94921875 309 l 1
EndSplineSet
EndChar

StartChar: uni0007
Encoding: 7 7 70
Width: 1000
Flags: HW
LayerCount: 2
Fore
SplineSet
509.94921875 -199.474609375 m 1
 509.94921875 37.8134765625 l 1
 747.237304688 37.8134765625 l 1
 747.237304688 -199.474609375 l 1
 509.94921875 -199.474609375 l 1
255.711914062 54.7626953125 m 1
 255.711914062 292.05078125 l 1
 493 292.05078125 l 1
 493 54.7626953125 l 1
 255.711914062 54.7626953125 l 1
509.94921875 54.7626953125 m 1
 509.94921875 292.05078125 l 1
 747.237304688 292.05078125 l 1
 747.237304688 54.7626953125 l 1
 509.94921875 54.7626953125 l 1
255.711914062 309 m 1
 255.711914062 546.288085938 l 1
 493 546.288085938 l 1
 493 309 l 1
 255.711914062 309 l 1
509.94921875 309 m 1
 509.94921875 546.288085938 l 1
 747.237304688 546.288085938 l 1
 747.237304688 309 l 1
 509.94921875 309 l 1
EndSplineSet
EndChar

StartChar: uni0008
Encoding: 8 8 71
Width: 1000
Flags: HW
LayerCount: 2
Fore
SplineSet
255.711914062 -199.474609375 m 1
 255.711914062 37.8134765625 l 1
 493 37.8134765625 l 1
 493 -199.474609375 l 1
 255.711914062 -199.474609375 l 1
255.711914062 54.7626953125 m 1
 255.711914062 292.05078125 l 1
 493 292.05078125 l 1
 493 54.7626953125 l 1
 255.711914062 54.7626953125 l 1
509.94921875 54.7626953125 m 1
 509.94921875 292.05078125 l 1
 747.237304688 292.05078125 l 1
 747.237304688 54.7626953125 l 1
 509.94921875 54.7626953125 l 1
255.711914062 309 m 1
 255.711914062 546.288085938 l 1
 493 546.288085938 l 1
 493 309 l 1
 255.711914062 309 l 1
509.94921875 309 m 1
 509.94921875 546.288085938 l 1
 747.237304688 546.288085938 l 1
 747.237304688 309 l 1
 509.94921875 309 l 1
EndSplineSet
EndChar

StartChar: uni0009
Encoding: 9 9 72
Width: 1000
Flags: HW
LayerCount: 2
Fore
SplineSet
1.474609375 37.8134765625 m 1
 238.762695312 37.8134765625 l 1
 238.762695312 -199.474609375 l 1
 1.474609375 -199.474609375 l 1
 1.474609375 37.8134765625 l 1
255.711914062 54.7626953125 m 1
 255.711914062 292.05078125 l 1
 493 292.05078125 l 1
 493 54.7626953125 l 1
 255.711914062 54.7626953125 l 1
509.94921875 54.7626953125 m 1
 509.94921875 292.05078125 l 1
 747.237304688 292.05078125 l 1
 747.237304688 54.7626953125 l 1
 509.94921875 54.7626953125 l 1
255.711914062 309 m 1
 255.711914062 546.288085938 l 1
 493 546.288085938 l 1
 493 309 l 1
 255.711914062 309 l 1
509.94921875 309 m 1
 509.94921875 546.288085938 l 1
 747.237304688 546.288085938 l 1
 747.237304688 309 l 1
 509.94921875 309 l 1
EndSplineSet
EndChar

StartChar: uni000A
Encoding: 10 10 73
Width: 1000
Flags: HW
LayerCount: 2
Fore
SplineSet
1.474609375 54.7626953125 m 1
 1.474609375 292.05078125 l 1
 238.762695312 292.05078125 l 1
 238.762695312 54.7626953125 l 1
 1.474609375 54.7626953125 l 1
255.711914062 54.7626953125 m 1
 255.711914062 292.05078125 l 1
 493 292.05078125 l 1
 493 54.7626953125 l 1
 255.711914062 54.7626953125 l 1
509.94921875 54.7626953125 m 1
 509.94921875 292.05078125 l 1
 747.237304688 292.05078125 l 1
 747.237304688 54.7626953125 l 1
 509.94921875 54.7626953125 l 1
255.711914062 309 m 1
 255.711914062 546.288085938 l 1
 493 546.288085938 l 1
 493 309 l 1
 255.711914062 309 l 1
509.94921875 309 m 1
 509.94921875 546.288085938 l 1
 747.237304688 546.288085938 l 1
 747.237304688 309 l 1
 509.94921875 309 l 1
EndSplineSet
EndChar

StartChar: uni000B
Encoding: 11 11 74
Width: 1000
Flags: HW
LayerCount: 2
Fore
SplineSet
255.711914062 54.7626953125 m 1
 255.711914062 292.05078125 l 1
 493 292.05078125 l 1
 493 54.7626953125 l 1
 255.711914062 54.7626953125 l 1
509.94921875 54.7626953125 m 1
 509.94921875 292.05078125 l 1
 747.237304688 292.05078125 l 1
 747.237304688 54.7626953125 l 1
 509.94921875 54.7626953125 l 1
1.474609375 309 m 1
 1.474609375 546.288085938 l 1
 238.762695312 546.288085938 l 1
 238.762695312 309 l 1
 1.474609375 309 l 1
255.711914062 309 m 1
 255.711914062 546.288085938 l 1
 493 546.288085938 l 1
 493 309 l 1
 255.711914062 309 l 1
509.94921875 309 m 1
 509.94921875 546.288085938 l 1
 747.237304688 546.288085938 l 1
 747.237304688 309 l 1
 509.94921875 309 l 1
EndSplineSet
EndChar

StartChar: uni000C
Encoding: 12 12 75
Width: 1000
Flags: HW
LayerCount: 2
Fore
SplineSet
1.474609375 37.8134765625 m 1
 238.762695312 37.8134765625 l 1
 238.762695312 -199.474609375 l 1
 1.474609375 -199.474609375 l 1
 1.474609375 37.8134765625 l 1
255.711914062 -199.474609375 m 1
 255.711914062 37.8134765625 l 1
 493 37.8134765625 l 1
 493 -199.474609375 l 1
 255.711914062 -199.474609375 l 1
509.94921875 -199.474609375 m 1
 509.94921875 37.8134765625 l 1
 747.237304688 37.8134765625 l 1
 747.237304688 -199.474609375 l 1
 509.94921875 -199.474609375 l 1
764.186523438 -199.474609375 m 1
 764.186523438 37.8134765625 l 1
 1001.47460938 37.8134765625 l 1
 1001.47460938 -199.474609375 l 1
 764.186523438 -199.474609375 l 1
1.474609375 54.7626953125 m 1
 1.474609375 292.05078125 l 1
 238.762695312 292.05078125 l 1
 238.762695312 54.7626953125 l 1
 1.474609375 54.7626953125 l 1
764.186523438 54.7626953125 m 1
 764.186523438 292.05078125 l 1
 1001.47460938 292.05078125 l 1
 1001.47460938 54.7626953125 l 1
 764.186523438 54.7626953125 l 1
1.474609375 309 m 1
 1.474609375 546.288085938 l 1
 238.762695312 546.288085938 l 1
 238.762695312 309 l 1
 1.474609375 309 l 1
764.186523438 309 m 1
 764.186523438 546.288085938 l 1
 1001.47460938 546.288085938 l 1
 1001.47460938 309 l 1
 764.186523438 309 l 1
255.711914062 563.237304688 m 1
 255.711914062 800.525390625 l 1
 493 800.525390625 l 1
 493 563.237304688 l 1
 255.711914062 563.237304688 l 1
509.94921875 563.237304688 m 1
 509.94921875 800.525390625 l 1
 747.237304688 800.525390625 l 1
 747.237304688 563.237304688 l 1
 509.94921875 563.237304688 l 1
764.186523438 563.237304688 m 1
 764.186523438 800.525390625 l 1
 1001.47460938 800.525390625 l 1
 1001.47460938 563.237304688 l 1
 764.186523438 563.237304688 l 1
EndSplineSet
EndChar

StartChar: uni000D
Encoding: 13 13 76
Width: 1000
Flags: HW
LayerCount: 2
Fore
SplineSet
1.474609375 37.8134765625 m 1
 238.762695312 37.8134765625 l 1
 238.762695312 -199.474609375 l 1
 1.474609375 -199.474609375 l 1
 1.474609375 37.8134765625 l 1
255.711914062 -199.474609375 m 1
 255.711914062 37.8134765625 l 1
 493 37.8134765625 l 1
 493 -199.474609375 l 1
 255.711914062 -199.474609375 l 1
509.94921875 -199.474609375 m 1
 509.94921875 37.8134765625 l 1
 747.237304688 37.8134765625 l 1
 747.237304688 -199.474609375 l 1
 509.94921875 -199.474609375 l 1
764.186523438 -199.474609375 m 1
 764.186523438 37.8134765625 l 1
 1001.47460938 37.8134765625 l 1
 1001.47460938 -199.474609375 l 1
 764.186523438 -199.474609375 l 1
1.474609375 54.7626953125 m 1
 1.474609375 292.05078125 l 1
 238.762695312 292.05078125 l 1
 238.762695312 54.7626953125 l 1
 1.474609375 54.7626953125 l 1
764.186523438 54.7626953125 m 1
 764.186523438 292.05078125 l 1
 1001.47460938 292.05078125 l 1
 1001.47460938 54.7626953125 l 1
 764.186523438 54.7626953125 l 1
1.474609375 309 m 1
 1.474609375 546.288085938 l 1
 238.762695312 546.288085938 l 1
 238.762695312 309 l 1
 1.474609375 309 l 1
764.186523438 309 m 1
 764.186523438 546.288085938 l 1
 1001.47460938 546.288085938 l 1
 1001.47460938 309 l 1
 764.186523438 309 l 1
1.474609375 563.237304688 m 1
 1.474609375 800.525390625 l 1
 238.762695312 800.525390625 l 1
 238.762695312 563.237304688 l 1
 1.474609375 563.237304688 l 1
509.94921875 563.237304688 m 1
 509.94921875 800.525390625 l 1
 747.237304688 800.525390625 l 1
 747.237304688 563.237304688 l 1
 509.94921875 563.237304688 l 1
764.186523438 563.237304688 m 1
 764.186523438 800.525390625 l 1
 1001.47460938 800.525390625 l 1
 1001.47460938 563.237304688 l 1
 764.186523438 563.237304688 l 1
EndSplineSet
EndChar

StartChar: uni000E
Encoding: 14 14 77
Width: 1000
Flags: HW
LayerCount: 2
Fore
SplineSet
1.474609375 37.8134765625 m 1
 238.762695312 37.8134765625 l 1
 238.762695312 -199.474609375 l 1
 1.474609375 -199.474609375 l 1
 1.474609375 37.8134765625 l 1
255.711914062 -199.474609375 m 1
 255.711914062 37.8134765625 l 1
 493 37.8134765625 l 1
 493 -199.474609375 l 1
 255.711914062 -199.474609375 l 1
509.94921875 -199.474609375 m 1
 509.94921875 37.8134765625 l 1
 747.237304688 37.8134765625 l 1
 747.237304688 -199.474609375 l 1
 509.94921875 -199.474609375 l 1
764.186523438 -199.474609375 m 1
 764.186523438 37.8134765625 l 1
 1001.47460938 37.8134765625 l 1
 1001.47460938 -199.474609375 l 1
 764.186523438 -199.474609375 l 1
1.474609375 54.7626953125 m 1
 1.474609375 292.05078125 l 1
 238.762695312 292.05078125 l 1
 238.762695312 54.7626953125 l 1
 1.474609375 54.7626953125 l 1
764.186523438 54.7626953125 m 1
 764.186523438 292.05078125 l 1
 1001.47460938 292.05078125 l 1
 1001.47460938 54.7626953125 l 1
 764.186523438 54.7626953125 l 1
1.474609375 309 m 1
 1.474609375 546.288085938 l 1
 238.762695312 546.288085938 l 1
 238.762695312 309 l 1
 1.474609375 309 l 1
764.186523438 309 m 1
 764.186523438 546.288085938 l 1
 1001.47460938 546.288085938 l 1
 1001.47460938 309 l 1
 764.186523438 309 l 1
1.474609375 563.237304688 m 1
 1.474609375 800.525390625 l 1
 238.762695312 800.525390625 l 1
 238.762695312 563.237304688 l 1
 1.474609375 563.237304688 l 1
255.711914062 563.237304688 m 1
 255.711914062 800.525390625 l 1
 493 800.525390625 l 1
 493 563.237304688 l 1
 255.711914062 563.237304688 l 1
764.186523438 563.237304688 m 1
 764.186523438 800.525390625 l 1
 1001.47460938 800.525390625 l 1
 1001.47460938 563.237304688 l 1
 764.186523438 563.237304688 l 1
EndSplineSet
EndChar

StartChar: uni000F
Encoding: 15 15 78
Width: 1000
Flags: HW
LayerCount: 2
Fore
SplineSet
1.474609375 37.8134765625 m 1
 238.762695312 37.8134765625 l 1
 238.762695312 -199.474609375 l 1
 1.474609375 -199.474609375 l 1
 1.474609375 37.8134765625 l 1
255.711914062 -199.474609375 m 1
 255.711914062 37.8134765625 l 1
 493 37.8134765625 l 1
 493 -199.474609375 l 1
 255.711914062 -199.474609375 l 1
509.94921875 -199.474609375 m 1
 509.94921875 37.8134765625 l 1
 747.237304688 37.8134765625 l 1
 747.237304688 -199.474609375 l 1
 509.94921875 -199.474609375 l 1
764.186523438 -199.474609375 m 1
 764.186523438 37.8134765625 l 1
 1001.47460938 37.8134765625 l 1
 1001.47460938 -199.474609375 l 1
 764.186523438 -199.474609375 l 1
1.474609375 54.7626953125 m 1
 1.474609375 292.05078125 l 1
 238.762695312 292.05078125 l 1
 238.762695312 54.7626953125 l 1
 1.474609375 54.7626953125 l 1
764.186523438 54.7626953125 m 1
 764.186523438 292.05078125 l 1
 1001.47460938 292.05078125 l 1
 1001.47460938 54.7626953125 l 1
 764.186523438 54.7626953125 l 1
1.474609375 309 m 1
 1.474609375 546.288085938 l 1
 238.762695312 546.288085938 l 1
 238.762695312 309 l 1
 1.474609375 309 l 1
764.186523438 309 m 1
 764.186523438 546.288085938 l 1
 1001.47460938 546.288085938 l 1
 1001.47460938 309 l 1
 764.186523438 309 l 1
1.474609375 563.237304688 m 1
 1.474609375 800.525390625 l 1
 238.762695312 800.525390625 l 1
 238.762695312 563.237304688 l 1
 1.474609375 563.237304688 l 1
255.711914062 563.237304688 m 1
 255.711914062 800.525390625 l 1
 493 800.525390625 l 1
 493 563.237304688 l 1
 255.711914062 563.237304688 l 1
509.94921875 563.237304688 m 1
 509.94921875 800.525390625 l 1
 747.237304688 800.525390625 l 1
 747.237304688 563.237304688 l 1
 509.94921875 563.237304688 l 1
EndSplineSet
EndChar

StartChar: uni0010
Encoding: 16 16 79
Width: 1000
Flags: HW
LayerCount: 2
Fore
SplineSet
1.474609375 37.8134765625 m 1
 238.762695312 37.8134765625 l 1
 238.762695312 -199.474609375 l 1
 1.474609375 -199.474609375 l 1
 1.474609375 37.8134765625 l 1
255.711914062 -199.474609375 m 1
 255.711914062 37.8134765625 l 1
 493 37.8134765625 l 1
 493 -199.474609375 l 1
 255.711914062 -199.474609375 l 1
509.94921875 -199.474609375 m 1
 509.94921875 37.8134765625 l 1
 747.237304688 37.8134765625 l 1
 747.237304688 -199.474609375 l 1
 509.94921875 -199.474609375 l 1
764.186523438 -199.474609375 m 1
 764.186523438 37.8134765625 l 1
 1001.47460938 37.8134765625 l 1
 1001.47460938 -199.474609375 l 1
 764.186523438 -199.474609375 l 1
1.474609375 54.7626953125 m 1
 1.474609375 292.05078125 l 1
 238.762695312 292.05078125 l 1
 238.762695312 54.7626953125 l 1
 1.474609375 54.7626953125 l 1
764.186523438 54.7626953125 m 1
 764.186523438 292.05078125 l 1
 1001.47460938 292.05078125 l 1
 1001.47460938 54.7626953125 l 1
 764.186523438 54.7626953125 l 1
1.474609375 309 m 1
 1.474609375 546.288085938 l 1
 238.762695312 546.288085938 l 1
 238.762695312 309 l 1
 1.474609375 309 l 1
1.474609375 563.237304688 m 1
 1.474609375 800.525390625 l 1
 238.762695312 800.525390625 l 1
 238.762695312 563.237304688 l 1
 1.474609375 563.237304688 l 1
255.711914062 563.237304688 m 1
 255.711914062 800.525390625 l 1
 493 800.525390625 l 1
 493 563.237304688 l 1
 255.711914062 563.237304688 l 1
509.94921875 563.237304688 m 1
 509.94921875 800.525390625 l 1
 747.237304688 800.525390625 l 1
 747.237304688 563.237304688 l 1
 509.94921875 563.237304688 l 1
764.186523438 563.237304688 m 1
 764.186523438 800.525390625 l 1
 1001.47460938 800.525390625 l 1
 1001.47460938 563.237304688 l 1
 764.186523438 563.237304688 l 1
EndSplineSet
EndChar

StartChar: uni0011
Encoding: 17 17 80
Width: 1000
Flags: HW
LayerCount: 2
Fore
SplineSet
1.474609375 37.8134765625 m 1
 238.762695312 37.8134765625 l 1
 238.762695312 -199.474609375 l 1
 1.474609375 -199.474609375 l 1
 1.474609375 37.8134765625 l 1
255.711914062 -199.474609375 m 1
 255.711914062 37.8134765625 l 1
 493 37.8134765625 l 1
 493 -199.474609375 l 1
 255.711914062 -199.474609375 l 1
509.94921875 -199.474609375 m 1
 509.94921875 37.8134765625 l 1
 747.237304688 37.8134765625 l 1
 747.237304688 -199.474609375 l 1
 509.94921875 -199.474609375 l 1
764.186523438 -199.474609375 m 1
 764.186523438 37.8134765625 l 1
 1001.47460938 37.8134765625 l 1
 1001.47460938 -199.474609375 l 1
 764.186523438 -199.474609375 l 1
1.474609375 54.7626953125 m 1
 1.474609375 292.05078125 l 1
 238.762695312 292.05078125 l 1
 238.762695312 54.7626953125 l 1
 1.474609375 54.7626953125 l 1
1.474609375 309 m 1
 1.474609375 546.288085938 l 1
 238.762695312 546.288085938 l 1
 238.762695312 309 l 1
 1.474609375 309 l 1
764.186523438 309 m 1
 764.186523438 546.288085938 l 1
 1001.47460938 546.288085938 l 1
 1001.47460938 309 l 1
 764.186523438 309 l 1
1.474609375 563.237304688 m 1
 1.474609375 800.525390625 l 1
 238.762695312 800.525390625 l 1
 238.762695312 563.237304688 l 1
 1.474609375 563.237304688 l 1
255.711914062 563.237304688 m 1
 255.711914062 800.525390625 l 1
 493 800.525390625 l 1
 493 563.237304688 l 1
 255.711914062 563.237304688 l 1
509.94921875 563.237304688 m 1
 509.94921875 800.525390625 l 1
 747.237304688 800.525390625 l 1
 747.237304688 563.237304688 l 1
 509.94921875 563.237304688 l 1
764.186523438 563.237304688 m 1
 764.186523438 800.525390625 l 1
 1001.47460938 800.525390625 l 1
 1001.47460938 563.237304688 l 1
 764.186523438 563.237304688 l 1
EndSplineSet
EndChar

StartChar: uni0012
Encoding: 18 18 81
Width: 1000
Flags: HW
LayerCount: 2
Fore
SplineSet
1.474609375 37.8134765625 m 1
 238.762695312 37.8134765625 l 1
 238.762695312 -199.474609375 l 1
 1.474609375 -199.474609375 l 1
 1.474609375 37.8134765625 l 1
255.711914062 -199.474609375 m 1
 255.711914062 37.8134765625 l 1
 493 37.8134765625 l 1
 493 -199.474609375 l 1
 255.711914062 -199.474609375 l 1
509.94921875 -199.474609375 m 1
 509.94921875 37.8134765625 l 1
 747.237304688 37.8134765625 l 1
 747.237304688 -199.474609375 l 1
 509.94921875 -199.474609375 l 1
1.474609375 54.7626953125 m 1
 1.474609375 292.05078125 l 1
 238.762695312 292.05078125 l 1
 238.762695312 54.7626953125 l 1
 1.474609375 54.7626953125 l 1
764.186523438 54.7626953125 m 1
 764.186523438 292.05078125 l 1
 1001.47460938 292.05078125 l 1
 1001.47460938 54.7626953125 l 1
 764.186523438 54.7626953125 l 1
1.474609375 309 m 1
 1.474609375 546.288085938 l 1
 238.762695312 546.288085938 l 1
 238.762695312 309 l 1
 1.474609375 309 l 1
764.186523438 309 m 1
 764.186523438 546.288085938 l 1
 1001.47460938 546.288085938 l 1
 1001.47460938 309 l 1
 764.186523438 309 l 1
1.474609375 563.237304688 m 1
 1.474609375 800.525390625 l 1
 238.762695312 800.525390625 l 1
 238.762695312 563.237304688 l 1
 1.474609375 563.237304688 l 1
255.711914062 563.237304688 m 1
 255.711914062 800.525390625 l 1
 493 800.525390625 l 1
 493 563.237304688 l 1
 255.711914062 563.237304688 l 1
509.94921875 563.237304688 m 1
 509.94921875 800.525390625 l 1
 747.237304688 800.525390625 l 1
 747.237304688 563.237304688 l 1
 509.94921875 563.237304688 l 1
764.186523438 563.237304688 m 1
 764.186523438 800.525390625 l 1
 1001.47460938 800.525390625 l 1
 1001.47460938 563.237304688 l 1
 764.186523438 563.237304688 l 1
EndSplineSet
EndChar

StartChar: uni0013
Encoding: 19 19 82
Width: 1000
Flags: HW
LayerCount: 2
Fore
SplineSet
1.474609375 37.8134765625 m 1
 238.762695312 37.8134765625 l 1
 238.762695312 -199.474609375 l 1
 1.474609375 -199.474609375 l 1
 1.474609375 37.8134765625 l 1
255.711914062 -199.474609375 m 1
 255.711914062 37.8134765625 l 1
 493 37.8134765625 l 1
 493 -199.474609375 l 1
 255.711914062 -199.474609375 l 1
764.186523438 -199.474609375 m 1
 764.186523438 37.8134765625 l 1
 1001.47460938 37.8134765625 l 1
 1001.47460938 -199.474609375 l 1
 764.186523438 -199.474609375 l 1
1.474609375 54.7626953125 m 1
 1.474609375 292.05078125 l 1
 238.762695312 292.05078125 l 1
 238.762695312 54.7626953125 l 1
 1.474609375 54.7626953125 l 1
764.186523438 54.7626953125 m 1
 764.186523438 292.05078125 l 1
 1001.47460938 292.05078125 l 1
 1001.47460938 54.7626953125 l 1
 764.186523438 54.7626953125 l 1
1.474609375 309 m 1
 1.474609375 546.288085938 l 1
 238.762695312 546.288085938 l 1
 238.762695312 309 l 1
 1.474609375 309 l 1
764.186523438 309 m 1
 764.186523438 546.288085938 l 1
 1001.47460938 546.288085938 l 1
 1001.47460938 309 l 1
 764.186523438 309 l 1
1.474609375 563.237304688 m 1
 1.474609375 800.525390625 l 1
 238.762695312 800.525390625 l 1
 238.762695312 563.237304688 l 1
 1.474609375 563.237304688 l 1
255.711914062 563.237304688 m 1
 255.711914062 800.525390625 l 1
 493 800.525390625 l 1
 493 563.237304688 l 1
 255.711914062 563.237304688 l 1
509.94921875 563.237304688 m 1
 509.94921875 800.525390625 l 1
 747.237304688 800.525390625 l 1
 747.237304688 563.237304688 l 1
 509.94921875 563.237304688 l 1
764.186523438 563.237304688 m 1
 764.186523438 800.525390625 l 1
 1001.47460938 800.525390625 l 1
 1001.47460938 563.237304688 l 1
 764.186523438 563.237304688 l 1
EndSplineSet
EndChar

StartChar: uni0014
Encoding: 20 20 83
Width: 1000
Flags: HW
LayerCount: 2
Fore
SplineSet
1.474609375 37.8134765625 m 1
 238.762695312 37.8134765625 l 1
 238.762695312 -199.474609375 l 1
 1.474609375 -199.474609375 l 1
 1.474609375 37.8134765625 l 1
509.94921875 -199.474609375 m 1
 509.94921875 37.8134765625 l 1
 747.237304688 37.8134765625 l 1
 747.237304688 -199.474609375 l 1
 509.94921875 -199.474609375 l 1
764.186523438 -199.474609375 m 1
 764.186523438 37.8134765625 l 1
 1001.47460938 37.8134765625 l 1
 1001.47460938 -199.474609375 l 1
 764.186523438 -199.474609375 l 1
1.474609375 54.7626953125 m 1
 1.474609375 292.05078125 l 1
 238.762695312 292.05078125 l 1
 238.762695312 54.7626953125 l 1
 1.474609375 54.7626953125 l 1
764.186523438 54.7626953125 m 1
 764.186523438 292.05078125 l 1
 1001.47460938 292.05078125 l 1
 1001.47460938 54.7626953125 l 1
 764.186523438 54.7626953125 l 1
1.474609375 309 m 1
 1.474609375 546.288085938 l 1
 238.762695312 546.288085938 l 1
 238.762695312 309 l 1
 1.474609375 309 l 1
764.186523438 309 m 1
 764.186523438 546.288085938 l 1
 1001.47460938 546.288085938 l 1
 1001.47460938 309 l 1
 764.186523438 309 l 1
1.474609375 563.237304688 m 1
 1.474609375 800.525390625 l 1
 238.762695312 800.525390625 l 1
 238.762695312 563.237304688 l 1
 1.474609375 563.237304688 l 1
255.711914062 563.237304688 m 1
 255.711914062 800.525390625 l 1
 493 800.525390625 l 1
 493 563.237304688 l 1
 255.711914062 563.237304688 l 1
509.94921875 563.237304688 m 1
 509.94921875 800.525390625 l 1
 747.237304688 800.525390625 l 1
 747.237304688 563.237304688 l 1
 509.94921875 563.237304688 l 1
764.186523438 563.237304688 m 1
 764.186523438 800.525390625 l 1
 1001.47460938 800.525390625 l 1
 1001.47460938 563.237304688 l 1
 764.186523438 563.237304688 l 1
EndSplineSet
EndChar

StartChar: uni0015
Encoding: 21 21 84
Width: 1000
Flags: HW
LayerCount: 2
Fore
SplineSet
255.711914062 -199.474609375 m 1
 255.711914062 37.8134765625 l 1
 493 37.8134765625 l 1
 493 -199.474609375 l 1
 255.711914062 -199.474609375 l 1
509.94921875 -199.474609375 m 1
 509.94921875 37.8134765625 l 1
 747.237304688 37.8134765625 l 1
 747.237304688 -199.474609375 l 1
 509.94921875 -199.474609375 l 1
764.186523438 -199.474609375 m 1
 764.186523438 37.8134765625 l 1
 1001.47460938 37.8134765625 l 1
 1001.47460938 -199.474609375 l 1
 764.186523438 -199.474609375 l 1
1.474609375 54.7626953125 m 1
 1.474609375 292.05078125 l 1
 238.762695312 292.05078125 l 1
 238.762695312 54.7626953125 l 1
 1.474609375 54.7626953125 l 1
764.186523438 54.7626953125 m 1
 764.186523438 292.05078125 l 1
 1001.47460938 292.05078125 l 1
 1001.47460938 54.7626953125 l 1
 764.186523438 54.7626953125 l 1
1.474609375 309 m 1
 1.474609375 546.288085938 l 1
 238.762695312 546.288085938 l 1
 238.762695312 309 l 1
 1.474609375 309 l 1
764.186523438 309 m 1
 764.186523438 546.288085938 l 1
 1001.47460938 546.288085938 l 1
 1001.47460938 309 l 1
 764.186523438 309 l 1
1.474609375 563.237304688 m 1
 1.474609375 800.525390625 l 1
 238.762695312 800.525390625 l 1
 238.762695312 563.237304688 l 1
 1.474609375 563.237304688 l 1
255.711914062 563.237304688 m 1
 255.711914062 800.525390625 l 1
 493 800.525390625 l 1
 493 563.237304688 l 1
 255.711914062 563.237304688 l 1
509.94921875 563.237304688 m 1
 509.94921875 800.525390625 l 1
 747.237304688 800.525390625 l 1
 747.237304688 563.237304688 l 1
 509.94921875 563.237304688 l 1
764.186523438 563.237304688 m 1
 764.186523438 800.525390625 l 1
 1001.47460938 800.525390625 l 1
 1001.47460938 563.237304688 l 1
 764.186523438 563.237304688 l 1
EndSplineSet
EndChar

StartChar: uni0016
Encoding: 22 22 85
Width: 1000
Flags: HW
LayerCount: 2
Fore
SplineSet
1.474609375 37.8134765625 m 1
 238.762695312 37.8134765625 l 1
 238.762695312 -199.474609375 l 1
 1.474609375 -199.474609375 l 1
 1.474609375 37.8134765625 l 1
255.711914062 -199.474609375 m 1
 255.711914062 37.8134765625 l 1
 493 37.8134765625 l 1
 493 -199.474609375 l 1
 255.711914062 -199.474609375 l 1
509.94921875 -199.474609375 m 1
 509.94921875 37.8134765625 l 1
 747.237304688 37.8134765625 l 1
 747.237304688 -199.474609375 l 1
 509.94921875 -199.474609375 l 1
764.186523438 -199.474609375 m 1
 764.186523438 37.8134765625 l 1
 1001.47460938 37.8134765625 l 1
 1001.47460938 -199.474609375 l 1
 764.186523438 -199.474609375 l 1
764.186523438 54.7626953125 m 1
 764.186523438 292.05078125 l 1
 1001.47460938 292.05078125 l 1
 1001.47460938 54.7626953125 l 1
 764.186523438 54.7626953125 l 1
1.474609375 309 m 1
 1.474609375 546.288085938 l 1
 238.762695312 546.288085938 l 1
 238.762695312 309 l 1
 1.474609375 309 l 1
764.186523438 309 m 1
 764.186523438 546.288085938 l 1
 1001.47460938 546.288085938 l 1
 1001.47460938 309 l 1
 764.186523438 309 l 1
1.474609375 563.237304688 m 1
 1.474609375 800.525390625 l 1
 238.762695312 800.525390625 l 1
 238.762695312 563.237304688 l 1
 1.474609375 563.237304688 l 1
255.711914062 563.237304688 m 1
 255.711914062 800.525390625 l 1
 493 800.525390625 l 1
 493 563.237304688 l 1
 255.711914062 563.237304688 l 1
509.94921875 563.237304688 m 1
 509.94921875 800.525390625 l 1
 747.237304688 800.525390625 l 1
 747.237304688 563.237304688 l 1
 509.94921875 563.237304688 l 1
764.186523438 563.237304688 m 1
 764.186523438 800.525390625 l 1
 1001.47460938 800.525390625 l 1
 1001.47460938 563.237304688 l 1
 764.186523438 563.237304688 l 1
EndSplineSet
EndChar

StartChar: uni0017
Encoding: 23 23 86
Width: 1000
Flags: HW
LayerCount: 2
Fore
SplineSet
1.474609375 37.8134765625 m 1
 238.762695312 37.8134765625 l 1
 238.762695312 -199.474609375 l 1
 1.474609375 -199.474609375 l 1
 1.474609375 37.8134765625 l 1
255.711914062 -199.474609375 m 1
 255.711914062 37.8134765625 l 1
 493 37.8134765625 l 1
 493 -199.474609375 l 1
 255.711914062 -199.474609375 l 1
509.94921875 -199.474609375 m 1
 509.94921875 37.8134765625 l 1
 747.237304688 37.8134765625 l 1
 747.237304688 -199.474609375 l 1
 509.94921875 -199.474609375 l 1
764.186523438 -199.474609375 m 1
 764.186523438 37.8134765625 l 1
 1001.47460938 37.8134765625 l 1
 1001.47460938 -199.474609375 l 1
 764.186523438 -199.474609375 l 1
1.474609375 54.7626953125 m 1
 1.474609375 292.05078125 l 1
 238.762695312 292.05078125 l 1
 238.762695312 54.7626953125 l 1
 1.474609375 54.7626953125 l 1
764.186523438 54.7626953125 m 1
 764.186523438 292.05078125 l 1
 1001.47460938 292.05078125 l 1
 1001.47460938 54.7626953125 l 1
 764.186523438 54.7626953125 l 1
764.186523438 309 m 1
 764.186523438 546.288085938 l 1
 1001.47460938 546.288085938 l 1
 1001.47460938 309 l 1
 764.186523438 309 l 1
1.474609375 563.237304688 m 1
 1.474609375 800.525390625 l 1
 238.762695312 800.525390625 l 1
 238.762695312 563.237304688 l 1
 1.474609375 563.237304688 l 1
255.711914062 563.237304688 m 1
 255.711914062 800.525390625 l 1
 493 800.525390625 l 1
 493 563.237304688 l 1
 255.711914062 563.237304688 l 1
509.94921875 563.237304688 m 1
 509.94921875 800.525390625 l 1
 747.237304688 800.525390625 l 1
 747.237304688 563.237304688 l 1
 509.94921875 563.237304688 l 1
764.186523438 563.237304688 m 1
 764.186523438 800.525390625 l 1
 1001.47460938 800.525390625 l 1
 1001.47460938 563.237304688 l 1
 764.186523438 563.237304688 l 1
EndSplineSet
EndChar

StartChar: uni0018
Encoding: 24 24 87
Width: 1000
Flags: HW
LayerCount: 2
Fore
SplineSet
1.474609375 563.237304688 m 1
 1.474609375 800.525390625 l 1
 238.762695312 800.525390625 l 1
 238.762695312 563.237304688 l 1
 1.474609375 563.237304688 l 1
255.711914062 563.237304688 m 1
 255.711914062 800.525390625 l 1
 493 800.525390625 l 1
 493 563.237304688 l 1
 255.711914062 563.237304688 l 1
509.94921875 563.237304688 m 1
 509.94921875 800.525390625 l 1
 747.237304688 800.525390625 l 1
 747.237304688 563.237304688 l 1
 509.94921875 563.237304688 l 1
EndSplineSet
EndChar

StartChar: uni0019
Encoding: 25 25 88
Width: 1000
Flags: HW
LayerCount: 2
Fore
SplineSet
255.711914062 563.237304688 m 1
 255.711914062 800.525390625 l 1
 493 800.525390625 l 1
 493 563.237304688 l 1
 255.711914062 563.237304688 l 1
509.94921875 563.237304688 m 1
 509.94921875 800.525390625 l 1
 747.237304688 800.525390625 l 1
 747.237304688 563.237304688 l 1
 509.94921875 563.237304688 l 1
764.186523438 563.237304688 m 1
 764.186523438 800.525390625 l 1
 1001.47460938 800.525390625 l 1
 1001.47460938 563.237304688 l 1
 764.186523438 563.237304688 l 1
EndSplineSet
EndChar

StartChar: uni001A
Encoding: 26 26 89
Width: 1000
Flags: HW
LayerCount: 2
Fore
SplineSet
764.186523438 309 m 1
 764.186523438 546.288085938 l 1
 1001.47460938 546.288085938 l 1
 1001.47460938 309 l 1
 764.186523438 309 l 1
509.94921875 563.237304688 m 1
 509.94921875 800.525390625 l 1
 747.237304688 800.525390625 l 1
 747.237304688 563.237304688 l 1
 509.94921875 563.237304688 l 1
764.186523438 563.237304688 m 1
 764.186523438 800.525390625 l 1
 1001.47460938 800.525390625 l 1
 1001.47460938 563.237304688 l 1
 764.186523438 563.237304688 l 1
EndSplineSet
EndChar

StartChar: uni001B
Encoding: 27 27 90
Width: 1000
Flags: HW
LayerCount: 2
Fore
SplineSet
764.186523438 54.7626953125 m 1
 764.186523438 292.05078125 l 1
 1001.47460938 292.05078125 l 1
 1001.47460938 54.7626953125 l 1
 764.186523438 54.7626953125 l 1
764.186523438 309 m 1
 764.186523438 546.288085938 l 1
 1001.47460938 546.288085938 l 1
 1001.47460938 309 l 1
 764.186523438 309 l 1
764.186523438 563.237304688 m 1
 764.186523438 800.525390625 l 1
 1001.47460938 800.525390625 l 1
 1001.47460938 563.237304688 l 1
 764.186523438 563.237304688 l 1
EndSplineSet
EndChar

StartChar: uni001C
Encoding: 28 28 91
Width: 1000
Flags: HW
LayerCount: 2
Fore
SplineSet
764.186523438 -199.474609375 m 1
 764.186523438 37.8134765625 l 1
 1001.47460938 37.8134765625 l 1
 1001.47460938 -199.474609375 l 1
 764.186523438 -199.474609375 l 1
764.186523438 54.7626953125 m 1
 764.186523438 292.05078125 l 1
 1001.47460938 292.05078125 l 1
 1001.47460938 54.7626953125 l 1
 764.186523438 54.7626953125 l 1
764.186523438 309 m 1
 764.186523438 546.288085938 l 1
 1001.47460938 546.288085938 l 1
 1001.47460938 309 l 1
 764.186523438 309 l 1
EndSplineSet
EndChar

StartChar: uni001D
Encoding: 29 29 92
Width: 1000
Flags: HW
LayerCount: 2
Fore
SplineSet
509.94921875 -199.474609375 m 1
 509.94921875 37.8134765625 l 1
 747.237304688 37.8134765625 l 1
 747.237304688 -199.474609375 l 1
 509.94921875 -199.474609375 l 1
764.186523438 -199.474609375 m 1
 764.186523438 37.8134765625 l 1
 1001.47460938 37.8134765625 l 1
 1001.47460938 -199.474609375 l 1
 764.186523438 -199.474609375 l 1
764.186523438 54.7626953125 m 1
 764.186523438 292.05078125 l 1
 1001.47460938 292.05078125 l 1
 1001.47460938 54.7626953125 l 1
 764.186523438 54.7626953125 l 1
EndSplineSet
EndChar

StartChar: uni001E
Encoding: 30 30 93
Width: 1000
Flags: HW
LayerCount: 2
Fore
SplineSet
255.711914062 -199.474609375 m 1
 255.711914062 37.8134765625 l 1
 493 37.8134765625 l 1
 493 -199.474609375 l 1
 255.711914062 -199.474609375 l 1
509.94921875 -199.474609375 m 1
 509.94921875 37.8134765625 l 1
 747.237304688 37.8134765625 l 1
 747.237304688 -199.474609375 l 1
 509.94921875 -199.474609375 l 1
764.186523438 -199.474609375 m 1
 764.186523438 37.8134765625 l 1
 1001.47460938 37.8134765625 l 1
 1001.47460938 -199.474609375 l 1
 764.186523438 -199.474609375 l 1
EndSplineSet
EndChar

StartChar: uni001F
Encoding: 31 31 94
Width: 1000
Flags: HW
LayerCount: 2
Fore
SplineSet
1.474609375 37.8134765625 m 1
 238.762695312 37.8134765625 l 1
 238.762695312 -199.474609375 l 1
 1.474609375 -199.474609375 l 1
 1.474609375 37.8134765625 l 1
255.711914062 -199.474609375 m 1
 255.711914062 37.8134765625 l 1
 493 37.8134765625 l 1
 493 -199.474609375 l 1
 255.711914062 -199.474609375 l 1
509.94921875 -199.474609375 m 1
 509.94921875 37.8134765625 l 1
 747.237304688 37.8134765625 l 1
 747.237304688 -199.474609375 l 1
 509.94921875 -199.474609375 l 1
EndSplineSet
EndChar

StartChar: space
Encoding: 32 32 95
Width: 1000
Flags: HW
LayerCount: 2
Fore
SplineSet
1.474609375 37.8134765625 m 1
 238.762695312 37.8134765625 l 1
 238.762695312 -199.474609375 l 1
 1.474609375 -199.474609375 l 1
 1.474609375 37.8134765625 l 1
1.474609375 54.7626953125 m 1
 1.474609375 292.05078125 l 1
 238.762695312 292.05078125 l 1
 238.762695312 54.7626953125 l 1
 1.474609375 54.7626953125 l 1
1.474609375 309 m 1
 1.474609375 546.288085938 l 1
 238.762695312 546.288085938 l 1
 238.762695312 309 l 1
 1.474609375 309 l 1
EndSplineSet
EndChar

StartChar: exclam
Encoding: 33 33 96
Width: 1000
Flags: HW
LayerCount: 2
Fore
SplineSet
1.474609375 54.7626953125 m 1
 1.474609375 292.05078125 l 1
 238.762695312 292.05078125 l 1
 238.762695312 54.7626953125 l 1
 1.474609375 54.7626953125 l 1
1.474609375 309 m 1
 1.474609375 546.288085938 l 1
 238.762695312 546.288085938 l 1
 238.762695312 309 l 1
 1.474609375 309 l 1
1.474609375 563.237304688 m 1
 1.474609375 800.525390625 l 1
 238.762695312 800.525390625 l 1
 238.762695312 563.237304688 l 1
 1.474609375 563.237304688 l 1
EndSplineSet
EndChar

StartChar: quotedbl
Encoding: 34 34 97
Width: 1000
Flags: HW
LayerCount: 2
Fore
SplineSet
1.474609375 309 m 1
 1.474609375 546.288085938 l 1
 238.762695312 546.288085938 l 1
 238.762695312 309 l 1
 1.474609375 309 l 1
1.474609375 563.237304688 m 1
 1.474609375 800.525390625 l 1
 238.762695312 800.525390625 l 1
 238.762695312 563.237304688 l 1
 1.474609375 563.237304688 l 1
255.711914062 563.237304688 m 1
 255.711914062 800.525390625 l 1
 493 800.525390625 l 1
 493 563.237304688 l 1
 255.711914062 563.237304688 l 1
EndSplineSet
EndChar

StartChar: numbersign
Encoding: 35 35 98
Width: 1000
Flags: HW
LayerCount: 2
Fore
SplineSet
1.474609375 37.8134765625 m 1
 238.762695312 37.8134765625 l 1
 238.762695312 -199.474609375 l 1
 1.474609375 -199.474609375 l 1
 1.474609375 37.8134765625 l 1
255.711914062 -199.474609375 m 1
 255.711914062 37.8134765625 l 1
 493 37.8134765625 l 1
 493 -199.474609375 l 1
 255.711914062 -199.474609375 l 1
509.94921875 -199.474609375 m 1
 509.94921875 37.8134765625 l 1
 747.237304688 37.8134765625 l 1
 747.237304688 -199.474609375 l 1
 509.94921875 -199.474609375 l 1
764.186523438 -199.474609375 m 1
 764.186523438 37.8134765625 l 1
 1001.47460938 37.8134765625 l 1
 1001.47460938 -199.474609375 l 1
 764.186523438 -199.474609375 l 1
1.474609375 54.7626953125 m 1
 1.474609375 292.05078125 l 1
 238.762695312 292.05078125 l 1
 238.762695312 54.7626953125 l 1
 1.474609375 54.7626953125 l 1
255.711914062 54.7626953125 m 1
 255.711914062 292.05078125 l 1
 493 292.05078125 l 1
 493 54.7626953125 l 1
 255.711914062 54.7626953125 l 1
509.94921875 54.7626953125 m 1
 509.94921875 292.05078125 l 1
 747.237304688 292.05078125 l 1
 747.237304688 54.7626953125 l 1
 509.94921875 54.7626953125 l 1
764.186523438 54.7626953125 m 1
 764.186523438 292.05078125 l 1
 1001.47460938 292.05078125 l 1
 1001.47460938 54.7626953125 l 1
 764.186523438 54.7626953125 l 1
1.474609375 309 m 1
 1.474609375 546.288085938 l 1
 238.762695312 546.288085938 l 1
 238.762695312 309 l 1
 1.474609375 309 l 1
255.711914062 309 m 1
 255.711914062 546.288085938 l 1
 493 546.288085938 l 1
 493 309 l 1
 255.711914062 309 l 1
509.94921875 309 m 1
 509.94921875 546.288085938 l 1
 747.237304688 546.288085938 l 1
 747.237304688 309 l 1
 509.94921875 309 l 1
764.186523438 309 m 1
 764.186523438 546.288085938 l 1
 1001.47460938 546.288085938 l 1
 1001.47460938 309 l 1
 764.186523438 309 l 1
764.186523438 563.237304688 m 1
 764.186523438 800.525390625 l 1
 1001.47460938 800.525390625 l 1
 1001.47460938 563.237304688 l 1
 764.186523438 563.237304688 l 1
EndSplineSet
EndChar

StartChar: dollar
Encoding: 36 36 99
Width: 1000
Flags: HW
LayerCount: 2
Fore
SplineSet
1.474609375 37.8134765625 m 1
 238.762695312 37.8134765625 l 1
 238.762695312 -199.474609375 l 1
 1.474609375 -199.474609375 l 1
 1.474609375 37.8134765625 l 1
255.711914062 -199.474609375 m 1
 255.711914062 37.8134765625 l 1
 493 37.8134765625 l 1
 493 -199.474609375 l 1
 255.711914062 -199.474609375 l 1
509.94921875 -199.474609375 m 1
 509.94921875 37.8134765625 l 1
 747.237304688 37.8134765625 l 1
 747.237304688 -199.474609375 l 1
 509.94921875 -199.474609375 l 1
764.186523438 -199.474609375 m 1
 764.186523438 37.8134765625 l 1
 1001.47460938 37.8134765625 l 1
 1001.47460938 -199.474609375 l 1
 764.186523438 -199.474609375 l 1
1.474609375 54.7626953125 m 1
 1.474609375 292.05078125 l 1
 238.762695312 292.05078125 l 1
 238.762695312 54.7626953125 l 1
 1.474609375 54.7626953125 l 1
255.711914062 54.7626953125 m 1
 255.711914062 292.05078125 l 1
 493 292.05078125 l 1
 493 54.7626953125 l 1
 255.711914062 54.7626953125 l 1
509.94921875 54.7626953125 m 1
 509.94921875 292.05078125 l 1
 747.237304688 292.05078125 l 1
 747.237304688 54.7626953125 l 1
 509.94921875 54.7626953125 l 1
764.186523438 54.7626953125 m 1
 764.186523438 292.05078125 l 1
 1001.47460938 292.05078125 l 1
 1001.47460938 54.7626953125 l 1
 764.186523438 54.7626953125 l 1
1.474609375 309 m 1
 1.474609375 546.288085938 l 1
 238.762695312 546.288085938 l 1
 238.762695312 309 l 1
 1.474609375 309 l 1
255.711914062 309 m 1
 255.711914062 546.288085938 l 1
 493 546.288085938 l 1
 493 309 l 1
 255.711914062 309 l 1
509.94921875 309 m 1
 509.94921875 546.288085938 l 1
 747.237304688 546.288085938 l 1
 747.237304688 309 l 1
 509.94921875 309 l 1
764.186523438 309 m 1
 764.186523438 546.288085938 l 1
 1001.47460938 546.288085938 l 1
 1001.47460938 309 l 1
 764.186523438 309 l 1
1.474609375 563.237304688 m 1
 1.474609375 800.525390625 l 1
 238.762695312 800.525390625 l 1
 238.762695312 563.237304688 l 1
 1.474609375 563.237304688 l 1
EndSplineSet
EndChar

StartChar: percent
Encoding: 37 37 100
Width: 1000
Flags: HW
LayerCount: 2
Fore
SplineSet
1.474609375 37.8134765625 m 1
 238.762695312 37.8134765625 l 1
 238.762695312 -199.474609375 l 1
 1.474609375 -199.474609375 l 1
 1.474609375 37.8134765625 l 1
255.711914062 -199.474609375 m 1
 255.711914062 37.8134765625 l 1
 493 37.8134765625 l 1
 493 -199.474609375 l 1
 255.711914062 -199.474609375 l 1
509.94921875 -199.474609375 m 1
 509.94921875 37.8134765625 l 1
 747.237304688 37.8134765625 l 1
 747.237304688 -199.474609375 l 1
 509.94921875 -199.474609375 l 1
764.186523438 -199.474609375 m 1
 764.186523438 37.8134765625 l 1
 1001.47460938 37.8134765625 l 1
 1001.47460938 -199.474609375 l 1
 764.186523438 -199.474609375 l 1
1.474609375 54.7626953125 m 1
 1.474609375 292.05078125 l 1
 238.762695312 292.05078125 l 1
 238.762695312 54.7626953125 l 1
 1.474609375 54.7626953125 l 1
255.711914062 54.7626953125 m 1
 255.711914062 292.05078125 l 1
 493 292.05078125 l 1
 493 54.7626953125 l 1
 255.711914062 54.7626953125 l 1
509.94921875 54.7626953125 m 1
 509.94921875 292.05078125 l 1
 747.237304688 292.05078125 l 1
 747.237304688 54.7626953125 l 1
 509.94921875 54.7626953125 l 1
764.186523438 54.7626953125 m 1
 764.186523438 292.05078125 l 1
 1001.47460938 292.05078125 l 1
 1001.47460938 54.7626953125 l 1
 764.186523438 54.7626953125 l 1
1.474609375 309 m 1
 1.474609375 546.288085938 l 1
 238.762695312 546.288085938 l 1
 238.762695312 309 l 1
 1.474609375 309 l 1
255.711914062 309 m 1
 255.711914062 546.288085938 l 1
 493 546.288085938 l 1
 493 309 l 1
 255.711914062 309 l 1
509.94921875 309 m 1
 509.94921875 546.288085938 l 1
 747.237304688 546.288085938 l 1
 747.237304688 309 l 1
 509.94921875 309 l 1
1.474609375 563.237304688 m 1
 1.474609375 800.525390625 l 1
 238.762695312 800.525390625 l 1
 238.762695312 563.237304688 l 1
 1.474609375 563.237304688 l 1
255.711914062 563.237304688 m 1
 255.711914062 800.525390625 l 1
 493 800.525390625 l 1
 493 563.237304688 l 1
 255.711914062 563.237304688 l 1
EndSplineSet
EndChar

StartChar: ampersand
Encoding: 38 38 101
Width: 1000
Flags: HW
LayerCount: 2
Fore
SplineSet
1.474609375 37.8134765625 m 1
 238.762695312 37.8134765625 l 1
 238.762695312 -199.474609375 l 1
 1.474609375 -199.474609375 l 1
 1.474609375 37.8134765625 l 1
255.711914062 -199.474609375 m 1
 255.711914062 37.8134765625 l 1
 493 37.8134765625 l 1
 493 -199.474609375 l 1
 255.711914062 -199.474609375 l 1
509.94921875 -199.474609375 m 1
 509.94921875 37.8134765625 l 1
 747.237304688 37.8134765625 l 1
 747.237304688 -199.474609375 l 1
 509.94921875 -199.474609375 l 1
764.186523438 -199.474609375 m 1
 764.186523438 37.8134765625 l 1
 1001.47460938 37.8134765625 l 1
 1001.47460938 -199.474609375 l 1
 764.186523438 -199.474609375 l 1
1.474609375 54.7626953125 m 1
 1.474609375 292.05078125 l 1
 238.762695312 292.05078125 l 1
 238.762695312 54.7626953125 l 1
 1.474609375 54.7626953125 l 1
255.711914062 54.7626953125 m 1
 255.711914062 292.05078125 l 1
 493 292.05078125 l 1
 493 54.7626953125 l 1
 255.711914062 54.7626953125 l 1
509.94921875 54.7626953125 m 1
 509.94921875 292.05078125 l 1
 747.237304688 292.05078125 l 1
 747.237304688 54.7626953125 l 1
 509.94921875 54.7626953125 l 1
1.474609375 309 m 1
 1.474609375 546.288085938 l 1
 238.762695312 546.288085938 l 1
 238.762695312 309 l 1
 1.474609375 309 l 1
255.711914062 309 m 1
 255.711914062 546.288085938 l 1
 493 546.288085938 l 1
 493 309 l 1
 255.711914062 309 l 1
509.94921875 309 m 1
 509.94921875 546.288085938 l 1
 747.237304688 546.288085938 l 1
 747.237304688 309 l 1
 509.94921875 309 l 1
1.474609375 563.237304688 m 1
 1.474609375 800.525390625 l 1
 238.762695312 800.525390625 l 1
 238.762695312 563.237304688 l 1
 1.474609375 563.237304688 l 1
255.711914062 563.237304688 m 1
 255.711914062 800.525390625 l 1
 493 800.525390625 l 1
 493 563.237304688 l 1
 255.711914062 563.237304688 l 1
509.94921875 563.237304688 m 1
 509.94921875 800.525390625 l 1
 747.237304688 800.525390625 l 1
 747.237304688 563.237304688 l 1
 509.94921875 563.237304688 l 1
EndSplineSet
EndChar

StartChar: quotesingle
Encoding: 39 39 102
Width: 1000
Flags: HW
LayerCount: 2
Fore
SplineSet
1.474609375 37.8134765625 m 1
 238.762695312 37.8134765625 l 1
 238.762695312 -199.474609375 l 1
 1.474609375 -199.474609375 l 1
 1.474609375 37.8134765625 l 1
255.711914062 -199.474609375 m 1
 255.711914062 37.8134765625 l 1
 493 37.8134765625 l 1
 493 -199.474609375 l 1
 255.711914062 -199.474609375 l 1
509.94921875 -199.474609375 m 1
 509.94921875 37.8134765625 l 1
 747.237304688 37.8134765625 l 1
 747.237304688 -199.474609375 l 1
 509.94921875 -199.474609375 l 1
1.474609375 54.7626953125 m 1
 1.474609375 292.05078125 l 1
 238.762695312 292.05078125 l 1
 238.762695312 54.7626953125 l 1
 1.474609375 54.7626953125 l 1
255.711914062 54.7626953125 m 1
 255.711914062 292.05078125 l 1
 493 292.05078125 l 1
 493 54.7626953125 l 1
 255.711914062 54.7626953125 l 1
509.94921875 54.7626953125 m 1
 509.94921875 292.05078125 l 1
 747.237304688 292.05078125 l 1
 747.237304688 54.7626953125 l 1
 509.94921875 54.7626953125 l 1
1.474609375 309 m 1
 1.474609375 546.288085938 l 1
 238.762695312 546.288085938 l 1
 238.762695312 309 l 1
 1.474609375 309 l 1
255.711914062 309 m 1
 255.711914062 546.288085938 l 1
 493 546.288085938 l 1
 493 309 l 1
 255.711914062 309 l 1
509.94921875 309 m 1
 509.94921875 546.288085938 l 1
 747.237304688 546.288085938 l 1
 747.237304688 309 l 1
 509.94921875 309 l 1
1.474609375 563.237304688 m 1
 1.474609375 800.525390625 l 1
 238.762695312 800.525390625 l 1
 238.762695312 563.237304688 l 1
 1.474609375 563.237304688 l 1
255.711914062 563.237304688 m 1
 255.711914062 800.525390625 l 1
 493 800.525390625 l 1
 493 563.237304688 l 1
 255.711914062 563.237304688 l 1
509.94921875 563.237304688 m 1
 509.94921875 800.525390625 l 1
 747.237304688 800.525390625 l 1
 747.237304688 563.237304688 l 1
 509.94921875 563.237304688 l 1
764.186523438 563.237304688 m 1
 764.186523438 800.525390625 l 1
 1001.47460938 800.525390625 l 1
 1001.47460938 563.237304688 l 1
 764.186523438 563.237304688 l 1
EndSplineSet
EndChar

StartChar: parenleft
Encoding: 40 40 103
Width: 1000
Flags: HW
LayerCount: 2
Fore
SplineSet
1.474609375 37.8134765625 m 1
 238.762695312 37.8134765625 l 1
 238.762695312 -199.474609375 l 1
 1.474609375 -199.474609375 l 1
 1.474609375 37.8134765625 l 1
255.711914062 -199.474609375 m 1
 255.711914062 37.8134765625 l 1
 493 37.8134765625 l 1
 493 -199.474609375 l 1
 255.711914062 -199.474609375 l 1
1.474609375 54.7626953125 m 1
 1.474609375 292.05078125 l 1
 238.762695312 292.05078125 l 1
 238.762695312 54.7626953125 l 1
 1.474609375 54.7626953125 l 1
255.711914062 54.7626953125 m 1
 255.711914062 292.05078125 l 1
 493 292.05078125 l 1
 493 54.7626953125 l 1
 255.711914062 54.7626953125 l 1
509.94921875 54.7626953125 m 1
 509.94921875 292.05078125 l 1
 747.237304688 292.05078125 l 1
 747.237304688 54.7626953125 l 1
 509.94921875 54.7626953125 l 1
1.474609375 309 m 1
 1.474609375 546.288085938 l 1
 238.762695312 546.288085938 l 1
 238.762695312 309 l 1
 1.474609375 309 l 1
255.711914062 309 m 1
 255.711914062 546.288085938 l 1
 493 546.288085938 l 1
 493 309 l 1
 255.711914062 309 l 1
509.94921875 309 m 1
 509.94921875 546.288085938 l 1
 747.237304688 546.288085938 l 1
 747.237304688 309 l 1
 509.94921875 309 l 1
764.186523438 309 m 1
 764.186523438 546.288085938 l 1
 1001.47460938 546.288085938 l 1
 1001.47460938 309 l 1
 764.186523438 309 l 1
1.474609375 563.237304688 m 1
 1.474609375 800.525390625 l 1
 238.762695312 800.525390625 l 1
 238.762695312 563.237304688 l 1
 1.474609375 563.237304688 l 1
255.711914062 563.237304688 m 1
 255.711914062 800.525390625 l 1
 493 800.525390625 l 1
 493 563.237304688 l 1
 255.711914062 563.237304688 l 1
509.94921875 563.237304688 m 1
 509.94921875 800.525390625 l 1
 747.237304688 800.525390625 l 1
 747.237304688 563.237304688 l 1
 509.94921875 563.237304688 l 1
764.186523438 563.237304688 m 1
 764.186523438 800.525390625 l 1
 1001.47460938 800.525390625 l 1
 1001.47460938 563.237304688 l 1
 764.186523438 563.237304688 l 1
EndSplineSet
EndChar

StartChar: parenright
Encoding: 41 41 104
Width: 1000
Flags: HW
LayerCount: 2
Fore
SplineSet
1.474609375 37.8134765625 m 1
 238.762695312 37.8134765625 l 1
 238.762695312 -199.474609375 l 1
 1.474609375 -199.474609375 l 1
 1.474609375 37.8134765625 l 1
1.474609375 54.7626953125 m 1
 1.474609375 292.05078125 l 1
 238.762695312 292.05078125 l 1
 238.762695312 54.7626953125 l 1
 1.474609375 54.7626953125 l 1
255.711914062 54.7626953125 m 1
 255.711914062 292.05078125 l 1
 493 292.05078125 l 1
 493 54.7626953125 l 1
 255.711914062 54.7626953125 l 1
509.94921875 54.7626953125 m 1
 509.94921875 292.05078125 l 1
 747.237304688 292.05078125 l 1
 747.237304688 54.7626953125 l 1
 509.94921875 54.7626953125 l 1
764.186523438 54.7626953125 m 1
 764.186523438 292.05078125 l 1
 1001.47460938 292.05078125 l 1
 1001.47460938 54.7626953125 l 1
 764.186523438 54.7626953125 l 1
1.474609375 309 m 1
 1.474609375 546.288085938 l 1
 238.762695312 546.288085938 l 1
 238.762695312 309 l 1
 1.474609375 309 l 1
255.711914062 309 m 1
 255.711914062 546.288085938 l 1
 493 546.288085938 l 1
 493 309 l 1
 255.711914062 309 l 1
509.94921875 309 m 1
 509.94921875 546.288085938 l 1
 747.237304688 546.288085938 l 1
 747.237304688 309 l 1
 509.94921875 309 l 1
764.186523438 309 m 1
 764.186523438 546.288085938 l 1
 1001.47460938 546.288085938 l 1
 1001.47460938 309 l 1
 764.186523438 309 l 1
1.474609375 563.237304688 m 1
 1.474609375 800.525390625 l 1
 238.762695312 800.525390625 l 1
 238.762695312 563.237304688 l 1
 1.474609375 563.237304688 l 1
255.711914062 563.237304688 m 1
 255.711914062 800.525390625 l 1
 493 800.525390625 l 1
 493 563.237304688 l 1
 255.711914062 563.237304688 l 1
509.94921875 563.237304688 m 1
 509.94921875 800.525390625 l 1
 747.237304688 800.525390625 l 1
 747.237304688 563.237304688 l 1
 509.94921875 563.237304688 l 1
764.186523438 563.237304688 m 1
 764.186523438 800.525390625 l 1
 1001.47460938 800.525390625 l 1
 1001.47460938 563.237304688 l 1
 764.186523438 563.237304688 l 1
EndSplineSet
EndChar

StartChar: asterisk
Encoding: 42 42 105
Width: 1000
Flags: HW
LayerCount: 2
Fore
SplineSet
747.237304688 -199.474609375 m 1
 509.94921875 -199.474609375 l 1025
764.186523438 -199.474609375 m 1
 764.186523438 37.8134765625 l 1
 1001.47460938 37.8134765625 l 1
 1001.47460938 -199.474609375 l 1
 764.186523438 -199.474609375 l 1
1.474609375 54.7626953125 m 1
 1.474609375 292.05078125 l 1
 238.762695312 292.05078125 l 1
 238.762695312 54.7626953125 l 1
 1.474609375 54.7626953125 l 1
255.711914062 54.7626953125 m 1
 255.711914062 292.05078125 l 1
 493 292.05078125 l 1
 493 54.7626953125 l 1
 255.711914062 54.7626953125 l 1
509.94921875 54.7626953125 m 1
 509.94921875 292.05078125 l 1
 747.237304688 292.05078125 l 1
 747.237304688 54.7626953125 l 1
 509.94921875 54.7626953125 l 1
764.186523438 54.7626953125 m 1
 764.186523438 292.05078125 l 1
 1001.47460938 292.05078125 l 1
 1001.47460938 54.7626953125 l 1
 764.186523438 54.7626953125 l 1
1.474609375 309 m 1
 1.474609375 546.288085938 l 1
 238.762695312 546.288085938 l 1
 238.762695312 309 l 1
 1.474609375 309 l 1
255.711914062 309 m 1
 255.711914062 546.288085938 l 1
 493 546.288085938 l 1
 493 309 l 1
 255.711914062 309 l 1
509.94921875 309 m 1
 509.94921875 546.288085938 l 1
 747.237304688 546.288085938 l 1
 747.237304688 309 l 1
 509.94921875 309 l 1
764.186523438 309 m 1
 764.186523438 546.288085938 l 1
 1001.47460938 546.288085938 l 1
 1001.47460938 309 l 1
 764.186523438 309 l 1
1.474609375 563.237304688 m 1
 1.474609375 800.525390625 l 1
 238.762695312 800.525390625 l 1
 238.762695312 563.237304688 l 1
 1.474609375 563.237304688 l 1
255.711914062 563.237304688 m 1
 255.711914062 800.525390625 l 1
 493 800.525390625 l 1
 493 563.237304688 l 1
 255.711914062 563.237304688 l 1
509.94921875 563.237304688 m 1
 509.94921875 800.525390625 l 1
 747.237304688 800.525390625 l 1
 747.237304688 563.237304688 l 1
 509.94921875 563.237304688 l 1
764.186523438 563.237304688 m 1
 764.186523438 800.525390625 l 1
 1001.47460938 800.525390625 l 1
 1001.47460938 563.237304688 l 1
 764.186523438 563.237304688 l 1
EndSplineSet
EndChar

StartChar: plus
Encoding: 43 43 106
Width: 1000
Flags: HW
LayerCount: 2
Fore
SplineSet
509.94921875 -199.474609375 m 1
 509.94921875 37.8134765625 l 1
 747.237304688 37.8134765625 l 1
 747.237304688 -199.474609375 l 1
 509.94921875 -199.474609375 l 1
764.186523438 -199.474609375 m 1
 764.186523438 37.8134765625 l 1
 1001.47460938 37.8134765625 l 1
 1001.47460938 -199.474609375 l 1
 764.186523438 -199.474609375 l 1
255.711914062 54.7626953125 m 1
 255.711914062 292.05078125 l 1
 493 292.05078125 l 1
 493 54.7626953125 l 1
 255.711914062 54.7626953125 l 1
509.94921875 54.7626953125 m 1
 509.94921875 292.05078125 l 1
 747.237304688 292.05078125 l 1
 747.237304688 54.7626953125 l 1
 509.94921875 54.7626953125 l 1
764.186523438 54.7626953125 m 1
 764.186523438 292.05078125 l 1
 1001.47460938 292.05078125 l 1
 1001.47460938 54.7626953125 l 1
 764.186523438 54.7626953125 l 1
1.474609375 309 m 1
 1.474609375 546.288085938 l 1
 238.762695312 546.288085938 l 1
 238.762695312 309 l 1
 1.474609375 309 l 1
255.711914062 309 m 1
 255.711914062 546.288085938 l 1
 493 546.288085938 l 1
 493 309 l 1
 255.711914062 309 l 1
509.94921875 309 m 1
 509.94921875 546.288085938 l 1
 747.237304688 546.288085938 l 1
 747.237304688 309 l 1
 509.94921875 309 l 1
764.186523438 309 m 1
 764.186523438 546.288085938 l 1
 1001.47460938 546.288085938 l 1
 1001.47460938 309 l 1
 764.186523438 309 l 1
1.474609375 563.237304688 m 1
 1.474609375 800.525390625 l 1
 238.762695312 800.525390625 l 1
 238.762695312 563.237304688 l 1
 1.474609375 563.237304688 l 1
255.711914062 563.237304688 m 1
 255.711914062 800.525390625 l 1
 493 800.525390625 l 1
 493 563.237304688 l 1
 255.711914062 563.237304688 l 1
509.94921875 563.237304688 m 1
 509.94921875 800.525390625 l 1
 747.237304688 800.525390625 l 1
 747.237304688 563.237304688 l 1
 509.94921875 563.237304688 l 1
764.186523438 563.237304688 m 1
 764.186523438 800.525390625 l 1
 1001.47460938 800.525390625 l 1
 1001.47460938 563.237304688 l 1
 764.186523438 563.237304688 l 1
EndSplineSet
EndChar

StartChar: comma
Encoding: 44 44 107
Width: 1000
Flags: HW
LayerCount: 2
Fore
SplineSet
255.711914062 -199.474609375 m 5
 255.711914062 37.8134765625 l 5
 493 37.8134765625 l 5
 493 -199.474609375 l 5
 255.711914062 -199.474609375 l 5
509.94921875 -199.474609375 m 1
 509.94921875 37.8134765625 l 1
 747.237304688 37.8134765625 l 1
 747.237304688 -199.474609375 l 1
 509.94921875 -199.474609375 l 1
764.186523438 -199.474609375 m 1
 764.186523438 37.8134765625 l 1
 1001.47460938 37.8134765625 l 1
 1001.47460938 -199.474609375 l 1
 764.186523438 -199.474609375 l 1
255.711914062 54.7626953125 m 1
 255.711914062 292.05078125 l 1
 493 292.05078125 l 1
 493 54.7626953125 l 1
 255.711914062 54.7626953125 l 1
509.94921875 54.7626953125 m 1
 509.94921875 292.05078125 l 1
 747.237304688 292.05078125 l 1
 747.237304688 54.7626953125 l 1
 509.94921875 54.7626953125 l 1
764.186523438 54.7626953125 m 1
 764.186523438 292.05078125 l 1
 1001.47460938 292.05078125 l 1
 1001.47460938 54.7626953125 l 1
 764.186523438 54.7626953125 l 1
255.711914062 309 m 1
 255.711914062 546.288085938 l 1
 493 546.288085938 l 1
 493 309 l 1
 255.711914062 309 l 1
509.94921875 309 m 1
 509.94921875 546.288085938 l 1
 747.237304688 546.288085938 l 1
 747.237304688 309 l 1
 509.94921875 309 l 1
764.186523438 309 m 1
 764.186523438 546.288085938 l 1
 1001.47460938 546.288085938 l 1
 1001.47460938 309 l 1
 764.186523438 309 l 1
1.474609375 563.237304688 m 1
 1.474609375 800.525390625 l 1
 238.762695312 800.525390625 l 1
 238.762695312 563.237304688 l 1
 1.474609375 563.237304688 l 1
255.711914062 563.237304688 m 1
 255.711914062 800.525390625 l 1
 493 800.525390625 l 1
 493 563.237304688 l 1
 255.711914062 563.237304688 l 1
509.94921875 563.237304688 m 1
 509.94921875 800.525390625 l 1
 747.237304688 800.525390625 l 1
 747.237304688 563.237304688 l 1
 509.94921875 563.237304688 l 1
764.186523438 563.237304688 m 1
 764.186523438 800.525390625 l 1
 1001.47460938 800.525390625 l 1
 1001.47460938 563.237304688 l 1
 764.186523438 563.237304688 l 1
EndSplineSet
EndChar

StartChar: hyphen
Encoding: 45 45 108
Width: 1000
Flags: HW
LayerCount: 2
Fore
SplineSet
1.474609375 37.8134765625 m 1
 238.762695312 37.8134765625 l 1
 238.762695312 -199.474609375 l 1
 1.474609375 -199.474609375 l 1
 1.474609375 37.8134765625 l 1
255.711914062 -199.474609375 m 1
 255.711914062 37.8134765625 l 1
 493 37.8134765625 l 1
 493 -199.474609375 l 1
 255.711914062 -199.474609375 l 1
509.94921875 -199.474609375 m 1
 509.94921875 37.8134765625 l 1
 747.237304688 37.8134765625 l 1
 747.237304688 -199.474609375 l 1
 509.94921875 -199.474609375 l 1
764.186523438 -199.474609375 m 1
 764.186523438 37.8134765625 l 1
 1001.47460938 37.8134765625 l 1
 1001.47460938 -199.474609375 l 1
 764.186523438 -199.474609375 l 1
255.711914062 54.7626953125 m 1
 255.711914062 292.05078125 l 1
 493 292.05078125 l 1
 493 54.7626953125 l 1
 255.711914062 54.7626953125 l 1
509.94921875 54.7626953125 m 1
 509.94921875 292.05078125 l 1
 747.237304688 292.05078125 l 1
 747.237304688 54.7626953125 l 1
 509.94921875 54.7626953125 l 1
764.186523438 54.7626953125 m 1
 764.186523438 292.05078125 l 1
 1001.47460938 292.05078125 l 1
 1001.47460938 54.7626953125 l 1
 764.186523438 54.7626953125 l 1
255.711914062 309 m 1
 255.711914062 546.288085938 l 1
 493 546.288085938 l 1
 493 309 l 1
 255.711914062 309 l 1
509.94921875 309 m 1
 509.94921875 546.288085938 l 1
 747.237304688 546.288085938 l 1
 747.237304688 309 l 1
 509.94921875 309 l 1
764.186523438 309 m 1
 764.186523438 546.288085938 l 1
 1001.47460938 546.288085938 l 1
 1001.47460938 309 l 1
 764.186523438 309 l 1
255.711914062 563.237304688 m 1
 255.711914062 800.525390625 l 1
 493 800.525390625 l 1
 493 563.237304688 l 1
 255.711914062 563.237304688 l 1
509.94921875 563.237304688 m 1
 509.94921875 800.525390625 l 1
 747.237304688 800.525390625 l 1
 747.237304688 563.237304688 l 1
 509.94921875 563.237304688 l 1
764.186523438 563.237304688 m 1
 764.186523438 800.525390625 l 1
 1001.47460938 800.525390625 l 1
 1001.47460938 563.237304688 l 1
 764.186523438 563.237304688 l 1
EndSplineSet
EndChar

StartChar: period
Encoding: 46 46 109
Width: 1000
Flags: HW
LayerCount: 2
Fore
SplineSet
1.474609375 37.8134765625 m 1
 238.762695312 37.8134765625 l 1
 238.762695312 -199.474609375 l 1
 1.474609375 -199.474609375 l 1
 1.474609375 37.8134765625 l 1
255.711914062 -199.474609375 m 1
 255.711914062 37.8134765625 l 1
 493 37.8134765625 l 1
 493 -199.474609375 l 1
 255.711914062 -199.474609375 l 1
509.94921875 -199.474609375 m 1
 509.94921875 37.8134765625 l 1
 747.237304688 37.8134765625 l 1
 747.237304688 -199.474609375 l 1
 509.94921875 -199.474609375 l 1
764.186523438 -199.474609375 m 1
 764.186523438 37.8134765625 l 1
 1001.47460938 37.8134765625 l 1
 1001.47460938 -199.474609375 l 1
 764.186523438 -199.474609375 l 1
1.474609375 54.7626953125 m 1
 1.474609375 292.05078125 l 1
 238.762695312 292.05078125 l 1
 238.762695312 54.7626953125 l 1
 1.474609375 54.7626953125 l 1
255.711914062 54.7626953125 m 1
 255.711914062 292.05078125 l 1
 493 292.05078125 l 1
 493 54.7626953125 l 1
 255.711914062 54.7626953125 l 1
509.94921875 54.7626953125 m 1
 509.94921875 292.05078125 l 1
 747.237304688 292.05078125 l 1
 747.237304688 54.7626953125 l 1
 509.94921875 54.7626953125 l 1
764.186523438 54.7626953125 m 1
 764.186523438 292.05078125 l 1
 1001.47460938 292.05078125 l 1
 1001.47460938 54.7626953125 l 1
 764.186523438 54.7626953125 l 1
255.711914062 309 m 1
 255.711914062 546.288085938 l 1
 493 546.288085938 l 1
 493 309 l 1
 255.711914062 309 l 1
509.94921875 309 m 1
 509.94921875 546.288085938 l 1
 747.237304688 546.288085938 l 1
 747.237304688 309 l 1
 509.94921875 309 l 1
764.186523438 309 m 1
 764.186523438 546.288085938 l 1
 1001.47460938 546.288085938 l 1
 1001.47460938 309 l 1
 764.186523438 309 l 1
509.94921875 563.237304688 m 1
 509.94921875 800.525390625 l 1
 747.237304688 800.525390625 l 1
 747.237304688 563.237304688 l 1
 509.94921875 563.237304688 l 1
764.186523438 563.237304688 m 1
 764.186523438 800.525390625 l 1
 1001.47460938 800.525390625 l 1
 1001.47460938 563.237304688 l 1
 764.186523438 563.237304688 l 1
EndSplineSet
EndChar

StartChar: slash
Encoding: 47 47 110
Width: 1000
Flags: HW
LayerCount: 2
Fore
SplineSet
1.474609375 37.8134765625 m 1
 238.762695312 37.8134765625 l 1
 238.762695312 -199.474609375 l 1
 1.474609375 -199.474609375 l 1
 1.474609375 37.8134765625 l 1
255.711914062 54.7626953125 m 1
 255.711914062 292.05078125 l 1
 493 292.05078125 l 1
 493 54.7626953125 l 1
 255.711914062 54.7626953125 l 1
509.94921875 309 m 1
 509.94921875 546.288085938 l 1
 747.237304688 546.288085938 l 1
 747.237304688 309 l 1
 509.94921875 309 l 1
764.186523438 563.237304688 m 1
 764.186523438 800.525390625 l 1
 1001.47460938 800.525390625 l 1
 1001.47460938 563.237304688 l 1
 764.186523438 563.237304688 l 1
EndSplineSet
EndChar

StartChar: zero
Encoding: 48 48 111
Width: 1000
Flags: HW
LayerCount: 2
Fore
SplineSet
1.474609375 37.8134765625 m 1
 238.762695312 37.8134765625 l 1
 238.762695312 -199.474609375 l 1
 1.474609375 -199.474609375 l 1
 1.474609375 37.8134765625 l 1
255.711914062 -199.474609375 m 1
 255.711914062 37.8134765625 l 1
 493 37.8134765625 l 1
 493 -199.474609375 l 1
 255.711914062 -199.474609375 l 1
509.94921875 -199.474609375 m 1
 509.94921875 37.8134765625 l 1
 747.237304688 37.8134765625 l 1
 747.237304688 -199.474609375 l 1
 509.94921875 -199.474609375 l 1
764.186523438 -199.474609375 m 1
 764.186523438 37.8134765625 l 1
 1001.47460938 37.8134765625 l 1
 1001.47460938 -199.474609375 l 1
 764.186523438 -199.474609375 l 1
1.474609375 54.7626953125 m 1
 1.474609375 292.05078125 l 1
 238.762695312 292.05078125 l 1
 238.762695312 54.7626953125 l 1
 1.474609375 54.7626953125 l 1
764.186523438 54.7626953125 m 1
 764.186523438 292.05078125 l 1
 1001.47460938 292.05078125 l 1
 1001.47460938 54.7626953125 l 1
 764.186523438 54.7626953125 l 1
1.474609375 309 m 1
 1.474609375 546.288085938 l 1
 238.762695312 546.288085938 l 1
 238.762695312 309 l 1
 1.474609375 309 l 1
764.186523438 309 m 1
 764.186523438 546.288085938 l 1
 1001.47460938 546.288085938 l 1
 1001.47460938 309 l 1
 764.186523438 309 l 1
1.474609375 563.237304688 m 1
 1.474609375 800.525390625 l 1
 238.762695312 800.525390625 l 1
 238.762695312 563.237304688 l 1
 1.474609375 563.237304688 l 1
255.711914062 563.237304688 m 1
 255.711914062 800.525390625 l 1
 493 800.525390625 l 1
 493 563.237304688 l 1
 255.711914062 563.237304688 l 1
509.94921875 563.237304688 m 1
 509.94921875 800.525390625 l 1
 747.237304688 800.525390625 l 1
 747.237304688 563.237304688 l 1
 509.94921875 563.237304688 l 1
764.186523438 563.237304688 m 1
 764.186523438 800.525390625 l 1
 1001.47460938 800.525390625 l 1
 1001.47460938 563.237304688 l 1
 764.186523438 563.237304688 l 1
EndSplineSet
EndChar

StartChar: one
Encoding: 49 49 112
Width: 1000
Flags: HW
LayerCount: 2
Fore
SplineSet
255.711914062 54.7626953125 m 1
 255.711914062 292.05078125 l 1
 493 292.05078125 l 1
 493 54.7626953125 l 1
 255.711914062 54.7626953125 l 1
509.94921875 54.7626953125 m 1
 509.94921875 292.05078125 l 1
 747.237304688 292.05078125 l 1
 747.237304688 54.7626953125 l 1
 509.94921875 54.7626953125 l 1
255.711914062 309 m 1
 255.711914062 546.288085938 l 1
 493 546.288085938 l 1
 493 309 l 1
 255.711914062 309 l 1
509.94921875 309 m 1
 509.94921875 546.288085938 l 1
 747.237304688 546.288085938 l 1
 747.237304688 309 l 1
 509.94921875 309 l 1
EndSplineSet
EndChar

StartChar: two
Encoding: 50 50 113
Width: 1000
Flags: HW
LayerCount: 2
Fore
SplineSet
1.474609375 309 m 1
 1.474609375 546.288085938 l 1
 238.762695312 546.288085938 l 1
 238.762695312 309 l 1
 1.474609375 309 l 1
255.711914062 309 m 1
 255.711914062 546.288085938 l 1
 493 546.288085938 l 1
 493 309 l 1
 255.711914062 309 l 1
1.474609375 563.237304688 m 1
 1.474609375 800.525390625 l 1
 238.762695312 800.525390625 l 1
 238.762695312 563.237304688 l 1
 1.474609375 563.237304688 l 1
255.711914062 563.237304688 m 1
 255.711914062 800.525390625 l 1
 493 800.525390625 l 1
 493 563.237304688 l 1
 255.711914062 563.237304688 l 1
EndSplineSet
EndChar

StartChar: three
Encoding: 51 51 114
Width: 1000
Flags: HW
LayerCount: 2
Fore
SplineSet
509.94921875 309 m 1
 509.94921875 546.288085938 l 1
 747.237304688 546.288085938 l 1
 747.237304688 309 l 1
 509.94921875 309 l 1
764.186523438 309 m 1
 764.186523438 546.288085938 l 1
 1001.47460938 546.288085938 l 1
 1001.47460938 309 l 1
 764.186523438 309 l 1
509.94921875 563.237304688 m 1
 509.94921875 800.525390625 l 1
 747.237304688 800.525390625 l 1
 747.237304688 563.237304688 l 1
 509.94921875 563.237304688 l 1
764.186523438 563.237304688 m 1
 764.186523438 800.525390625 l 1
 1001.47460938 800.525390625 l 1
 1001.47460938 563.237304688 l 1
 764.186523438 563.237304688 l 1
EndSplineSet
EndChar

StartChar: four
Encoding: 52 52 115
Width: 1000
Flags: HW
LayerCount: 2
Fore
SplineSet
509.94921875 -199.474609375 m 1
 509.94921875 37.8134765625 l 1
 747.237304688 37.8134765625 l 1
 747.237304688 -199.474609375 l 1
 509.94921875 -199.474609375 l 1
764.186523438 -199.474609375 m 1
 764.186523438 37.8134765625 l 1
 1001.47460938 37.8134765625 l 1
 1001.47460938 -199.474609375 l 1
 764.186523438 -199.474609375 l 1
509.94921875 54.7626953125 m 1
 509.94921875 292.05078125 l 1
 747.237304688 292.05078125 l 1
 747.237304688 54.7626953125 l 1
 509.94921875 54.7626953125 l 1
764.186523438 54.7626953125 m 1
 764.186523438 292.05078125 l 1
 1001.47460938 292.05078125 l 1
 1001.47460938 54.7626953125 l 1
 764.186523438 54.7626953125 l 1
EndSplineSet
EndChar

StartChar: five
Encoding: 53 53 116
Width: 1000
Flags: HW
LayerCount: 2
Fore
SplineSet
1.474609375 37.8134765625 m 1
 238.762695312 37.8134765625 l 1
 238.762695312 -199.474609375 l 1
 1.474609375 -199.474609375 l 1
 1.474609375 37.8134765625 l 1
255.711914062 -199.474609375 m 1
 255.711914062 37.8134765625 l 1
 493 37.8134765625 l 1
 493 -199.474609375 l 1
 255.711914062 -199.474609375 l 1
1.474609375 54.7626953125 m 1
 1.474609375 292.05078125 l 1
 238.762695312 292.05078125 l 1
 238.762695312 54.7626953125 l 1
 1.474609375 54.7626953125 l 1
255.711914062 54.7626953125 m 1
 255.711914062 292.05078125 l 1
 493 292.05078125 l 1
 493 54.7626953125 l 1
 255.711914062 54.7626953125 l 1
EndSplineSet
EndChar

StartChar: six
Encoding: 54 54 117
Width: 1000
Flags: HW
LayerCount: 2
Fore
SplineSet
1.474609375 37.8134765625 m 1
 238.762695312 37.8134765625 l 1
 238.762695312 -199.474609375 l 1
 1.474609375 -199.474609375 l 1
 1.474609375 37.8134765625 l 1
255.711914062 -199.474609375 m 1
 255.711914062 37.8134765625 l 1
 493 37.8134765625 l 1
 493 -199.474609375 l 1
 255.711914062 -199.474609375 l 1
509.94921875 -199.474609375 m 1
 509.94921875 37.8134765625 l 1
 747.237304688 37.8134765625 l 1
 747.237304688 -199.474609375 l 1
 509.94921875 -199.474609375 l 1
764.186523438 -199.474609375 m 1
 764.186523438 37.8134765625 l 1
 1001.47460938 37.8134765625 l 1
 1001.47460938 -199.474609375 l 1
 764.186523438 -199.474609375 l 1
1.474609375 54.7626953125 m 1
 1.474609375 292.05078125 l 1
 238.762695312 292.05078125 l 1
 238.762695312 54.7626953125 l 1
 1.474609375 54.7626953125 l 1
255.711914062 54.7626953125 m 1
 255.711914062 292.05078125 l 1
 493 292.05078125 l 1
 493 54.7626953125 l 1
 255.711914062 54.7626953125 l 1
509.94921875 54.7626953125 m 1
 509.94921875 292.05078125 l 1
 747.237304688 292.05078125 l 1
 747.237304688 54.7626953125 l 1
 509.94921875 54.7626953125 l 1
764.186523438 54.7626953125 m 1
 764.186523438 292.05078125 l 1
 1001.47460938 292.05078125 l 1
 1001.47460938 54.7626953125 l 1
 764.186523438 54.7626953125 l 1
509.94921875 309 m 1
 509.94921875 546.288085938 l 1
 747.237304688 546.288085938 l 1
 747.237304688 309 l 1
 509.94921875 309 l 1
764.186523438 309 m 1
 764.186523438 546.288085938 l 1
 1001.47460938 546.288085938 l 1
 1001.47460938 309 l 1
 764.186523438 309 l 1
509.94921875 563.237304688 m 1
 509.94921875 800.525390625 l 1
 747.237304688 800.525390625 l 1
 747.237304688 563.237304688 l 1
 509.94921875 563.237304688 l 1
764.186523438 563.237304688 m 1
 764.186523438 800.525390625 l 1
 1001.47460938 800.525390625 l 1
 1001.47460938 563.237304688 l 1
 764.186523438 563.237304688 l 1
EndSplineSet
EndChar

StartChar: seven
Encoding: 55 55 118
Width: 1000
Flags: HW
LayerCount: 2
Fore
SplineSet
1.474609375 37.8134765625 m 1
 238.762695312 37.8134765625 l 1
 238.762695312 -199.474609375 l 1
 1.474609375 -199.474609375 l 1
 1.474609375 37.8134765625 l 1
255.711914062 -199.474609375 m 1
 255.711914062 37.8134765625 l 1
 493 37.8134765625 l 1
 493 -199.474609375 l 1
 255.711914062 -199.474609375 l 1
509.94921875 -199.474609375 m 1
 509.94921875 37.8134765625 l 1
 747.237304688 37.8134765625 l 1
 747.237304688 -199.474609375 l 1
 509.94921875 -199.474609375 l 1
764.186523438 -199.474609375 m 1
 764.186523438 37.8134765625 l 1
 1001.47460938 37.8134765625 l 1
 1001.47460938 -199.474609375 l 1
 764.186523438 -199.474609375 l 1
1.474609375 54.7626953125 m 1
 1.474609375 292.05078125 l 1
 238.762695312 292.05078125 l 1
 238.762695312 54.7626953125 l 1
 1.474609375 54.7626953125 l 1
255.711914062 54.7626953125 m 1
 255.711914062 292.05078125 l 1
 493 292.05078125 l 1
 493 54.7626953125 l 1
 255.711914062 54.7626953125 l 1
509.94921875 54.7626953125 m 1
 509.94921875 292.05078125 l 1
 747.237304688 292.05078125 l 1
 747.237304688 54.7626953125 l 1
 509.94921875 54.7626953125 l 1
764.186523438 54.7626953125 m 1
 764.186523438 292.05078125 l 1
 1001.47460938 292.05078125 l 1
 1001.47460938 54.7626953125 l 1
 764.186523438 54.7626953125 l 1
1.474609375 309 m 1
 1.474609375 546.288085938 l 1
 238.762695312 546.288085938 l 1
 238.762695312 309 l 1
 1.474609375 309 l 1
255.711914062 309 m 1
 255.711914062 546.288085938 l 1
 493 546.288085938 l 1
 493 309 l 1
 255.711914062 309 l 1
1.474609375 563.237304688 m 1
 1.474609375 800.525390625 l 1
 238.762695312 800.525390625 l 1
 238.762695312 563.237304688 l 1
 1.474609375 563.237304688 l 1
255.711914062 563.237304688 m 1
 255.711914062 800.525390625 l 1
 493 800.525390625 l 1
 493 563.237304688 l 1
 255.711914062 563.237304688 l 1
EndSplineSet
EndChar

StartChar: nine
Encoding: 57 57 119
Width: 1000
Flags: HWO
LayerCount: 2
Fore
SplineSet
509.94921875 -199.474609375 m 1
 509.94921875 37.8134765625 l 1
 747.237304688 37.8134765625 l 1
 747.237304688 -199.474609375 l 1
 509.94921875 -199.474609375 l 1
764.186523438 -199.474609375 m 1
 764.186523438 37.8134765625 l 1
 1001.47460938 37.8134765625 l 1
 1001.47460938 -199.474609375 l 1
 764.186523438 -199.474609375 l 1
509.94921875 54.7626953125 m 1
 509.94921875 292.05078125 l 1
 747.237304688 292.05078125 l 1
 747.237304688 54.7626953125 l 1
 509.94921875 54.7626953125 l 1
764.186523438 54.7626953125 m 1
 764.186523438 292.05078125 l 1
 1001.47460938 292.05078125 l 1
 1001.47460938 54.7626953125 l 1
 764.186523438 54.7626953125 l 1
1.474609375 309 m 1
 1.474609375 546.288085938 l 1
 238.762695312 546.288085938 l 1
 238.762695312 309 l 1
 1.474609375 309 l 1
255.711914062 309 m 1
 255.711914062 546.288085938 l 1
 493 546.288085938 l 1
 493 309 l 1
 255.711914062 309 l 1
509.94921875 309 m 1
 509.94921875 546.288085938 l 1
 747.237304688 546.288085938 l 1
 747.237304688 309 l 1
 509.94921875 309 l 1
764.186523438 309 m 1
 764.186523438 546.288085938 l 1
 1001.47460938 546.288085938 l 1
 1001.47460938 309 l 1
 764.186523438 309 l 1
1.474609375 563.237304688 m 1
 1.474609375 800.525390625 l 1
 238.762695312 800.525390625 l 1
 238.762695312 563.237304688 l 1
 1.474609375 563.237304688 l 1
255.711914062 563.237304688 m 1
 255.711914062 800.525390625 l 1
 493 800.525390625 l 1
 493 563.237304688 l 1
 255.711914062 563.237304688 l 1
509.94921875 563.237304688 m 1
 509.94921875 800.525390625 l 1
 747.237304688 800.525390625 l 1
 747.237304688 563.237304688 l 1
 509.94921875 563.237304688 l 1
764.186523438 563.237304688 m 1
 764.186523438 800.525390625 l 1
 1001.47460938 800.525390625 l 1
 1001.47460938 563.237304688 l 1
 764.186523438 563.237304688 l 1
EndSplineSet
EndChar

StartChar: eight
Encoding: 56 56 120
Width: 1000
Flags: HW
LayerCount: 2
Fore
SplineSet
1.474609375 37.8134765625 m 1
 238.762695312 37.8134765625 l 1
 238.762695312 -199.474609375 l 1
 1.474609375 -199.474609375 l 1
 1.474609375 37.8134765625 l 1
255.711914062 -199.474609375 m 1
 255.711914062 37.8134765625 l 1
 493 37.8134765625 l 1
 493 -199.474609375 l 1
 255.711914062 -199.474609375 l 1
1.474609375 54.7626953125 m 1
 1.474609375 292.05078125 l 1
 238.762695312 292.05078125 l 1
 238.762695312 54.7626953125 l 1
 1.474609375 54.7626953125 l 1
255.711914062 54.7626953125 m 1
 255.711914062 292.05078125 l 1
 493 292.05078125 l 1
 493 54.7626953125 l 1
 255.711914062 54.7626953125 l 1
509.94921875 292.05078125 m 1
 747.237304688 292.05078125 l 1025
764.186523438 292.05078125 m 1
 1001.47460938 292.05078125 l 1025
1.474609375 309 m 1
 1.474609375 546.288085938 l 1
 238.762695312 546.288085938 l 1
 238.762695312 309 l 1
 1.474609375 309 l 1
255.711914062 309 m 1
 255.711914062 546.288085938 l 1
 493 546.288085938 l 1
 493 309 l 1
 255.711914062 309 l 1
509.94921875 309 m 1
 509.94921875 546.288085938 l 1
 747.237304688 546.288085938 l 1
 747.237304688 309 l 1
 509.94921875 309 l 1
764.186523438 309 m 1
 764.186523438 546.288085938 l 1
 1001.47460938 546.288085938 l 1
 1001.47460938 309 l 1
 764.186523438 309 l 1
1.474609375 563.237304688 m 1
 1.474609375 800.525390625 l 1
 238.762695312 800.525390625 l 1
 238.762695312 563.237304688 l 1
 1.474609375 563.237304688 l 1
255.711914062 563.237304688 m 1
 255.711914062 800.525390625 l 1
 493 800.525390625 l 1
 493 563.237304688 l 1
 255.711914062 563.237304688 l 1
509.94921875 563.237304688 m 1
 509.94921875 800.525390625 l 1
 747.237304688 800.525390625 l 1
 747.237304688 563.237304688 l 1
 509.94921875 563.237304688 l 1
764.186523438 563.237304688 m 1
 764.186523438 800.525390625 l 1
 1001.47460938 800.525390625 l 1
 1001.47460938 563.237304688 l 1
 764.186523438 563.237304688 l 1
EndSplineSet
EndChar

StartChar: colon
Encoding: 58 58 121
Width: 1000
Flags: HW
LayerCount: 2
Fore
SplineSet
1.474609375 37.8134765625 m 1
 238.762695312 37.8134765625 l 1
 238.762695312 -199.474609375 l 1
 1.474609375 -199.474609375 l 1
 1.474609375 37.8134765625 l 1
764.186523438 -199.474609375 m 1
 764.186523438 37.8134765625 l 1
 1001.47460938 37.8134765625 l 1
 1001.47460938 -199.474609375 l 1
 764.186523438 -199.474609375 l 1
1.474609375 54.7626953125 m 1
 1.474609375 292.05078125 l 1
 238.762695312 292.05078125 l 1
 238.762695312 54.7626953125 l 1
 1.474609375 54.7626953125 l 1
255.711914062 54.7626953125 m 1
 255.711914062 292.05078125 l 1
 493 292.05078125 l 1
 493 54.7626953125 l 1
 255.711914062 54.7626953125 l 1
764.186523438 54.7626953125 m 1
 764.186523438 292.05078125 l 1
 1001.47460938 292.05078125 l 1
 1001.47460938 54.7626953125 l 1
 764.186523438 54.7626953125 l 1
1.474609375 309 m 1
 1.474609375 546.288085938 l 1
 238.762695312 546.288085938 l 1
 238.762695312 309 l 1
 1.474609375 309 l 1
255.711914062 309 m 1
 255.711914062 546.288085938 l 1
 493 546.288085938 l 1
 493 309 l 1
 255.711914062 309 l 1
509.94921875 309 m 1
 509.94921875 546.288085938 l 1
 747.237304688 546.288085938 l 1
 747.237304688 309 l 1
 509.94921875 309 l 1
764.186523438 309 m 1
 764.186523438 546.288085938 l 1
 1001.47460938 546.288085938 l 1
 1001.47460938 309 l 1
 764.186523438 309 l 1
1.474609375 563.237304688 m 1
 1.474609375 800.525390625 l 1
 238.762695312 800.525390625 l 1
 238.762695312 563.237304688 l 1
 1.474609375 563.237304688 l 1
255.711914062 563.237304688 m 1
 255.711914062 800.525390625 l 1
 493 800.525390625 l 1
 493 563.237304688 l 1
 255.711914062 563.237304688 l 1
509.94921875 563.237304688 m 1
 509.94921875 800.525390625 l 1
 747.237304688 800.525390625 l 1
 747.237304688 563.237304688 l 1
 509.94921875 563.237304688 l 1
764.186523438 563.237304688 m 1
 764.186523438 800.525390625 l 1
 1001.47460938 800.525390625 l 1
 1001.47460938 563.237304688 l 1
 764.186523438 563.237304688 l 1
EndSplineSet
EndChar

StartChar: semicolon
Encoding: 59 59 122
Width: 1000
Flags: HW
LayerCount: 2
Fore
SplineSet
1.474609375 37.8134765625 m 1
 238.762695312 37.8134765625 l 1
 238.762695312 -199.474609375 l 1
 1.474609375 -199.474609375 l 1
 1.474609375 37.8134765625 l 1
493 -199.474609375 m 1
 255.711914062 -199.474609375 l 1025
747.237304688 -199.474609375 m 1
 509.94921875 -199.474609375 l 1025
764.186523438 -199.474609375 m 1
 764.186523438 37.8134765625 l 1
 1001.47460938 37.8134765625 l 1
 1001.47460938 -199.474609375 l 1
 764.186523438 -199.474609375 l 1
1.474609375 54.7626953125 m 1
 1.474609375 292.05078125 l 1
 238.762695312 292.05078125 l 1
 238.762695312 54.7626953125 l 1
 1.474609375 54.7626953125 l 1
255.711914062 292.05078125 m 1
 493 292.05078125 l 1025
509.94921875 54.7626953125 m 1
 509.94921875 292.05078125 l 1
 747.237304688 292.05078125 l 1
 747.237304688 54.7626953125 l 1
 509.94921875 54.7626953125 l 1
764.186523438 54.7626953125 m 1
 764.186523438 292.05078125 l 1
 1001.47460938 292.05078125 l 1
 1001.47460938 54.7626953125 l 1
 764.186523438 54.7626953125 l 1
1.474609375 309 m 1
 1.474609375 546.288085938 l 1
 238.762695312 546.288085938 l 1
 238.762695312 309 l 1
 1.474609375 309 l 1
255.711914062 309 m 1
 255.711914062 546.288085938 l 1
 493 546.288085938 l 1
 493 309 l 1
 255.711914062 309 l 1
509.94921875 309 m 1
 509.94921875 546.288085938 l 1
 747.237304688 546.288085938 l 1
 747.237304688 309 l 1
 509.94921875 309 l 1
764.186523438 309 m 1
 764.186523438 546.288085938 l 1
 1001.47460938 546.288085938 l 1
 1001.47460938 309 l 1
 764.186523438 309 l 1
1.474609375 563.237304688 m 1
 1.474609375 800.525390625 l 1
 238.762695312 800.525390625 l 1
 238.762695312 563.237304688 l 1
 1.474609375 563.237304688 l 1
255.711914062 563.237304688 m 1
 255.711914062 800.525390625 l 1
 493 800.525390625 l 1
 493 563.237304688 l 1
 255.711914062 563.237304688 l 1
509.94921875 563.237304688 m 1
 509.94921875 800.525390625 l 1
 747.237304688 800.525390625 l 1
 747.237304688 563.237304688 l 1
 509.94921875 563.237304688 l 1
764.186523438 563.237304688 m 1
 764.186523438 800.525390625 l 1
 1001.47460938 800.525390625 l 1
 1001.47460938 563.237304688 l 1
 764.186523438 563.237304688 l 1
EndSplineSet
EndChar

StartChar: less
Encoding: 60 60 123
Width: 1000
Flags: HW
LayerCount: 2
Fore
SplineSet
764.186523438 54.7626953125 m 1
 764.186523438 292.05078125 l 1
 1001.47460938 292.05078125 l 1
 1001.47460938 54.7626953125 l 1
 764.186523438 54.7626953125 l 1
764.186523438 309 m 1
 764.186523438 546.288085938 l 1
 1001.47460938 546.288085938 l 1
 1001.47460938 309 l 1
 764.186523438 309 l 1
255.711914062 563.237304688 m 1
 255.711914062 800.525390625 l 1
 493 800.525390625 l 1
 493 563.237304688 l 1
 255.711914062 563.237304688 l 1
509.94921875 563.237304688 m 1
 509.94921875 800.525390625 l 1
 747.237304688 800.525390625 l 1
 747.237304688 563.237304688 l 1
 509.94921875 563.237304688 l 1
764.186523438 563.237304688 m 1
 764.186523438 800.525390625 l 1
 1001.47460938 800.525390625 l 1
 1001.47460938 563.237304688 l 1
 764.186523438 563.237304688 l 1
EndSplineSet
EndChar

StartChar: equal
Encoding: 61 61 124
Width: 1000
Flags: HW
LayerCount: 2
Fore
SplineSet
255.711914062 -199.474609375 m 1
 255.711914062 37.8134765625 l 1
 493 37.8134765625 l 1
 493 -199.474609375 l 1
 255.711914062 -199.474609375 l 1
509.94921875 -199.474609375 m 1
 509.94921875 37.8134765625 l 1
 747.237304688 37.8134765625 l 1
 747.237304688 -199.474609375 l 1
 509.94921875 -199.474609375 l 1
764.186523438 -199.474609375 m 1
 764.186523438 37.8134765625 l 1
 1001.47460938 37.8134765625 l 1
 1001.47460938 -199.474609375 l 1
 764.186523438 -199.474609375 l 1
764.186523438 54.7626953125 m 1
 764.186523438 292.05078125 l 1
 1001.47460938 292.05078125 l 1
 1001.47460938 54.7626953125 l 1
 764.186523438 54.7626953125 l 1
764.186523438 309 m 1
 764.186523438 546.288085938 l 1
 1001.47460938 546.288085938 l 1
 1001.47460938 309 l 1
 764.186523438 309 l 1
EndSplineSet
EndChar

StartChar: greater
Encoding: 62 62 125
Width: 1000
Flags: HW
LayerCount: 2
Fore
SplineSet
1.474609375 37.8134765625 m 1
 238.762695312 37.8134765625 l 1
 238.762695312 -199.474609375 l 1
 1.474609375 -199.474609375 l 1
 1.474609375 37.8134765625 l 1
255.711914062 -199.474609375 m 1
 255.711914062 37.8134765625 l 1
 493 37.8134765625 l 1
 493 -199.474609375 l 1
 255.711914062 -199.474609375 l 1
509.94921875 -199.474609375 m 1
 509.94921875 37.8134765625 l 1
 747.237304688 37.8134765625 l 1
 747.237304688 -199.474609375 l 1
 509.94921875 -199.474609375 l 1
1.474609375 54.7626953125 m 1
 1.474609375 292.05078125 l 1
 238.762695312 292.05078125 l 1
 238.762695312 54.7626953125 l 1
 1.474609375 54.7626953125 l 1
1.474609375 309 m 1
 1.474609375 546.288085938 l 1
 238.762695312 546.288085938 l 1
 238.762695312 309 l 1
 1.474609375 309 l 1
EndSplineSet
EndChar

StartChar: question
Encoding: 63 63 126
Width: 1000
Flags: HW
LayerCount: 2
Fore
SplineSet
1.474609375 54.7626953125 m 1
 1.474609375 292.05078125 l 1
 238.762695312 292.05078125 l 1
 238.762695312 54.7626953125 l 1
 1.474609375 54.7626953125 l 1
1.474609375 309 m 1
 1.474609375 546.288085938 l 1
 238.762695312 546.288085938 l 1
 238.762695312 309 l 1
 1.474609375 309 l 1
1.474609375 563.237304688 m 1
 1.474609375 800.525390625 l 1
 238.762695312 800.525390625 l 1
 238.762695312 563.237304688 l 1
 1.474609375 563.237304688 l 1
255.711914062 563.237304688 m 1
 255.711914062 800.525390625 l 1
 493 800.525390625 l 1
 493 563.237304688 l 1
 255.711914062 563.237304688 l 1
509.94921875 563.237304688 m 1
 509.94921875 800.525390625 l 1
 747.237304688 800.525390625 l 1
 747.237304688 563.237304688 l 1
 509.94921875 563.237304688 l 1
EndSplineSet
EndChar

StartChar: at
Encoding: 64 64 127
Width: 1000
Flags: HW
LayerCount: 2
Fore
SplineSet
509.94921875 -199.474609375 m 1
 509.94921875 37.8134765625 l 1
 747.237304688 37.8134765625 l 1
 747.237304688 -199.474609375 l 1
 509.94921875 -199.474609375 l 1
764.186523438 -199.474609375 m 1
 764.186523438 37.8134765625 l 1
 1001.47460938 37.8134765625 l 1
 1001.47460938 -199.474609375 l 1
 764.186523438 -199.474609375 l 1
764.186523438 54.7626953125 m 1
 764.186523438 292.05078125 l 1
 1001.47460938 292.05078125 l 1
 1001.47460938 54.7626953125 l 1
 764.186523438 54.7626953125 l 1
1.474609375 309 m 1
 1.474609375 546.288085938 l 1
 238.762695312 546.288085938 l 1
 238.762695312 309 l 1
 1.474609375 309 l 1
255.711914062 546.288085938 m 1
 493 546.288085938 l 1025
509.94921875 546.288085938 m 1
 747.237304688 546.288085938 l 1025
764.186523438 309 m 1
 764.186523438 546.288085938 l 1
 1001.47460938 546.288085938 l 1
 1001.47460938 309 l 1
 764.186523438 309 l 1
1.474609375 563.237304688 m 1
 1.474609375 800.525390625 l 1
 238.762695312 800.525390625 l 1
 238.762695312 563.237304688 l 1
 1.474609375 563.237304688 l 1
255.711914062 563.237304688 m 1
 255.711914062 800.525390625 l 1
 493 800.525390625 l 1
 493 563.237304688 l 1
 255.711914062 563.237304688 l 1
509.94921875 563.237304688 m 1
 509.94921875 800.525390625 l 1
 747.237304688 800.525390625 l 1
 747.237304688 563.237304688 l 1
 509.94921875 563.237304688 l 1
764.186523438 563.237304688 m 1
 764.186523438 800.525390625 l 1
 1001.47460938 800.525390625 l 1
 1001.47460938 563.237304688 l 1
 764.186523438 563.237304688 l 1
EndSplineSet
EndChar
